<svg width="38" height="38" viewBox="0 0 38 38" fill="none" xmlns="http://www.w3.org/2000/svg">
<path d="M18.43 27.27C17.7167 27.27 17.0467 27.1367 16.42 26.87C15.7933 26.5967 15.25 26.21 14.79 25.71C14.3367 25.21 14.0067 24.62 13.8 23.94L15.82 23.38C16.0133 24 16.35 24.4767 16.83 24.81C17.31 25.1367 17.8433 25.2967 18.43 25.29C18.9567 25.2833 19.42 25.16 19.82 24.92C20.22 24.68 20.5333 24.3567 20.76 23.95C20.9867 23.5367 21.1 23.0633 21.1 22.53C21.1 21.73 20.85 21.07 20.35 20.55C19.8567 20.03 19.21 19.77 18.41 19.77C18.1833 19.77 17.95 19.8033 17.71 19.87C17.4767 19.9367 17.2567 20.0233 17.05 20.13L16.07 18.48L21.15 13.99L21.37 14.59H14.37V12.6H23.03V14.59L18.81 18.65L18.79 17.97C19.6967 17.97 20.4833 18.1733 21.15 18.58C21.8167 18.98 22.33 19.5267 22.69 20.22C23.0567 20.9067 23.24 21.6767 23.24 22.53C23.24 23.45 23.0233 24.2667 22.59 24.98C22.1633 25.6933 21.5867 26.2533 20.86 26.66C20.14 27.0667 19.33 27.27 18.43 27.27Z" fill="#385723"/>
<circle cx="19" cy="19" r="18" stroke="#385723" stroke-width="2"/>
</svg>
