<svg width="38" height="38" viewBox="0 0 38 38" fill="none" xmlns="http://www.w3.org/2000/svg">
<path d="M14 26.99L14.01 25.13L20.28 19.51C20.7867 19.0633 21.13 18.6367 21.31 18.23C21.4967 17.8233 21.59 17.4167 21.59 17.01C21.59 16.4967 21.4767 16.0367 21.25 15.63C21.0233 15.2167 20.71 14.89 20.31 14.65C19.91 14.41 19.45 14.29 18.93 14.29C18.3967 14.29 17.92 14.4167 17.5 14.67C17.0867 14.9167 16.7633 15.2467 16.53 15.66C16.2967 16.0733 16.1833 16.52 16.19 17H14.05C14.05 16.0667 14.26 15.25 14.68 14.55C15.1067 13.8433 15.69 13.2933 16.43 12.9C17.17 12.5 18.0167 12.3 18.97 12.3C19.8767 12.3 20.69 12.5067 21.41 12.92C22.13 13.3267 22.6967 13.8867 23.11 14.6C23.53 15.3133 23.74 16.1267 23.74 17.04C23.74 17.7 23.6533 18.26 23.48 18.72C23.3067 19.18 23.0467 19.6067 22.7 20C22.3533 20.3933 21.92 20.82 21.4 21.28L16.56 25.6L16.33 25H23.74V26.99H14Z" fill="#385723"/>
<circle cx="19" cy="19" r="18" stroke="#385723" stroke-width="2"/>
</svg>
