<svg width="1600" height="669" viewBox="0 0 1600 669" fill="none" xmlns="http://www.w3.org/2000/svg">
<g clip-path="url(#clip0_4_2113)">
<rect width="1600" height="669" fill="#15A135"/>
<path d="M881 569.22L869 636.72" stroke="white" stroke-width="0.8" stroke-linecap="round"/>
<path d="M873 570.72L860.5 638.22" stroke="white" stroke-width="0.8" stroke-linecap="round"/>
<path d="M866 572.22L850 638.22" stroke="white" stroke-width="0.8" stroke-linecap="round"/>
<path d="M858 574.22L839 639.22" stroke="white" stroke-width="0.8" stroke-linecap="round"/>
<path d="M840.5 577.72L813.5 639.72" stroke="white" stroke-width="0.8" stroke-linecap="round"/>
<path d="M807.5 640.22L809.5 644.72" stroke="white" stroke-width="0.8" stroke-linecap="round"/>
<path d="M875 636.22L877 641.22" stroke="white" stroke-width="0.8" stroke-linecap="round"/>
<path d="M797.5 588.72L799.5 652.72" stroke="white" stroke-linecap="round"/>
<path d="M759 520.72L805 588.22" stroke="white" stroke-linecap="round"/>
<path d="M641 520.22L595.166 573.855C594.657 574.45 595 575.374 595.775 575.493L600.5 576.22" stroke="white"/>
<path d="M702.372 619.335L735.74 618.511" stroke="white" stroke-width="0.823903" stroke-linecap="round"/>
<path d="M718.85 599.973L720.91 640.756" stroke="white" stroke-width="0.823903" stroke-linecap="round"/>
<path d="M734.111 599.582C724.494 599.824 707.407 600.19 702.727 600.058C702.152 600.042 701.572 600.588 701.595 601.163L703.163 641.541C703.181 642.011 703.588 642.37 704.057 642.33L735.78 639.588C736.219 639.55 736.55 639.174 736.532 638.733L734.95 600.372C734.931 599.922 734.561 599.57 734.111 599.582Z" stroke="white" stroke-width="0.823903" stroke-linecap="round"/>
<path d="M747.6 616.417L777.435 615.681" stroke="white" stroke-width="0.823903" stroke-linecap="round"/>
<path d="M762.333 599.106L764.175 635.571" stroke="white" stroke-width="0.823903" stroke-linecap="round"/>
<path d="M775.89 598.758C767.363 598.973 752.393 599.293 748.047 599.186C747.471 599.171 746.887 599.72 746.909 600.296L748.303 636.181C748.321 636.651 748.728 637.01 749.197 636.97L777.387 634.533C777.826 634.496 778.157 634.119 778.139 633.679L776.731 599.548C776.713 599.098 776.34 598.747 775.89 598.758Z" stroke="white" stroke-width="0.823903" stroke-linecap="round"/>
<path fill-rule="evenodd" clip-rule="evenodd" d="M653.114 525.077C653.065 525.092 653.02 525.116 652.981 525.146C652.934 525.183 652.897 525.228 652.871 525.278C652.845 525.328 652.828 525.384 652.824 525.443C652.821 525.493 652.827 525.543 652.842 525.592C652.854 525.631 652.872 525.668 652.894 525.702L690.228 582.673C690.343 582.847 690.567 582.906 690.751 582.819L691.005 582.813C691.265 582.808 691.637 582.801 692.11 582.792C693.058 582.774 694.409 582.748 696.071 582.717C699.199 582.659 703.427 582.58 708.128 582.493C708.231 582.535 708.349 582.534 708.453 582.487L709.022 582.476C719.053 582.29 731.017 582.069 739.057 581.921C739.141 581.946 739.233 581.944 739.317 581.913C739.518 581.882 739.671 581.707 739.667 581.498C739.664 581.318 739.546 581.167 739.385 581.114L698.97 525.434C698.969 525.253 698.851 525.099 698.687 525.045L698.677 525.03C698.543 524.846 698.285 524.805 698.101 524.939C698.067 524.964 698.038 524.992 698.014 525.024C682.971 525.033 653.916 525.052 653.237 525.059C653.196 525.058 653.154 525.064 653.114 525.077ZM698.252 525.848C694.169 525.851 689.017 525.854 683.669 525.857L690.531 535.205C695.852 535.202 700.975 535.199 705.038 535.196L698.252 525.848ZM705.581 535.944C705.513 535.992 705.431 536.02 705.343 536.02C701.384 536.022 696.372 536.026 691.135 536.029L697.987 545.365C703.292 545.36 708.38 545.355 712.41 545.353L705.581 535.944ZM713.005 546.173C712.988 546.175 712.97 546.177 712.952 546.177C708.99 546.179 703.917 546.183 698.592 546.188L706.438 556.878C711.708 556.815 716.728 556.764 720.674 556.739L713.005 546.173ZM721.222 557.493C721.157 557.536 721.081 557.56 720.998 557.561C717.152 557.584 712.232 557.634 707.038 557.695L715.529 569.264C720.727 569.149 725.658 569.035 729.529 568.938L721.222 557.493ZM730.082 569.7C730.025 569.733 729.959 569.752 729.889 569.753C726.108 569.848 721.262 569.96 716.124 570.075L724.259 581.159C724.306 581.223 724.332 581.295 724.338 581.369C729.454 581.274 734.353 581.184 738.363 581.11L730.082 569.7ZM715.118 570.097L723.404 581.386C718.384 581.479 713.196 581.575 708.467 581.663L700.324 570.418L700.922 570.406C705.461 570.309 710.39 570.203 715.118 570.097ZM706.024 557.707L714.523 569.287C709.563 569.396 704.409 569.507 699.736 569.607L691.259 557.902C695.927 557.836 701.075 557.767 706.024 557.707ZM697.57 546.189L705.425 556.891C700.451 556.951 695.305 557.02 690.668 557.086L682.788 546.204L684.389 546.203C688.594 546.198 693.15 546.193 697.57 546.189ZM690.114 536.03L696.966 545.366C691.952 545.371 686.793 545.376 682.191 545.381L675.426 536.04L677.192 536.038C681.305 536.035 685.768 536.032 690.114 536.03ZM682.648 525.858L689.509 535.206C684.507 535.209 679.378 535.213 674.83 535.216L668.059 525.868L670.407 525.866C674.306 525.863 678.518 525.861 682.648 525.858ZM667.068 525.869C663.702 525.871 660.695 525.874 658.351 525.876C656.804 525.877 655.546 525.878 654.664 525.88L653.997 525.881L660.124 535.23C660.978 535.227 666.556 535.222 673.813 535.217L667.127 525.985C667.101 525.949 667.081 525.909 667.068 525.869ZM674.409 536.04C670.818 536.043 667.608 536.046 665.136 536.048C663.589 536.049 662.331 536.051 661.449 536.052L660.663 536.053L666.79 545.403L666.798 545.403C666.946 545.4 673.083 545.392 681.175 545.382L674.409 536.04ZM681.771 546.206C678.007 546.21 674.636 546.214 672.05 546.217C670.464 546.22 669.174 546.222 668.27 546.223L667.329 546.225L674.604 557.327C675.691 557.309 681.855 557.212 689.661 557.1L681.771 546.206ZM690.252 557.916C683.014 558.019 677.091 558.111 675.138 558.142L682.886 569.965C682.893 569.964 682.9 569.964 682.907 569.963C682.993 569.96 685.172 569.914 688.616 569.842L688.616 569.842L688.626 569.841C691.345 569.784 694.851 569.711 698.734 569.628L690.252 557.916ZM699.322 570.44C695.184 570.528 691.445 570.606 688.588 570.666L688.579 570.666L688.304 570.672C686.68 570.706 685.358 570.734 684.432 570.754C684.007 570.763 683.666 570.77 683.417 570.775L690.769 581.994C692.057 581.968 698.912 581.84 707.464 581.681L699.322 570.44Z" fill="white"/>
<path d="M729.392 556.521C729.708 556.513 759.716 556.038 774.091 555.952" stroke="white" stroke-width="0.823903" stroke-linecap="round"/>
<path d="M737.533 568.652C737.849 568.638 768.251 568.021 782.621 567.659" stroke="white" stroke-width="0.823903" stroke-linecap="round"/>
<path d="M744.873 580.209C745.213 580.197 776.182 579.625 791.624 579.34" stroke="white" stroke-width="0.823903" stroke-linecap="round"/>
<path d="M709.024 525.533C709.34 525.527 738.17 525.508 752.545 525.499" stroke="white" stroke-width="0.823903" stroke-linecap="round"/>
<path d="M715.539 535.3C715.856 535.294 744.685 535.276 759.06 535.267" stroke="white" stroke-width="0.823903" stroke-linecap="round"/>
<path d="M722.055 545.068C722.371 545.062 751.991 545.029 766.366 545.02" stroke="white" stroke-width="0.823903" stroke-linecap="round"/>
<path d="M709.024 525.533L744.877 580.244" stroke="white" stroke-width="0.823903" stroke-linecap="round"/>
<path d="M722.684 525.795L761.884 579.922" stroke="white" stroke-width="0.823903" stroke-linecap="round"/>
<path d="M737.511 525.569L776.906 579.242" stroke="white" stroke-width="0.823903" stroke-linecap="round"/>
<path d="M752.339 525.342L791.547 579.36" stroke="white" stroke-width="0.823903" stroke-linecap="round"/>
<path d="M626.985 561.25C627.974 561.25 643.326 561.799 650.878 562.073" stroke="white" stroke-width="0.823903" stroke-linecap="round"/>
<path d="M639.756 547.243L638.932 570.724" stroke="white" stroke-width="0.823903" stroke-linecap="round"/>
<path d="M650.878 562.074C649.643 544.36 630.281 540.24 626.985 561.25L626.61 569.494C626.59 569.947 626.939 570.331 627.392 570.354L650.013 571.504C650.484 571.528 650.878 571.153 650.878 570.682V562.074Z" stroke="white" stroke-width="0.823903" stroke-linecap="round"/>
<path d="M645.935 527.469L638.24 516.477C637.849 515.918 638.268 515.152 638.95 515.181L758.5 520.22" stroke="white" stroke-width="0.823903" stroke-linecap="round"/>
<path d="M600.62 576.08L643.176 525.419C643.527 525.001 644.18 525.034 644.487 525.485L688.527 590.13C688.683 590.36 688.946 590.495 689.224 590.489L805 588.22" stroke="white" stroke-width="0.823903" stroke-linecap="round"/>
<path d="M620.394 652.291L621.972 606.536C621.987 606.084 622.364 605.729 622.816 605.74L654.614 606.544C655.058 606.556 655.413 606.916 655.417 607.36L655.822 650.231" stroke="white" stroke-width="0.823903" stroke-linecap="round"/>
<path d="M596 656.72L600.167 576.877C600.19 576.433 600.562 576.087 601.006 576.096L679.345 577.711C679.784 577.72 680.138 578.071 680.152 578.509L682.5 651.72" stroke="white" stroke-width="0.823903" stroke-linecap="round"/>
<path d="M733.681 659.294C755.976 651.331 837.5 640.22 934 689.22" stroke="white" stroke-width="0.823903" stroke-linecap="round"/>
<path d="M709.47 417.281C709.941 405.58 702.104 405.201 699.38 416.47C699.283 416.873 698.689 416.928 698.521 416.549C693.669 405.604 686.285 407.942 685.909 419.816C685.898 420.177 685.45 420.359 685.184 420.115C671.991 408.054 668.42 414.989 674.844 427.538C674.99 427.823 674.766 428.169 674.446 428.157C659.499 427.598 658.51 434.095 668.575 439.304C668.893 439.469 668.875 439.943 668.546 440.085C657.576 444.796 658.854 450.802 668.631 451.968C669.02 452.014 669.16 452.536 668.84 452.763C659.06 459.733 661.458 465.391 672.852 463.724C673.159 463.679 673.416 463.979 673.323 464.275C670.103 474.542 674.296 476.941 682.694 470.758C682.979 470.548 683.39 470.771 683.378 471.125C682.969 482.805 689.54 482.015 694.688 473.461C694.899 473.111 695.464 473.228 695.515 473.633C697.042 485.734 703.588 484.728 705.479 474.282C705.549 473.896 706.079 473.792 706.287 474.125C711.911 483.138 716.662 480.827 715.742 471.671C715.7 471.256 716.251 471.005 716.54 471.304C722.429 477.406 727.229 474.468 723.53 464.961C723.38 464.574 723.837 464.19 724.192 464.406C732.232 469.299 737.084 466.302 730.732 457.98C730.493 457.667 730.78 457.204 731.167 457.276C740.526 459.017 742.951 454.204 733.203 446.767C732.873 446.515 733.075 445.955 733.49 445.958C743.896 446.022 742.793 438.512 733.118 435.501C732.751 435.387 732.702 434.864 733.041 434.685C741.7 430.104 738.973 425.437 730.374 427.815C729.989 427.922 729.656 427.47 729.875 427.135C735.771 418.152 728.996 416.563 720.702 421.384C720.363 421.582 719.939 421.243 720.055 420.868C723.111 410.945 716.423 410.391 710.276 417.596C710.008 417.911 709.454 417.694 709.47 417.281Z" stroke="white" stroke-width="0.823903" stroke-linecap="round"/>
<path d="M692.073 437.252C692.485 443.019 697.841 442.607 698.253 437.252" stroke="white" stroke-width="0.823903" stroke-linecap="round"/>
<path d="M703.196 437.252C703.608 443.019 708.964 442.607 709.376 437.252" stroke="white" stroke-width="0.823903" stroke-linecap="round"/>
<path d="M699.077 445.491C699.296 447.769 702.153 447.606 702.372 445.491" stroke="white" stroke-width="0.823903" stroke-linecap="round"/>
<path d="M627.86 498.919L628.5 534.72" stroke="white" stroke-width="0.823903" stroke-linecap="round"/>
<path d="M635.357 487.388L629.117 494.434C628.873 494.71 628.409 494.628 628.109 494.413C627.761 494.165 627.533 493.743 627.715 493.357L629.652 489.269C629.689 489.191 629.738 489.119 629.797 489.057C631.347 487.434 632.706 486.623 634.645 486.129C635.387 485.941 635.865 486.815 635.357 487.388Z" stroke="white" stroke-width="0.823903" stroke-linecap="round"/>
<path d="M631.255 506.75L627.501 498.12C627.354 497.782 627.623 497.396 627.944 497.215C628.316 497.004 628.796 496.975 629.069 497.304L631.958 500.784C632.013 500.85 632.057 500.925 632.089 501.005C632.906 503.095 633.068 504.669 632.697 506.636C632.555 507.388 631.561 507.452 631.255 506.75Z" stroke="white" stroke-width="0.823903" stroke-linecap="round"/>
<path d="M616.14 491.881L625.18 494.503C625.534 494.605 625.658 495.059 625.593 495.422C625.518 495.843 625.234 496.231 624.807 496.231L620.284 496.232C620.198 496.232 620.111 496.218 620.029 496.191C617.9 495.486 616.585 494.605 615.308 493.064C614.82 492.474 615.406 491.668 616.14 491.881Z" stroke="white" stroke-width="0.823903" stroke-linecap="round"/>
<circle cx="627.2" cy="495.751" r="1.58395" stroke="white" stroke-width="0.823903"/>
<path d="M626.276 497.071L626 537.72" stroke="white" stroke-width="0.823903" stroke-linecap="round"/>
<path d="M625.01 407.572C599.677 406.199 607.97 434.249 626.502 424.737C626.79 424.589 627.154 424.61 627.414 424.802C635.178 430.534 640.051 430.366 648.842 425.916C649.083 425.794 649.376 425.796 649.616 425.923C656.813 429.717 660.556 429.739 665.766 424.437C665.984 424.215 666.309 424.128 666.608 424.213C668.921 424.875 670.409 425.009 672.452 424.942C672.996 424.925 673.362 424.38 673.191 423.862C670.437 415.489 670.441 412.007 679.871 415.641C680.496 415.882 681.151 415.334 680.957 414.693C679.147 408.735 675.437 407.306 666.872 407.184C666.657 407.181 666.445 407.091 666.291 406.941C659.772 400.566 655.228 400.811 646.744 404.533C646.497 404.641 646.206 404.622 645.974 404.486C638.401 400.025 633.812 400.936 625.589 407.393C625.429 407.519 625.213 407.583 625.01 407.572Z" stroke="white" stroke-width="0.823903" stroke-linecap="round"/>
<ellipse cx="701.136" cy="445.491" rx="21.0095" ry="18.9498" stroke="white" stroke-width="0.823903"/>
<path d="M739.448 438.9C743.908 433.224 749.641 432.74 758.778 439.397C759.045 439.592 759.412 439.612 759.699 439.446C769.337 433.873 773.615 433.897 777.819 441.158C778.025 441.513 778.459 441.673 778.846 441.537C784.475 439.564 786.708 440.919 789.189 446.094C789.257 446.236 789.372 446.363 789.505 446.449C798.947 452.548 790.65 460.922 780.58 457.161C780.36 457.078 780.108 457.088 779.897 457.192C773.362 460.409 769.668 460.534 763.81 455.766C763.53 455.538 763.132 455.512 762.827 455.703C755.868 460.051 751.758 460.412 744.606 455.526C744.468 455.431 744.302 455.378 744.134 455.378H739.448" stroke="white" stroke-width="0.823903" stroke-linecap="round"/>
<path d="M530 688.72C599 631.72 704.313 649.44 780.643 671.652" stroke="white" stroke-width="0.823903" stroke-linecap="round"/>
<path d="M651.78 629.633C651.78 630.661 651.425 631.146 651.09 631.389C650.951 631.491 650.803 631.559 650.663 631.605C650.815 631.192 650.956 630.571 650.956 629.633C650.956 628.695 650.815 628.075 650.663 627.661C650.803 627.707 650.951 627.776 651.09 627.877C651.425 628.121 651.78 628.605 651.78 629.633Z" fill="#FF0000" stroke="white" stroke-width="0.823903"/>
<path d="M643.588 591.72C643.588 594.186 641.16 596.308 638 596.308C634.84 596.308 632.412 594.186 632.412 591.72C632.412 589.253 634.84 587.132 638 587.132C641.16 587.132 643.588 589.253 643.588 591.72Z" stroke="white" stroke-width="0.823903"/>
<path d="M571 566.22L569.5 664.72" stroke="white" stroke-width="0.83" stroke-linecap="round"/>
<path d="M575.456 543.688L573.551 559.863C573.48 560.469 572.772 560.796 572.162 560.788C571.455 560.779 570.744 560.421 570.628 559.724L569.389 552.296C569.37 552.182 569.369 552.064 569.387 551.95C569.996 548.002 571.19 545.536 573.683 542.824C574.378 542.069 575.576 542.669 575.456 543.688Z" stroke="white" stroke-width="0.83" stroke-linecap="round"/>
<path d="M588.7 574.955L574.839 566.403C574.32 566.083 574.322 565.303 574.586 564.753C574.893 564.115 575.517 563.622 576.199 563.811L583.456 565.822C583.567 565.853 583.674 565.901 583.77 565.966C587.093 568.184 588.825 570.306 590.231 573.712C590.623 574.66 589.573 575.493 588.7 574.955Z" stroke="white" stroke-width="0.83" stroke-linecap="round"/>
<path d="M552.832 568.886L568.264 563.68C568.842 563.485 569.441 563.984 569.696 564.539C569.99 565.182 569.971 565.977 569.391 566.381L563.209 570.682C563.114 570.748 563.008 570.799 562.898 570.832C559.068 571.972 556.329 571.95 552.811 570.858C551.831 570.554 551.86 569.214 552.832 568.886Z" stroke="white" stroke-width="0.83" stroke-linecap="round"/>
<circle cx="2.62286" cy="2.62286" r="2.62286" transform="matrix(-1 0 0 1 574.772 560.902)" stroke="white" stroke-width="0.83"/>
<path d="M574 565.72L575 662.72" stroke="white" stroke-width="0.83" stroke-linecap="round"/>
<path d="M667.867 472.682C664.447 475.45 661.426 478.47 657.695 480.869C655.742 482.124 653.435 483.142 652.997 485.554" stroke="white" stroke-width="0.8" stroke-linecap="round"/>
<path d="M676.967 477.343C675.376 480.814 673.577 483.91 671.196 486.886" stroke="white" stroke-width="0.8" stroke-linecap="round"/>
<path d="M683.403 480.672C682.423 485.277 681.768 490.026 680.074 494.432" stroke="white" stroke-width="0.8" stroke-linecap="round"/>
<path d="M693.168 481.781V484.888" stroke="white" stroke-width="0.8" stroke-linecap="round"/>
<path d="M707.373 484.445C709.043 486.673 709.45 490.208 711.589 491.991" stroke="white" stroke-width="0.8" stroke-linecap="round"/>
<path d="M718.248 478.23C720.351 481.758 722.922 484.931 725.202 488.341C726.696 490.576 727.929 492.968 729.567 495.098" stroke="white" stroke-width="0.8" stroke-linecap="round"/>
<path d="M728.679 475.789C729.685 476.527 730.615 477.54 731.786 478.008" stroke="white" stroke-width="0.8" stroke-linecap="round"/>
<path d="M733.784 469.353C735.115 471.35 737.636 472.953 739.369 474.617C740.433 475.638 741.336 476.841 742.439 477.786" stroke="white" stroke-width="0.8" stroke-linecap="round"/>
<path d="M658.545 459.144C656.212 460.108 653.779 460.709 651.443 461.585" stroke="white" stroke-width="0.8" stroke-linecap="round"/>
<path d="M656.104 452.041C652.246 452.118 648.581 452.765 644.785 453.397C641.838 453.888 638.883 453.817 635.907 453.817" stroke="white" stroke-width="0.8" stroke-linecap="round"/>
<path d="M653.663 467.355H660.099" stroke="white" stroke-width="0.8" stroke-linecap="round"/>
<path d="M738.998 423.434C739.753 421.968 741.246 421.254 742.574 420.369" stroke="white" stroke-width="0.8" stroke-linecap="round"/>
<path d="M733.38 418.837C734.106 415.994 736.041 413.439 737.48 410.92C739.188 407.932 741.033 405.063 742.574 401.981" stroke="white" stroke-width="0.8" stroke-linecap="round"/>
<path d="M724.441 409.388V411.942" stroke="white" stroke-width="0.8" stroke-linecap="round"/>
<path d="M714.481 391V409.132" stroke="white" stroke-width="0.8" stroke-linecap="round"/>
<path d="M699.414 404.536V406.068" stroke="white" stroke-width="0.8" stroke-linecap="round"/>
<path d="M688.432 406.068C688.232 401.653 687.25 397.344 686.389 393.043" stroke="white" stroke-width="0.8" stroke-linecap="round"/>
<path d="M876.221 628.258C875.783 628.258 832.393 631.18 810.752 632.641" stroke="white" stroke-width="0.8" stroke-linecap="round"/>
<path d="M877.865 619.492L814.04 624.97" stroke="white" stroke-width="0.8" stroke-linecap="round"/>
<path d="M878.96 612.096L817 618.719" stroke="white" stroke-width="0.8" stroke-linecap="round"/>
<path d="M880.056 605.248C878.96 605.248 839.241 610.726 819.518 613.466" stroke="white" stroke-width="0.8" stroke-linecap="round"/>
<path d="M881.152 598.948L822.531 607.439" stroke="white" stroke-width="0.8" stroke-linecap="round"/>
<path d="M881.974 593.195L824.723 602.508" stroke="white" stroke-width="0.8" stroke-linecap="round"/>
<path d="M883.069 587.716L827.188 597.578" stroke="white" stroke-width="0.8" stroke-linecap="round"/>
<path d="M885.261 572.924L833.762 583.334" stroke="white" stroke-width="0.8" stroke-linecap="round"/>
<path d="M884.713 577.581L831.571 587.99" stroke="white" stroke-width="0.8" stroke-linecap="round"/>
<path d="M883.891 582.512L829.38 592.647" stroke="white" stroke-width="0.8" stroke-linecap="round"/>
<path d="M875.254 635.687L886.119 569.17C886.233 568.474 885.61 567.882 884.92 568.032L836.437 578.572C836.132 578.638 835.876 578.842 835.744 579.124L807.632 639.06C807.31 639.747 807.84 640.529 808.598 640.483L874.328 636.524C874.794 636.495 875.179 636.148 875.254 635.687Z" stroke="white" stroke-width="0.8" stroke-linecap="round"/>
<path d="M886.083 567.994L887.646 569.557C887.869 569.78 887.973 570.095 887.928 570.407L877.709 640.862C877.641 641.337 877.244 641.696 876.764 641.717L809.5 644.72" stroke="white" stroke-width="0.8" stroke-linecap="round"/>
<path d="M860.333 642.502V670.99" stroke="white" stroke-width="0.8" stroke-linecap="round"/>
<path d="M851.842 642.776V672.908" stroke="white" stroke-width="0.8" stroke-linecap="round"/>
<path d="M846.363 643.05V671.538" stroke="white" stroke-width="0.8" stroke-linecap="round"/>
<path d="M808 640.72L875 636.72L877 641.72L809.5 644.72L808 640.72Z" fill="white"/>
<path d="M709.119 604.72C708.73 605.294 708.235 605.802 707.807 606.342C707.609 606.591 707.306 607.208 707 607.31" stroke="white" stroke-width="0.6" stroke-linecap="round"/>
<path d="M754.119 602.72C753.73 603.294 753.235 603.802 752.807 604.342C752.609 604.591 752.306 605.208 752 605.31" stroke="white" stroke-width="0.6" stroke-linecap="round"/>
<path d="M711 604.72C710.449 605.606 709.748 606.391 709.142 607.225C708.862 607.609 708.433 608.562 708 608.72" stroke="white" stroke-width="0.6" stroke-linecap="round"/>
<path d="M756 602.72C755.449 603.606 754.748 604.391 754.142 605.225C753.862 605.609 753.433 606.562 753 606.72" stroke="white" stroke-width="0.6" stroke-linecap="round"/>
<path d="M846 576.72L820.5 639.72" stroke="white" stroke-width="0.8" stroke-linecap="round"/>
<path d="M851 575.72L829.5 639.22" stroke="white" stroke-width="0.8" stroke-linecap="round"/>
<path d="M1623.06 905.792C1881.08 792.328 1998.26 491.186 1884.79 233.173C1771.33 -24.8393 1470.19 -142.019 1212.17 -28.5549C954.161 84.9092 836.981 386.051 950.445 644.064C1063.91 902.076 1365.05 1019.26 1623.06 905.792Z" fill="url(#paint0_linear_4_2113)"/>
<path d="M-152.949 142.304C-142.428 240.171 -54.5623 310.978 43.3041 300.456C141.171 289.935 211.978 202.069 201.456 104.203C190.935 6.33644 103.069 -64.4708 5.20298 -53.9494C-92.6635 -43.4281 -163.471 44.4376 -152.949 142.304Z" fill="url(#paint1_linear_4_2113)"/>
</g>
<defs>
<linearGradient id="paint0_linear_4_2113" x1="1623.05" y1="905.785" x2="1212.17" y2="-28.5377" gradientUnits="userSpaceOnUse">
<stop stop-color="#15A135"/>
<stop offset="1" stop-color="#DEB343"/>
</linearGradient>
<linearGradient id="paint1_linear_4_2113" x1="-152.945" y1="142.299" x2="201.451" y2="104.199" gradientUnits="userSpaceOnUse">
<stop stop-color="#15A135"/>
<stop offset="1" stop-color="#DEB343"/>
</linearGradient>
<clipPath id="clip0_4_2113">
<rect width="1600" height="669" fill="white"/>
</clipPath>
</defs>
</svg>
