<svg width="434" height="450" viewBox="0 0 434 450" fill="none" xmlns="http://www.w3.org/2000/svg">
<path d="M406.012 418.85H15.6327C15.6327 418.85 34.9527 439.135 212.015 439.135C389.077 439.135 406.012 418.85 406.012 418.85Z" fill="#E0E0E0"/>
<path d="M350.455 205.689C327.911 205.689 309.635 187.413 309.635 164.869C309.635 142.325 327.911 124.049 350.455 124.049C373 124.049 391.275 142.325 391.275 164.869C391.275 187.413 373 205.689 350.455 205.689Z" fill="#FFB800"/>
<path d="M369.878 86.4238C367.403 97.6588 364.928 108.893 362.454 120.128C362.177 121.385 359.249 120.705 359.527 119.445C362.002 108.21 364.477 96.9758 366.951 85.7408C367.228 84.4838 370.156 85.1638 369.878 86.4238Z" fill="#FFB800"/>
<path d="M342.026 210.44C339.551 221.675 337.076 232.909 334.602 244.144C334.325 245.401 331.397 244.721 331.675 243.461C334.15 232.226 336.625 220.992 339.099 209.757C339.375 208.5 342.303 209.18 342.026 210.44Z" fill="#FFB800"/>
<path d="M427.403 186.229C416.168 183.754 404.934 181.279 393.699 178.805C392.442 178.528 393.122 175.6 394.382 175.878C405.617 178.353 416.851 180.828 428.086 183.302C429.342 183.578 428.663 186.506 427.403 186.229Z" fill="#FFB800"/>
<path d="M303.387 158.375C292.152 155.9 280.918 153.425 269.683 150.951C268.426 150.674 269.106 147.746 270.366 148.024C281.601 150.499 292.835 152.974 304.07 155.448C305.327 155.725 304.647 158.653 303.387 158.375Z" fill="#FFB800"/>
<path d="M421.65 123.865C411.956 130.059 402.262 136.253 392.568 142.448C391.484 143.141 389.894 140.59 390.981 139.895C400.675 133.701 410.369 127.507 420.063 121.312C421.147 120.619 422.737 123.17 421.65 123.865Z" fill="#FFB800"/>
<path d="M314.263 191.863C304.569 198.057 294.875 204.251 285.181 210.446C284.097 211.139 282.507 208.588 283.594 207.893C293.288 201.699 302.982 195.505 312.676 189.31C313.76 188.617 315.35 191.168 314.263 191.863Z" fill="#FFB800"/>
<path d="M391.753 235.113C385.559 225.419 379.365 215.725 373.17 206.031C372.477 204.947 375.028 203.357 375.723 204.444C381.917 214.138 388.111 223.832 394.306 233.526C394.999 234.611 392.448 236.201 391.753 235.113Z" fill="#FFB800"/>
<path d="M323.755 127.726C317.561 118.032 311.367 108.338 305.172 98.6435C304.479 97.5595 307.03 95.9695 307.725 97.0565C313.919 106.751 320.113 116.445 326.308 126.139C327.001 127.224 324.45 128.814 323.755 127.726Z" fill="#FFB800"/>
<path d="M339.603 95.5067C341.227 103.081 342.85 110.655 344.474 118.229C344.782 119.665 342.587 120.353 342.276 118.904C340.652 111.33 339.029 103.756 337.405 96.1817C337.098 94.7457 339.293 94.0577 339.603 95.5067Z" fill="#FFB800"/>
<path d="M393.357 109.587C388.593 115.695 383.828 121.802 379.064 127.91C378.161 129.068 379.836 130.644 380.747 129.476C385.511 123.368 390.276 117.261 395.04 111.153C395.943 109.995 394.268 108.419 393.357 109.587Z" fill="#FFB800"/>
<path d="M278.782 179.708C286.281 177.768 293.78 175.828 301.279 173.888C302.7 173.52 303.48 175.684 302.046 176.056C294.547 177.996 287.048 179.936 279.549 181.876C278.127 182.244 277.348 180.08 278.782 179.708Z" fill="#FFB800"/>
<path d="M290.594 125.411C296.896 129.915 303.198 134.419 309.5 138.922C310.695 139.776 312.199 138.036 310.994 137.174C304.692 132.67 298.39 128.166 292.088 123.663C290.894 122.81 289.389 124.55 290.594 125.411Z" fill="#FFB800"/>
<path d="M362.569 234.861C360.945 227.287 359.322 219.713 357.698 212.139C357.39 210.703 359.585 210.015 359.896 211.464C361.52 219.038 363.143 226.612 364.767 234.186C365.075 235.622 362.88 236.31 362.569 234.861Z" fill="#FFB800"/>
<path d="M308.815 220.781C313.579 214.673 318.344 208.566 323.108 202.458C324.011 201.3 322.336 199.724 321.425 200.892C316.661 207 311.896 213.107 307.132 219.215C306.229 220.373 307.904 221.949 308.815 220.781Z" fill="#FFB800"/>
<path d="M423.389 150.66C415.89 152.6 408.391 154.54 400.892 156.48C399.471 156.848 398.691 154.684 400.125 154.312C407.624 152.372 415.123 150.432 422.622 148.492C424.044 148.124 424.824 150.289 423.389 150.66Z" fill="#FFB800"/>
<path d="M411.577 204.957C405.275 200.453 398.973 195.949 392.671 191.446C391.476 190.592 389.972 192.332 391.177 193.194C397.479 197.698 403.781 202.202 410.083 206.705C411.278 207.558 412.783 205.818 411.577 204.957Z" fill="#FFB800"/>
<path d="M255.852 180.798L251.887 364.727H268.174L263.856 181.061C262.775 181.672 261.523 182.021 260.195 182.021C258.624 182.021 257.165 181.536 255.963 180.708C255.928 180.738 255.888 180.768 255.852 180.798Z" fill="#BACAF7"/>
<path d="M258.86 171.475C258.651 171.53 258.442 171.608 258.237 171.707C257.609 172.008 257.102 172.459 256.739 172.997C256.195 173.779 255.96 174.748 256.096 175.708C256.144 176.088 256.26 176.47 256.435 176.834C256.636 177.253 256.901 177.619 257.221 177.924C257.87 178.565 258.729 178.943 259.62 179.002C260.267 179.056 260.936 178.942 261.564 178.641C261.787 178.534 261.995 178.406 262.187 178.269C262.756 177.845 263.188 177.285 263.445 176.652C263.858 175.681 263.859 174.538 263.365 173.509C263.002 172.753 262.425 172.168 261.733 171.799C260.878 171.325 259.845 171.193 258.86 171.475Z" fill="white"/>
<path d="M228.217 142.973C222.992 139.145 209.049 133.129 206.653 136.357C204.264 139.609 214.314 150.926 219.51 154.762C223.182 157.431 241.233 168.74 252.505 174.127L252.657 174.059C253.034 171.867 254.388 169.879 256.471 168.756C248.018 159.576 231.863 145.682 228.217 142.973Z" fill="#293D1A"/>
<path d="M262.889 182.252C260.642 183.184 258.175 182.934 256.206 181.772C253.319 193.923 250.832 215.079 250.629 219.63C250.372 226.088 252.526 239.266 256.555 239.445C260.589 239.622 265.001 226.716 265.288 220.249C265.459 215.714 264.735 194.625 262.889 182.252Z" fill="#293D1A"/>
<path d="M297.002 149.666C292.949 151.61 274.813 162.075 264.71 169.504C265.557 170.184 266.268 171.059 266.768 172.101C267.325 173.262 267.558 174.495 267.495 175.695C279.592 172.48 299.275 164.807 303.332 162.861C309.183 160.054 321.324 150.578 319.583 146.949C317.829 143.293 302.853 146.859 297.002 149.666Z" fill="#293D1A"/>
<path d="M256.791 168.592C256.682 168.644 256.575 168.701 256.472 168.756C254.389 169.878 253.035 171.867 252.658 174.059C252.651 174.102 252.643 174.145 252.636 174.187C252.409 175.629 252.603 177.155 253.283 178.571C253.858 179.769 254.713 180.747 255.732 181.457C255.886 181.568 256.047 181.67 256.208 181.772C258.177 182.934 260.644 183.184 262.891 182.252C263.016 182.198 263.141 182.143 263.264 182.084C265.828 180.854 267.371 178.349 267.498 175.695C267.561 174.494 267.328 173.262 266.771 172.101C266.271 171.058 265.56 170.184 264.713 169.504C262.535 167.758 259.473 167.306 256.791 168.592ZM258.24 171.706C258.445 171.608 258.654 171.53 258.863 171.474C259.848 171.192 260.88 171.324 261.736 171.799C262.428 172.167 263.006 172.753 263.368 173.509C263.862 174.538 263.861 175.681 263.448 176.652C263.191 177.285 262.76 177.845 262.19 178.269C261.998 178.406 261.79 178.534 261.567 178.641C260.939 178.942 260.27 179.056 259.623 179.002C258.732 178.942 257.873 178.565 257.224 177.924C256.904 177.618 256.639 177.253 256.438 176.834C256.263 176.47 256.148 176.088 256.099 175.708C255.963 174.748 256.198 173.778 256.742 172.997C257.105 172.458 257.611 172.008 258.24 171.706Z" fill="#525C60"/>
<path d="M166.664 95.3876L161.429 338.266H182.938L177.235 95.7336C175.808 96.5406 174.154 97.0006 172.4 97.0006C170.326 97.0006 168.399 96.3606 166.811 95.2666C166.764 95.3076 166.711 95.3476 166.664 95.3876Z" fill="#525C60"/>
<path d="M167.139 86.3045C167.086 86.5845 167.059 86.8785 167.059 87.1785C167.059 88.0985 167.306 88.9595 167.739 89.6995C168.359 90.7935 169.38 91.6265 170.6 92.0135C171.08 92.1735 171.6 92.2535 172.134 92.2535C172.748 92.2535 173.334 92.1465 173.881 91.9405C175.015 91.5335 175.955 90.7265 176.535 89.6995C176.969 88.9595 177.215 88.0985 177.215 87.1785C177.215 86.8515 177.182 86.5315 177.128 86.2245C176.948 85.3045 176.528 84.4705 175.921 83.8035C175.001 82.7565 173.64 82.1025 172.133 82.1025C171.026 82.1025 169.999 82.4555 169.165 83.0695C168.112 83.8165 167.365 84.9705 167.139 86.3045Z" fill="white"/>
<path d="M115.699 106.512C108.156 110.547 93.0309 123.711 95.5049 128.406C98.0129 133.108 117.226 127.606 124.762 123.611C130.037 120.763 153.812 105.731 166.663 95.3876L166.67 95.1676C164.276 93.4666 162.682 90.7196 162.535 87.5986C146.777 92.4196 121.008 103.718 115.699 106.512Z" fill="#293D1A"/>
<path d="M182.269 87.665C182.096 90.873 180.388 93.667 177.881 95.348C190.699 105.725 214.467 120.77 219.769 123.611C227.312 127.606 244.231 132.567 246.745 127.872C249.259 123.17 236.415 110.546 228.879 106.511C223.577 103.718 198.055 92.534 182.269 87.665Z" fill="#293D1A"/>
<path d="M162.957 28.438C162.957 34.373 165.058 61.943 168.132 78.215C169.426 77.595 170.873 77.248 172.4 77.248C174.101 77.248 175.701 77.675 177.095 78.435C180.176 62.196 182.283 34.38 182.283 28.437C182.283 19.867 177.935 0 172.62 0C167.265 0.001 162.957 19.868 162.957 28.438Z" fill="#293D1A"/>
<path d="M162.523 87.125C162.523 87.285 162.53 87.445 162.536 87.599C162.683 90.72 164.277 93.468 166.671 95.168C166.718 95.201 166.764 95.235 166.811 95.268C168.398 96.362 170.326 97.002 172.4 97.002C174.154 97.002 175.808 96.542 177.235 95.735C177.455 95.615 177.669 95.482 177.882 95.348C180.39 93.667 182.097 90.873 182.27 87.665C182.277 87.485 182.283 87.305 182.283 87.125C182.283 83.37 180.182 80.103 177.095 78.435C175.701 77.675 174.101 77.248 172.4 77.248C170.873 77.248 169.426 77.595 168.132 78.215C164.81 79.809 162.523 83.197 162.523 87.125ZM167.057 87.179C167.057 86.879 167.084 86.585 167.137 86.305C167.364 84.971 168.111 83.817 169.164 83.071C169.998 82.457 171.025 82.104 172.132 82.104C173.639 82.104 175 82.758 175.92 83.805C176.527 84.472 176.947 85.306 177.127 86.226C177.18 86.533 177.214 86.853 177.214 87.18C177.214 88.1 176.967 88.961 176.534 89.701C175.954 90.728 175.013 91.535 173.88 91.942C173.333 92.149 172.746 92.255 172.133 92.255C171.599 92.255 171.079 92.175 170.599 92.015C169.379 91.628 168.358 90.795 167.738 89.701C167.304 88.959 167.057 88.099 167.057 87.179Z" fill="#525C60"/>
<path d="M105.476 419.51L105.958 419.403H395.056V418.787C404.046 418.787 413.037 417.461 421.638 414.861C426.863 413.267 432.812 410.078 433.027 404.611C433.174 400.913 430.495 397.711 427.641 395.339C418.811 387.997 407.168 384.714 395.699 384.111C384.23 383.495 372.788 385.317 361.453 387.152C369.237 369.828 377.196 351.552 375.669 332.62C374.999 324.326 370.953 314.773 362.74 313.474C358.694 312.844 354.674 314.425 350.963 316.154C332.245 324.836 315.524 337.779 302.407 353.71C302.956 333.465 303.238 312.095 293.35 294.422C291.581 291.233 289.277 288.058 285.86 286.758C280.929 284.882 275.463 287.562 271.256 290.751C254.562 303.413 246.188 324.287 241.927 344.814C231.088 331.965 218.547 320.563 204.76 310.983C196.48 305.222 185.359 300.077 176.811 305.436C170.594 309.335 168.477 317.334 167.633 324.623C165.409 343.742 168.852 364.443 181.5 378.954C164.591 376.77 146.878 374.666 130.894 380.615C115.029 386.496 101.765 403.07 105.476 419.51Z" fill="#15A135"/>
<path d="M138.959 394.49C145.214 390.803 153.296 391.066 160.307 391.187C176.818 391.472 193.141 394.721 208.588 400.498C200.419 390.72 193.941 379.624 189.662 367.597C186.839 359.664 181.487 345.431 189.607 338.747C198.689 331.27 211.939 342.786 218.834 348.164C229.365 356.378 238.844 365.839 247.194 376.253C250.429 363.104 253.1 349.586 257.239 336.71C259.823 328.674 266.515 318.923 276.382 321.225C286.111 323.495 288.088 336.464 289.529 344.56C291.769 357.145 292.084 369.978 290.691 382.667C301.288 366.651 316.663 352.961 334.517 345.72C341.106 343.048 350.534 341.226 355.785 347.432C361.661 354.376 357.244 364.83 354.044 371.899C349.316 382.344 342.915 391.881 335.223 400.349C343.198 398.135 351.346 396.654 359.611 396.04C367.682 395.44 376.437 395.084 384.387 396.851C389.747 398.042 395.653 401.744 395.821 407.876C395.957 412.831 391.286 416.701 386.515 415.3C385.52 415.008 386.065 413.489 387.06 413.781C392.489 415.375 395.43 409.168 393.45 404.908C391.978 401.741 388.91 399.859 385.698 398.839C380.391 397.153 374.155 397.283 368.644 397.294C356.504 397.319 344.483 399.214 332.863 402.695C332.009 402.951 331.691 401.806 332.182 401.292C340.891 392.179 348.016 381.664 353.078 370.109C355.348 364.928 357.923 358.852 356.721 353.084C355.243 345.988 348.269 344.111 341.955 345.198C331.225 347.046 320.699 354.284 312.417 361.008C303.585 368.178 296.108 376.812 290.152 386.495C289.739 387.166 288.578 386.763 288.684 385.976C290.249 374.348 290.385 362.59 288.876 350.946C287.787 342.542 286.624 326.412 276.977 323.07C270.871 320.955 264.77 325.373 261.733 330.371C259.034 334.813 257.913 340.051 256.665 345.032C253.889 356.118 251.119 367.205 248.347 378.292C248.2 378.88 247.329 378.993 246.976 378.546C239.612 369.194 231.357 360.586 222.212 352.958C217.98 349.428 213.58 346.052 208.994 342.992C204.082 339.716 196.663 335.674 191.07 339.711C181.963 346.284 189.847 364.215 193.076 371.997C197.608 382.921 203.97 392.941 211.793 401.8C212.317 402.393 211.663 403.385 210.909 403.085C197.536 397.771 183.485 394.388 169.132 393.234C162.195 392.676 154.87 392.267 147.96 393.276C140.575 394.355 132.017 399.157 133.67 407.952C133.862 408.973 132.279 409.283 132.087 408.262C131.027 402.618 134.113 397.346 138.959 394.49Z" fill="white"/>
<path d="M219.801 369.049C223.442 369.511 226.899 372.898 229.647 375.098C233.201 377.944 236.541 381.061 239.627 384.409C245.54 390.824 250.419 398.09 254.263 405.906C255.928 398.274 258.052 390.761 260.782 383.435C262.518 378.777 264.782 369.246 270.581 367.817C277.194 366.188 278.463 374.698 278.922 379.137C279.911 388.712 280.882 398.289 281.86 407.865C288.616 402.319 295.604 397.068 302.865 392.198C306.316 389.883 309.803 387.599 313.384 385.49C316.035 383.929 319.069 382.453 322.218 383.353C327.547 384.877 327.003 390.912 325.198 394.983C322.075 402.026 316.735 408.02 310.575 412.551C309.743 413.163 308.686 411.944 309.524 411.328C314.399 407.742 318.551 403.369 321.687 398.178C323.194 395.683 325.353 392.068 324.883 388.994C323.817 382.031 317.083 385.152 313.58 387.246C302.377 393.944 291.779 401.709 281.739 410.037C281.307 410.395 280.486 410.208 280.422 409.581C279.719 402.708 279.016 395.836 278.313 388.963C277.935 385.263 277.589 381.557 277.178 377.861C276.698 373.549 274.135 365.733 268.523 370.996C266.32 373.062 265.284 376.474 264.166 379.206C262.965 382.142 261.85 385.113 260.824 388.115C258.556 394.749 256.75 401.519 255.346 408.386C255.199 409.107 254.187 409.479 253.817 408.679C247.667 395.384 238.423 383.683 226.708 374.851C225.49 373.933 223.99 372.442 222.551 371.917C221.424 371 220.187 371.335 218.84 372.921C216.224 372.821 215.187 373.697 215.729 375.55C215.659 376.903 216.187 378.217 216.599 379.474C217.825 383.208 219.341 386.859 220.994 390.423C224.407 397.78 228.611 404.707 233.465 411.2C234.084 412.028 232.865 413.085 232.242 412.251C226.046 403.963 220.891 394.967 217.051 385.349C215.459 381.368 210.467 367.864 219.801 369.049Z" fill="white"/>
<path d="M1.82121 401.114C1.82121 408.738 8.07823 414.767 14.1212 419.416V419.443H225.789C230.787 420.22 250.589 412.087 249.491 406.607C248.419 401.261 242.845 398.246 237.821 396.129C228.188 392.096 217.335 388.666 207.5 392.163C213.77 381.873 218.46 370.632 221.34 358.935C223.283 350.99 223.913 341.343 217.789 335.917C211.09 329.982 200.465 332.809 192.734 337.337C181.828 343.715 172.663 352.745 164.905 362.714C163.632 345.899 162.198 328.535 154.267 313.662C152.177 309.75 149.591 305.998 146 303.426C142.396 300.867 137.626 299.634 133.432 301.068C130.123 302.194 127.523 304.833 125.42 307.62C114.286 322.372 113.804 342.416 115.157 360.839C103.996 350.321 91.4282 341.304 77.8962 334.082C72.9392 331.443 67.7402 329.004 62.1662 328.307C58.1732 327.798 53.8462 328.28 50.6032 330.692C46.2622 333.908 44.8012 340.004 45.8202 345.31C46.8522 350.629 49.9472 355.292 53.3102 359.539C59.5402 367.377 66.9362 374.291 75.1762 379.985C55.6812 377.533 35.0752 375.229 17.0542 383.053C9.39122 386.389 1.82121 392.767 1.82121 401.114Z" fill="#385723"/>
<path d="M23.4847 393.946C26.5747 390.359 31.5697 389.809 35.9857 389.416C42.1697 388.866 48.3837 388.625 54.5917 388.68C66.9337 388.79 79.1977 390.159 91.2877 392.591C87.3987 387.877 83.5107 383.163 79.6217 378.449C75.9587 374.008 71.6587 369.674 68.6167 364.771C64.9177 358.809 66.7257 349.656 75.3767 351.342C79.8867 352.221 83.9447 355.271 87.7297 357.706C92.6247 360.854 97.3887 364.206 102.004 367.753C110.51 374.29 118.452 381.509 125.874 389.249C124.962 377.826 125.336 366.352 127.194 355.029C128.167 349.095 129.068 334.139 137.59 333.843C145.72 333.56 148.795 346.899 150.658 352.534C154.377 363.785 156.658 375.424 157.622 387.224C165.905 379.052 174.099 370.772 182.514 362.738C186.945 358.508 195.35 353.396 200.225 360.113C204.629 366.181 199.907 375.7 197.024 381.317C193.254 388.663 188.09 395.136 181.919 400.577C190.354 399.894 198.823 400.204 207.17 401.715C211.98 402.586 221.249 403.55 222.89 409.379C224.302 414.395 218.837 416.464 214.887 416.615C210.8 416.77 206.6 415.933 202.547 415.486C197.424 414.922 192.302 414.357 187.179 413.793C186.15 413.68 186.266 412.071 187.3 412.185L206.51 414.302C209.52 414.634 212.669 415.253 215.711 414.961C219.716 414.576 224.254 410.868 219.179 407.123C214.385 403.585 206.668 403.079 200.955 402.423C193.867 401.609 186.747 401.643 179.654 402.388C178.902 402.467 178.304 401.534 178.973 400.985C184.679 396.304 189.584 390.781 193.419 384.467C196.705 379.057 202.449 369.188 199.664 362.593C197.06 356.426 190.111 358.5 186.02 361.745C182.741 364.346 179.887 367.573 176.908 370.504C170.436 376.873 163.965 383.242 157.493 389.611C157.09 390.007 156.218 389.753 156.176 389.155C155.507 379.77 154.025 370.474 151.614 361.376C150.301 356.422 148.726 351.54 146.893 346.754C145.47 343.038 143.612 337.115 139.364 335.725C130.243 332.74 128.681 355.296 128.04 360.408C126.756 370.649 126.662 380.974 127.64 391.245C127.715 392.033 126.818 392.544 126.237 391.926C113.676 378.558 99.4597 366.83 83.8577 357.171C79.9757 354.768 71.3717 349.068 68.5277 355.979C66.4617 360.999 71.3977 365.946 74.2877 369.45C80.8437 377.397 87.3987 385.345 93.9547 393.292C94.5127 393.968 93.8167 394.736 93.0707 394.577C73.6537 390.442 52.0657 388.233 32.3327 391.448C26.6667 392.371 19.5017 397.603 25.0057 403.504C27.9847 406.698 33.3437 407.948 37.3917 409.076C47.2537 411.824 57.5177 412.565 67.6877 411.506C68.7137 411.399 69.0307 412.981 67.9987 413.089C56.3357 414.305 44.5577 413.212 33.3967 409.553C27.0277 407.464 16.7667 401.743 23.4847 393.946Z" fill="#00B7B7"/>
<path d="M156.508 409.04C159.793 404.786 163.078 400.533 166.362 396.279C166.994 395.461 168.326 396.371 167.689 397.195C164.404 401.449 161.12 405.702 157.835 409.956C157.204 410.775 155.871 409.865 156.508 409.04Z" fill="#00B7B7"/>
<path d="M142.399 388.528C142.433 387.49 144.041 387.613 144.007 388.649C143.847 393.579 143.687 398.509 143.527 403.44C143.493 404.478 141.885 404.355 141.919 403.319C142.079 398.388 142.239 393.458 142.399 388.528Z" fill="#00B7B7"/>
<path d="M107.831 392.729C110.246 396.113 112.662 399.496 115.077 402.879C115.676 403.718 114.458 404.776 113.854 403.93C111.439 400.547 109.023 397.163 106.608 393.78C106.009 392.942 107.227 391.883 107.831 392.729Z" fill="#00B7B7"/>
<path d="M226.223 328.171H287.447H298.617H358.77L297.846 221.604H124.851L173.942 328.171H215.054H226.223ZM181.523 322.527L137.637 227.248H291.506L345.983 322.527H181.523Z" fill="#415AD4"/>
<path d="M137.636 227.248L181.522 322.527H345.982L291.505 227.248H137.636ZM158.626 238.985C157.63 236.811 159.215 234.337 161.603 234.337H190.71C191.877 234.337 192.97 234.969 193.548 235.986L201.997 250.754C203.25 252.939 201.665 255.659 199.148 255.659H168.402C167.128 255.659 165.96 254.92 165.436 253.753L158.626 238.985ZM172.837 268.318C171.83 266.144 173.426 263.67 175.814 263.67H204.911C206.089 263.67 207.171 264.302 207.76 265.319L216.209 280.098C217.451 282.283 215.877 285.003 213.36 285.003H182.614C181.34 285.003 180.172 284.253 179.637 283.097L172.837 268.318ZM188.183 298.764C187.187 296.59 188.772 294.116 191.16 294.116H220.267C221.445 294.116 222.527 294.748 223.116 295.765L231.555 310.533C232.808 312.728 231.234 315.438 228.717 315.438H197.971C196.686 315.438 195.529 314.699 194.994 313.532L188.183 298.764ZM207.91 238.985C206.903 236.811 208.488 234.337 210.887 234.337H239.984C241.162 234.337 242.244 234.969 242.833 235.986L251.282 250.754C252.524 252.939 250.95 255.659 248.433 255.659H217.687C216.413 255.659 215.245 254.92 214.71 253.753L207.91 238.985ZM222.121 268.318C221.114 266.144 222.699 263.67 225.098 263.67H254.195C255.373 263.67 256.455 264.302 257.044 265.319L265.483 280.098C266.736 282.283 265.162 285.003 262.645 285.003H231.899C230.614 285.003 229.457 284.253 228.922 283.097L222.121 268.318ZM237.467 298.764C236.471 296.59 238.056 294.116 240.444 294.116H269.551C270.718 294.116 271.811 294.748 272.389 295.765L280.839 310.533C282.092 312.728 280.507 315.438 277.99 315.438H247.255C245.97 315.438 244.813 314.699 244.278 313.532L237.467 298.764ZM254.805 239.542C253.809 237.368 255.394 234.884 257.782 234.884H286.889C288.056 234.884 289.149 235.516 289.727 236.544L298.176 251.312C299.429 253.497 297.844 256.217 295.327 256.217H264.592C263.307 256.217 262.15 255.467 261.615 254.311L254.805 239.542ZM269.016 268.874C268.009 266.7 269.605 264.226 271.993 264.226H301.09C302.268 264.226 303.36 264.858 303.939 265.875L312.389 280.643C313.631 282.828 312.057 285.548 309.54 285.548H278.794C277.52 285.548 276.352 284.809 275.817 283.642L269.016 268.874ZM284.373 299.32C283.366 297.146 284.951 294.672 287.339 294.672H316.446C317.624 294.672 318.706 295.304 319.295 296.321L327.734 311.089C328.987 313.274 327.413 315.994 324.896 315.994H294.15C292.865 315.994 291.708 315.255 291.173 314.088L284.373 299.32Z" fill="#CAD5FF"/>
<path d="M287.446 409.892H226.222H215.053H150.273V420.291H345.982V409.892H298.616H287.446Z" fill="#5770EA"/>
<path d="M161.604 234.338C159.216 234.338 157.631 236.812 158.627 238.986L165.438 253.754C165.963 254.921 167.13 255.66 168.404 255.66H199.15C201.667 255.66 203.252 252.94 201.999 250.755L193.55 235.987C192.972 234.97 191.879 234.338 190.712 234.338H161.604Z" fill="#425BD5"/>
<path d="M175.814 263.67C173.426 263.67 171.83 266.144 172.837 268.318L179.637 283.097C180.172 284.254 181.34 285.003 182.614 285.003H213.36C215.877 285.003 217.451 282.283 216.209 280.098L207.76 265.319C207.171 264.302 206.089 263.67 204.911 263.67H175.814Z" fill="#425BD5"/>
<path d="M191.161 294.116C188.773 294.116 187.188 296.59 188.184 298.764L194.995 313.532C195.53 314.699 196.687 315.438 197.972 315.438H228.718C231.235 315.438 232.809 312.729 231.556 310.533L223.117 295.765C222.528 294.748 221.446 294.116 220.268 294.116H191.161Z" fill="#425BD5"/>
<path d="M210.888 234.338C208.489 234.338 206.904 236.812 207.911 238.986L214.711 253.754C215.246 254.921 216.414 255.66 217.688 255.66H248.434C250.951 255.66 252.525 252.94 251.283 250.755L242.834 235.987C242.245 234.97 241.163 234.338 239.985 234.338H210.888Z" fill="#425BD5"/>
<path d="M215.053 328.171H226.223V409.892H215.053V328.171Z" fill="#899FEF"/>
<path d="M225.098 263.67C222.699 263.67 221.114 266.144 222.121 268.318L228.921 283.097C229.456 284.254 230.613 285.003 231.898 285.003H262.644C265.161 285.003 266.735 282.283 265.482 280.098L257.043 265.319C256.454 264.302 255.372 263.67 254.194 263.67H225.098Z" fill="#425BD5"/>
<path d="M240.444 294.116C238.056 294.116 236.471 296.59 237.467 298.764L244.278 313.532C244.813 314.699 245.97 315.438 247.255 315.438H277.99C280.507 315.438 282.092 312.729 280.839 310.533L272.389 295.765C271.811 294.748 270.718 294.116 269.551 294.116H240.444Z" fill="#425BD5"/>
<path d="M257.782 234.884C255.394 234.884 253.809 237.369 254.805 239.542L261.616 254.31C262.151 255.467 263.308 256.216 264.593 256.216H295.328C297.845 256.216 299.43 253.496 298.177 251.311L289.728 236.543C289.15 235.515 288.057 234.883 286.89 234.883L257.782 234.884Z" fill="#425BD5"/>
<path d="M271.994 264.227C269.606 264.227 268.01 266.701 269.017 268.875L275.817 283.643C276.352 284.81 277.52 285.549 278.794 285.549H309.54C312.057 285.549 313.631 282.829 312.389 280.644L303.939 265.876C303.361 264.859 302.268 264.227 301.09 264.227H271.994Z" fill="#425BD5"/>
<path d="M287.339 294.673C284.951 294.673 283.366 297.147 284.373 299.321L291.173 314.089C291.708 315.256 292.865 315.995 294.15 315.995H324.896C327.413 315.995 328.987 313.275 327.734 311.09L319.295 296.322C318.706 295.305 317.624 294.673 316.446 294.673H287.339Z" fill="#425BD5"/>
<path d="M287.447 328.171H298.617V409.892H287.447V328.171Z" fill="#899FEF"/>
<path d="M290.535 246.448C291.629 248.243 292.723 250.038 293.817 251.833C294.176 252.422 293.248 252.957 292.89 252.368C291.796 250.573 290.702 248.778 289.608 246.983C289.249 246.394 290.177 245.859 290.535 246.448Z" fill="#3E56AF"/>
<path d="M286.663 239.915C287.392 240.99 288.121 242.066 288.849 243.141C289.236 243.712 288.307 244.245 287.922 243.676C287.193 242.601 286.464 241.525 285.736 240.45C285.349 239.879 286.278 239.347 286.663 239.915Z" fill="#3E56AF"/>
<path d="M285.72 244.714C286.557 245.932 287.394 247.149 288.231 248.367C288.621 248.935 287.692 249.468 287.304 248.902C286.467 247.685 285.63 246.467 284.793 245.249C284.402 244.682 285.332 244.149 285.72 244.714Z" fill="#3E56AF"/>
<path d="M258.344 276.312C259.115 277.595 259.886 278.878 260.657 280.161C261.012 280.752 260.085 281.288 259.73 280.696C258.959 279.413 258.188 278.13 257.417 276.847C257.061 276.257 257.988 275.721 258.344 276.312Z" fill="#3E56AF"/>
<path d="M253.796 268.954C254.585 270.29 255.374 271.627 256.164 272.963C256.515 273.557 255.587 274.093 255.237 273.498C254.448 272.162 253.659 270.825 252.869 269.489C252.518 268.896 253.445 268.36 253.796 268.954Z" fill="#3E56AF"/>
<path d="M252.937 273.431C253.511 274.652 254.085 275.873 254.659 277.094C254.95 277.713 254.025 278.254 253.732 277.629C253.158 276.408 252.584 275.187 252.01 273.966C251.718 273.348 252.643 272.807 252.937 273.431Z" fill="#3E56AF"/>
<path d="M245.264 246.849C245.713 247.747 246.162 248.646 246.612 249.544C246.919 250.158 245.993 250.697 245.685 250.079C245.236 249.181 244.787 248.282 244.337 247.384C244.03 246.771 244.955 246.231 245.264 246.849Z" fill="#3E56AF"/>
<path d="M241.041 239.913C241.492 240.939 241.944 241.965 242.395 242.99C242.67 243.614 241.745 244.156 241.468 243.525C241.017 242.499 240.565 241.473 240.114 240.448C239.839 239.824 240.763 239.282 241.041 239.913Z" fill="#3E56AF"/>
<path d="M240.008 242.639C240.592 243.984 241.177 245.328 241.761 246.673C242.032 247.298 241.108 247.841 240.834 247.208C240.25 245.863 239.665 244.519 239.081 243.174C238.809 242.549 239.734 242.007 240.008 242.639Z" fill="#3E56AF"/>
<path d="M204.123 266.462C204.766 268.002 205.408 269.542 206.051 271.081C206.313 271.708 205.389 272.252 205.124 271.616C204.481 270.076 203.839 268.536 203.196 266.997C202.934 266.37 203.858 265.827 204.123 266.462Z" fill="#3E56AF"/>
<path d="M206.686 274.301C207.129 275.779 207.572 277.257 208.014 278.735C208.212 279.395 207.175 279.666 206.977 279.005C206.534 277.527 206.091 276.049 205.649 274.571C205.452 273.911 206.488 273.64 206.686 274.301Z" fill="#3E56AF"/>
<path d="M203.62 272.956C203.87 274.112 204.121 275.269 204.371 276.425C204.516 277.096 203.481 277.371 203.334 276.695C203.083 275.539 202.833 274.382 202.583 273.226C202.438 272.555 203.473 272.279 203.62 272.956Z" fill="#3E56AF"/>
<path d="M200.076 273.165C200.269 274.063 200.461 274.962 200.654 275.86C200.798 276.531 199.762 276.806 199.617 276.13C199.424 275.232 199.232 274.333 199.039 273.435C198.896 272.764 199.931 272.489 200.076 273.165Z" fill="#3E56AF"/>
<path d="M178.688 246.797C179.203 248.08 179.718 249.363 180.233 250.646C180.489 251.283 179.45 251.549 179.196 250.916C178.681 249.633 178.166 248.35 177.651 247.067C177.395 246.43 178.434 246.164 178.688 246.797Z" fill="#3E56AF"/>
<path d="M175.956 247.427C176.405 248.325 176.854 249.224 177.304 250.122C177.611 250.736 176.685 251.275 176.377 250.657C175.928 249.759 175.479 248.86 175.029 247.962C174.722 247.349 175.647 246.809 175.956 247.427Z" fill="#3E56AF"/>
<path d="M172.683 248.967C173.132 249.737 173.581 250.507 174.031 251.277C174.378 251.872 173.451 252.409 173.104 251.812C172.655 251.042 172.206 250.272 171.756 249.502C171.408 248.907 172.335 248.371 172.683 248.967Z" fill="#3E56AF"/>
<path d="M172.298 243.961C172.619 244.603 172.94 245.245 173.261 245.886C173.568 246.5 172.642 247.039 172.334 246.421C172.013 245.779 171.692 245.137 171.371 244.496C171.064 243.883 171.99 243.344 172.298 243.961Z" fill="#3E56AF"/>
<path d="M197.541 307.672C198.296 308.837 199.052 310.001 199.807 311.166C200.182 311.745 199.254 312.278 198.88 311.701C198.125 310.536 197.369 309.371 196.614 308.207C196.238 307.629 197.166 307.095 197.541 307.672Z" fill="#3E56AF"/>
<path d="M195.501 302.8C195.692 303.442 195.884 304.084 196.075 304.726C196.272 305.386 195.235 305.657 195.038 304.996C194.847 304.354 194.655 303.712 194.464 303.07C194.268 302.41 195.304 302.139 195.501 302.8Z" fill="#3E56AF"/>
<path d="M198.695 303.632C199.208 304.595 199.721 305.557 200.235 306.52C200.558 307.127 199.633 307.665 199.308 307.055C198.795 306.092 198.282 305.13 197.768 304.167C197.444 303.561 198.37 303.023 198.695 303.632Z" fill="#3E56AF"/>
<path d="M248.4 307.82C248.721 308.783 249.042 309.745 249.363 310.708C249.581 311.361 248.544 311.63 248.326 310.978C248.005 310.015 247.684 309.053 247.363 308.09C247.145 307.436 248.182 307.167 248.4 307.82Z" fill="#3E56AF"/>
<path d="M245.705 300.696L246.86 304.932C247.041 305.596 246.005 305.868 245.823 305.202C245.438 303.79 245.053 302.378 244.668 300.967C244.487 300.302 245.523 300.03 245.705 300.696Z" fill="#3E56AF"/>
<path d="M249.533 303.399L250.483 306.291C250.698 306.945 249.661 307.215 249.446 306.561C249.129 305.597 248.813 304.633 248.496 303.669C248.282 303.014 249.318 302.745 249.533 303.399Z" fill="#3E56AF"/>
<path d="M275.71 307.672C276.236 308.627 276.763 309.583 277.289 310.538C277.621 311.141 276.695 311.678 276.362 311.073C275.836 310.118 275.309 309.162 274.783 308.207C274.45 307.605 275.376 307.067 275.71 307.672Z" fill="#3E56AF"/>
<path d="M272.708 300.487C273.164 301.897 273.621 303.306 274.077 304.716C274.289 305.371 273.252 305.641 273.04 304.986C272.584 303.576 272.127 302.167 271.671 300.757C271.459 300.102 272.496 299.832 272.708 300.487Z" fill="#3E56AF"/>
<path d="M270.887 305.174C271.612 306.382 272.338 307.589 273.063 308.797C273.418 309.388 272.491 309.924 272.136 309.332C271.411 308.124 270.685 306.917 269.96 305.709C269.604 305.118 270.532 304.582 270.887 305.174Z" fill="#3E56AF"/>
<path d="M267.601 304.797C268.179 306.016 268.756 307.236 269.334 308.455C269.627 309.073 268.702 309.614 268.407 308.99C267.829 307.771 267.252 306.551 266.674 305.332C266.38 304.714 267.305 304.174 267.601 304.797Z" fill="#3E56AF"/>
<path d="M290.594 278.158C291.173 279.569 291.753 280.98 292.332 282.391C292.592 283.026 291.554 283.291 291.295 282.661C290.716 281.25 290.136 279.839 289.557 278.428C289.296 277.793 290.335 277.528 290.594 278.158Z" fill="#3E56AF"/>
<path d="M288.654 278.744C289.041 280.091 289.428 281.438 289.815 282.785C290.005 283.447 288.969 283.718 288.778 283.055C288.391 281.708 288.004 280.361 287.617 279.014C287.428 278.351 288.464 278.08 288.654 278.744Z" fill="#3E56AF"/>
<path d="M284.637 279.695C285.081 280.852 285.525 282.009 285.968 283.167C286.214 283.809 285.176 284.075 284.931 283.437C284.487 282.28 284.043 281.123 283.6 279.965C283.354 279.323 284.392 279.056 284.637 279.695Z" fill="#3E56AF"/>
<path d="M285.364 274.513C285.621 275.668 285.877 276.823 286.134 277.978C286.283 278.648 285.247 278.923 285.097 278.248C284.84 277.093 284.584 275.938 284.327 274.783C284.179 274.112 285.214 273.837 285.364 274.513Z" fill="#3E56AF"/>
<path d="M288.092 273.539C288.476 274.63 288.859 275.722 289.243 276.813C289.471 277.462 288.434 277.73 288.206 277.083C287.822 275.992 287.439 274.9 287.055 273.809C286.827 273.159 287.864 272.891 288.092 273.539Z" fill="#3E56AF"/>
<path d="M322.215 308.488C322.865 309.703 323.515 310.918 324.165 312.133C324.489 312.739 323.563 313.278 323.238 312.668C322.588 311.453 321.938 310.238 321.288 309.023C320.964 308.417 321.889 307.879 322.215 308.488Z" fill="#3E56AF"/>
<path d="M319.007 302.293C319.52 303.513 320.033 304.732 320.545 305.952C320.809 306.579 319.884 307.122 319.618 306.487C319.105 305.267 318.592 304.048 318.08 302.828C317.817 302.202 318.741 301.658 319.007 302.293Z" fill="#3E56AF"/>
<path d="M317.917 305.888L319.412 309.564C319.67 310.2 318.632 310.465 318.375 309.834L316.88 306.157C316.621 305.522 317.66 305.256 317.917 305.888Z" fill="#3E56AF"/>
<path d="M314.243 306.857C314.692 308.141 315.141 309.424 315.591 310.707C315.818 311.357 314.781 311.625 314.554 310.977C314.105 309.693 313.656 308.41 313.206 307.127C312.979 306.477 314.016 306.209 314.243 306.857Z" fill="#3E56AF"/>
<path d="M131.376 191.249V193.551H149.537V191.249H146.006H131.376Z" fill="#222222"/>
<path d="M146.006 189.36V191.247H149.537H151.77V186.232H149.307C149.224 187.966 147.772 189.36 146.006 189.36Z" fill="black"/>
<path d="M129.137 186.232V191.247H131.376H146.006V189.36C144.247 189.36 142.795 187.965 142.712 186.232H137.69C137.306 187.62 136.027 188.65 134.511 188.65C133.001 188.65 131.722 187.62 131.332 186.232H129.137Z" fill="black"/>
<path d="M131.203 174.226V185.344C131.203 185.651 131.248 185.952 131.331 186.233H137.69C137.773 185.952 137.818 185.651 137.818 185.344V176.689L131.203 174.226Z" fill="#FFB800"/>
<path d="M142.699 178.512V186.054C142.699 186.112 142.699 186.176 142.712 186.233H149.307C149.32 186.175 149.32 186.111 149.32 186.054V180.975L142.699 178.512Z" fill="#FFD360"/>
<path d="M124.02 137.73L137.461 150.39L153.338 156.307L138.676 143.199V143.193L124.02 137.73Z" fill="#FFD360"/>
<path d="M124.526 155.086L137.064 166.889L152.91 172.793L139.233 160.562L124.526 155.086Z" fill="#FFD360"/>
<path d="M152.908 172.793L137.063 166.889L127.128 163.185C124.831 162.328 122.253 163.511 121.396 165.808C121.204 166.32 121.115 166.838 121.115 167.356C121.115 169.166 122.228 170.881 124.019 171.546L131.203 174.226V172.448C131.203 171.54 131.574 170.708 132.175 170.107C132.776 169.506 133.602 169.135 134.51 169.135C136.333 169.135 137.817 170.626 137.817 172.449V176.69L142.698 178.513V177.336C142.698 176.428 143.069 175.596 143.67 174.995C144.271 174.394 145.097 174.023 146.005 174.023C147.828 174.023 149.319 175.514 149.319 177.337V180.977L150.221 181.316C152.524 182.167 155.102 180.99 155.959 178.693C156.151 178.181 156.24 177.663 156.24 177.145C156.24 175.335 155.127 173.62 153.336 172.955L152.908 172.793Z" fill="#FFB800"/>
<path d="M142.699 177.335V178.512L149.32 180.975V177.335C149.32 175.512 147.829 174.021 146.006 174.021C145.098 174.021 144.272 174.392 143.671 174.993C143.07 175.594 142.699 176.427 142.699 177.335Z" fill="#FFB800"/>
<path d="M131.203 172.448V174.226L137.818 176.689V172.448C137.818 170.625 136.334 169.134 134.511 169.134C133.603 169.134 132.777 169.505 132.176 170.106C131.574 170.708 131.203 171.539 131.203 172.448Z" fill="#FFB800"/>
<path d="M139.231 160.562L150.221 164.662C152.524 165.519 155.102 164.342 155.959 162.039C156.151 161.534 156.24 161.009 156.24 160.497C156.24 158.687 155.127 156.972 153.336 156.307L137.459 150.39L127.128 146.539C124.831 145.682 122.253 146.859 121.396 149.162C121.204 149.674 121.115 150.192 121.115 150.71C121.115 152.514 122.228 154.228 124.019 154.894L124.524 155.086L139.231 160.562Z" fill="#FFB800"/>
<path d="M121.397 131.999C121.205 132.511 121.116 133.029 121.116 133.547C121.116 135.357 122.229 137.065 124.02 137.731L138.676 143.194L150.223 147.499C152.526 148.356 155.104 147.179 155.961 144.876C156.153 144.371 156.242 143.846 156.242 143.334C156.242 141.524 155.129 139.809 153.338 139.144L127.129 129.376C124.832 128.519 122.254 129.696 121.397 131.999Z" fill="#FFB800"/>
<path d="M131.376 198.567V201.548H140.453H149.537V198.567H131.376Z" fill="#222222"/>
<path d="M140.453 201.548H131.376C131.376 201.548 132.259 206.973 140.453 206.973C148.654 206.973 149.537 201.548 149.537 201.548H140.453Z" fill="black"/>
<path d="M129.137 193.551V198.567H131.376H149.537H151.77V193.551H149.537H131.376H129.137Z" fill="black"/>
<path d="M137.689 186.232H131.33C131.72 187.62 133 188.65 134.509 188.65C136.026 188.65 137.305 187.62 137.689 186.232Z" fill="black"/>
<path d="M149.307 186.232H142.712C142.795 187.966 144.247 189.36 146.006 189.36C147.772 189.36 149.224 187.966 149.307 186.232Z" fill="black"/>
<path d="M122.452 260.714C123.804 261.852 125.469 262.536 127.159 263.072C130.151 264.02 133.292 264.548 136.433 264.614C136.639 264.622 136.845 264.622 137.051 264.622L146.943 264.531L134.075 278.759C133.951 279.888 133.861 281.034 133.795 282.172C133.696 283.746 133.655 285.436 134.479 286.78C135.757 288.857 138.617 289.311 141.024 288.915C144.725 288.313 148.014 286.261 151.056 284.076C153.381 282.411 155.672 280.597 157.197 278.19C157.197 278.19 157.205 278.19 157.213 278.198C156.356 271.323 155.523 264.415 155.474 257.49C155.466 256.047 155.49 254.613 155.565 253.17L156.002 253.187C159.712 251.926 161.929 247.771 161.748 243.847C161.699 242.775 161.484 241.687 160.915 240.772C160.346 239.865 159.373 239.156 158.302 239.107C156.686 239.041 155.392 240.385 154.436 241.695C152.548 244.259 151.056 247.103 150.009 250.103C148.641 248.166 148.055 245.759 147.94 243.393C147.825 241.019 148.154 238.653 148.484 236.304L148.476 236.222C144.123 236.403 139.837 234.994 135.748 233.452C130.827 231.597 125.724 229.314 122.633 225.118L122.402 225.283C121.273 228.852 120.325 232.488 119.64 236.173C118.857 240.328 118.412 244.532 118.403 248.753C118.403 250.929 118.527 253.122 119.112 255.224C119.698 257.318 120.787 259.321 122.452 260.714Z" fill="#FCD272"/>
<path d="M135.07 273.327C134.567 275.099 134.27 276.921 134.073 278.759L146.941 264.531L137.049 264.622C136.843 264.622 136.637 264.622 136.431 264.614C135.969 267.516 135.491 270.417 135.03 273.319L135.07 273.327Z" fill="#E0A02F"/>
<path d="M168.796 232.456C168.796 232.159 168.788 231.862 168.771 231.566C168.482 225.886 166.183 220.083 161.632 216.695C160.874 216.134 160.074 215.64 159.233 215.211C157.889 214.519 156.463 213.974 155.021 213.513C149.44 211.724 143.505 211.081 137.668 211.617C134.552 211.897 131.403 212.54 128.691 214.107C125.064 216.193 122.475 219.803 121.025 223.727C119.566 227.651 119.162 231.896 119.145 236.084L119.64 236.175C120.324 232.49 121.272 228.855 122.402 225.285L122.633 225.12C125.724 229.316 130.827 231.599 135.748 233.454C139.837 234.996 144.123 236.405 148.476 236.224L148.484 236.306C148.154 238.655 147.825 241.021 147.94 243.395C148.055 245.761 148.641 248.168 150.009 250.105C151.056 247.104 152.548 244.26 154.436 241.697C155.392 240.386 156.686 239.043 158.302 239.109C159.374 239.158 160.346 239.867 160.915 240.774C161.484 241.689 161.698 242.777 161.748 243.849C161.929 247.773 159.712 251.928 156.002 253.189L155.565 253.172C155.491 254.615 155.466 256.049 155.474 257.492C157.881 258.151 160.535 256.956 162.234 255.101C163.982 253.189 164.913 250.682 165.737 248.234C166.759 245.2 167.682 242.101 168.243 238.952C168.622 236.8 168.837 234.632 168.796 232.456Z" fill="#101010"/>
<path d="M159.299 215.079L159.233 215.211C160.074 215.64 160.873 216.134 161.632 216.695C166.182 220.083 168.482 225.886 168.771 231.566C168.787 231.863 168.796 232.16 168.796 232.456C172.019 231.797 175.58 231.228 178.391 232.918C181.705 234.905 182.686 239.216 185.175 242.175C187.178 244.557 190.245 246.016 193.361 246.074C196.172 246.115 198.909 245.085 201.72 245.085C205.57 245.085 209.494 247.352 210.87 250.946C212.255 254.548 210.507 259.214 206.88 260.525L207.02 261.061C209.51 260.41 211.752 258.786 213.359 256.741C215.37 254.161 216.475 250.971 217.06 247.747C217.464 245.505 217.637 243.155 217.027 240.954C216.277 238.242 214.373 235.942 212.048 234.351C209.723 232.76 207.011 231.837 204.258 231.251C200.062 230.361 195.487 230.13 192.066 227.541C188.29 224.689 186.939 219.751 184.869 215.497C184.135 213.964 183.253 212.463 181.967 211.359C180.78 210.337 179.304 209.702 177.788 209.306C171.26 207.602 164.105 210.322 159.299 215.079Z" fill="#101010"/>
<path d="M168.243 238.952L168.309 238.968C169.941 238.762 171.483 240.007 172.109 241.523C172.744 243.04 172.645 244.754 172.422 246.378C172.199 248.002 171.853 249.634 172.018 251.266C172.422 255.338 176.437 258.702 180.517 258.38C184.111 258.091 187.351 255.388 190.929 255.8C193.344 256.08 195.339 257.713 197.4 258.99C199.7 260.416 202.338 261.48 205.042 261.364C205.718 261.331 206.377 261.232 207.02 261.059L206.88 260.523C210.507 259.212 212.255 254.546 210.87 250.944C209.493 247.35 205.569 245.083 201.72 245.083C198.909 245.083 196.172 246.113 193.361 246.072C190.245 246.014 187.178 244.555 185.175 242.173C182.685 239.214 181.705 234.902 178.391 232.916C175.58 231.226 172.019 231.795 168.796 232.454C168.837 234.632 168.622 236.8 168.243 238.952Z" fill="#222222"/>
<path d="M134.72 237.409C134.999 236.889 135.762 236.759 136.296 236.687C137.205 236.564 138.112 236.718 138.922 237.09C139.062 237.014 139.23 236.988 139.41 237.069C140.199 237.421 142.246 239.138 140.728 239.936C140.08 240.277 139.177 239.781 138.554 239.586C137.484 239.251 136.222 239.029 135.216 238.529C134.772 238.308 134.453 237.907 134.72 237.409Z" fill="#482477"/>
<path d="M119.166 237.135C119.347 236.275 120.547 235.843 121.299 235.68C122.151 235.495 122.985 235.567 123.784 235.834C124.707 235.963 125.425 236.414 125.902 237.261C126.107 237.625 125.84 238.054 125.434 238.067C123.829 238.12 122.224 238.192 120.618 238.225C119.895 238.239 118.957 238.123 119.166 237.135Z" fill="#482477"/>
<path d="M136.851 240.775C137.311 240.579 137.753 240.733 138.048 241.055C138.182 241.109 138.299 241.213 138.358 241.385C138.632 242.187 138.65 243.139 138.256 243.91C137.948 244.512 137.324 244.925 136.651 244.645C135.24 244.059 135.561 241.325 136.851 240.775Z" fill="#482477"/>
<path d="M122.421 239.765C122.795 239.523 123.193 239.537 123.525 239.711C123.792 239.624 124.128 239.709 124.238 240.054C124.48 240.808 124.499 241.616 124.284 242.376C124.25 242.54 124.214 242.703 124.157 242.839C124.113 242.943 124.052 243.03 123.985 243.109C123.711 243.531 123.281 243.845 122.739 243.685C121.257 243.249 121.26 240.516 122.421 239.765Z" fill="#482477"/>
<path d="M129.77 259.297C132.894 259.186 135.52 253.658 134.82 253.635C131.13 253.524 127.44 253.403 123.75 253.281C123.252 253.27 126.053 259.441 129.77 259.297Z" fill="white"/>
<path d="M127.028 248.374C127.025 248.326 127.016 248.281 127.025 248.228C127.482 245.717 127.938 243.206 128.395 240.694C128.519 240.013 129.556 240.295 129.433 240.972C129.005 243.328 128.576 245.685 128.148 248.041C128.907 248.085 129.666 248.128 130.425 248.172C131.112 248.212 131.112 249.286 130.419 249.246L127.519 249.079C127.114 249.057 126.955 248.676 127.028 248.374Z" fill="#E0A02F"/>
<path d="M138.785 253.162C140.192 254.548 142.502 254.333 143.727 252.808C144.565 251.755 144.586 250.434 144.049 249.349C144.06 249.263 144.038 249.166 143.974 249.07C143.759 248.748 143.48 248.479 143.19 248.243C142.943 248.039 142.674 247.835 142.352 247.695C142.266 247.663 142.18 247.652 142.094 247.652C141.095 247.308 139.956 247.416 139.032 248.157C137.474 249.435 137.346 251.744 138.785 253.162Z" fill="#E0A02F"/>
<path d="M55.3578 302.888C55.3578 312.384 59.0258 307.661 62.9088 314.998L69.9738 306.664C69.9738 306.664 70.3608 282.601 67.9128 281.769C65.4728 280.936 64.0298 295.214 64.0298 295.214C64.0298 295.214 55.3578 293.383 55.3578 302.888Z" fill="#FCD272"/>
<path d="M76.6997 365.209L77.9367 367.682H88.6287C90.7387 366.61 92.8247 365.852 94.8277 365.53L98.3887 352.909C98.3887 352.909 81.1597 355.399 76.6997 365.209Z" fill="#FCD272"/>
<path d="M161.822 374.006C151.864 374.921 124.314 370.643 107.802 367.832C129.491 376.001 161.277 401.729 161.277 401.729H161.302L161.822 374.006Z" fill="#385723"/>
<path d="M157.213 278.199C157.205 278.191 157.197 278.191 157.197 278.191C155.672 280.598 153.38 282.412 151.056 284.077C148.014 286.262 144.725 288.314 141.024 288.916C138.617 289.312 135.756 288.858 134.479 286.781C133.655 285.437 133.696 283.747 133.795 282.173C133.861 281.035 133.952 279.89 134.075 278.76C134.075 278.76 120.473 281.093 109.988 286.797C108.034 287.86 106.526 289.6 105.71 291.669L93.0154 324.124L69.9744 306.664L62.9094 314.998L94.9844 346.661C96.8724 348.516 99.9474 348.359 101.628 346.323L107.39 334.073C108.709 335.648 109.731 336.505 109.731 336.505L105.378 352.91H98.3884L94.8274 365.531C98.2564 364.987 102.757 365.935 107.802 367.831C124.314 370.642 151.863 374.92 161.822 374.005C163.677 373.824 164.922 373.477 165.367 372.9C169.357 367.797 183.008 300.283 180.486 292.946C178.012 285.725 157.84 278.421 157.213 278.199Z" fill="#385723"/>
<path d="M105.74 351.999C119.769 351.308 133.799 350.617 147.828 349.927C147.89 349.924 147.942 349.935 147.99 349.952C149.072 333.076 150.978 316.265 153.702 299.575C153.787 299.051 154.583 299.269 154.498 299.788C151.762 316.552 149.857 333.438 148.784 350.39C148.758 350.797 148.264 350.886 148.054 350.662C147.993 350.71 147.92 350.746 147.824 350.751C133.795 351.442 119.765 352.133 105.736 352.823C105.206 352.849 105.211 352.025 105.74 351.999Z" fill="white"/>
<path d="M104.917 317.162C106.745 313.061 109.589 309.495 112.24 305.907C115.489 301.509 118.738 297.112 121.987 292.714C122.299 292.292 123.018 292.696 122.703 293.122C117.637 299.98 112.024 306.679 107.564 313.954C103.85 320.013 101.586 329.527 108.602 334.298C109.039 334.595 108.633 335.313 108.194 335.014C102.313 331.016 102.271 323.096 104.917 317.162Z" fill="white"/>
<path d="M148.167 302.364C148.225 301.842 149.05 301.84 148.991 302.368C148.794 304.146 148.597 305.925 148.4 307.703C148.342 308.225 147.517 308.227 147.576 307.699C147.773 305.921 147.97 304.143 148.167 302.364Z" fill="white"/>
<path d="M141.206 301.773C141.261 301.251 142.086 301.249 142.03 301.777L141.594 305.927C141.539 306.45 140.714 306.451 140.77 305.923C140.915 304.54 141.06 303.156 141.206 301.773Z" fill="white"/>
<path d="M135.116 300.881C135.18 300.361 136.005 300.358 135.94 300.885C135.758 302.369 135.575 303.853 135.393 305.337C135.329 305.857 134.504 305.86 134.569 305.333C134.752 303.849 134.934 302.365 135.116 300.881Z" fill="white"/>
<path d="M128.426 299.843C128.475 299.319 129.3 299.318 129.25 299.847C129.101 301.428 128.953 303.008 128.804 304.589C128.755 305.113 127.93 305.114 127.98 304.585C128.129 303.004 128.277 301.423 128.426 299.843Z" fill="white"/>
<path d="M121.628 299.551C121.666 301.083 121.704 302.614 121.742 304.146C121.755 304.676 120.931 304.673 120.918 304.142L120.804 299.547C120.79 299.016 121.614 299.02 121.628 299.551Z" fill="white"/>
<path d="M124.204 307.408C124.243 308.693 124.283 309.977 124.322 311.262C124.338 311.792 123.514 311.788 123.498 311.258C123.459 309.973 123.419 308.689 123.38 307.404C123.364 306.873 124.188 306.877 124.204 307.408Z" fill="white"/>
<path d="M133.231 309.634C133.382 310.869 133.533 312.104 133.684 313.339C133.748 313.864 132.923 313.856 132.86 313.335C132.709 312.1 132.558 310.865 132.407 309.63C132.343 309.105 133.168 309.113 133.231 309.634Z" fill="white"/>
<path d="M139.767 310.563C139.916 311.551 140.066 312.539 140.215 313.526C140.293 314.045 139.497 314.259 139.417 313.734C139.268 312.746 139.118 311.758 138.969 310.771C138.89 310.252 139.687 310.037 139.767 310.563Z" fill="white"/>
<path d="M145.824 312.441C145.824 311.911 146.649 311.913 146.648 312.445C146.647 313.334 146.647 314.223 146.646 315.113C146.646 315.643 145.821 315.641 145.822 315.109C145.823 314.219 145.823 313.33 145.824 312.441Z" fill="white"/>
<path d="M147.982 321.78C148.027 322.768 148.072 323.756 148.117 324.745C148.141 325.275 147.317 325.27 147.293 324.741C147.248 323.753 147.203 322.765 147.158 321.776C147.133 321.245 147.958 321.25 147.982 321.78Z" fill="white"/>
<path d="M141.068 320.742C141.088 320.213 141.912 320.214 141.892 320.746C141.846 321.981 141.8 323.216 141.754 324.451C141.734 324.98 140.91 324.979 140.93 324.447C140.976 323.212 141.022 321.977 141.068 320.742Z" fill="white"/>
<path d="M133.015 319.107C133.074 318.585 133.899 318.583 133.839 319.111L133.403 322.965C133.344 323.486 132.519 323.489 132.579 322.961C132.724 321.677 132.87 320.392 133.015 319.107Z" fill="white"/>
<path d="M125.976 316.729C126.026 316.205 126.851 316.204 126.8 316.733C126.672 318.069 126.543 319.404 126.415 320.74C126.365 321.264 125.54 321.265 125.591 320.736C125.719 319.4 125.848 318.064 125.976 316.729Z" fill="white"/>
<path d="M117.836 318.868C118.178 317.533 118.521 316.199 118.863 314.864C118.995 314.349 119.791 314.563 119.659 315.077C119.317 316.412 118.974 317.746 118.632 319.081C118.501 319.596 117.704 319.383 117.836 318.868Z" fill="white"/>
<path d="M111.004 316.64C111.206 315.702 111.409 314.765 111.611 313.827C111.723 313.307 112.519 313.523 112.407 314.04C112.205 314.978 112.002 315.915 111.8 316.853C111.688 317.373 110.893 317.158 111.004 316.64Z" fill="white"/>
<path d="M116.586 305.771C116.653 305.252 117.478 305.249 117.41 305.775C117.213 307.306 117.017 308.838 116.82 310.369C116.753 310.888 115.928 310.891 115.996 310.365C116.193 308.834 116.39 307.303 116.586 305.771Z" fill="white"/>
<path d="M112.752 321.969C112.827 321.444 113.622 321.663 113.548 322.182C113.4 323.219 113.252 324.257 113.103 325.294C113.028 325.819 112.233 325.6 112.307 325.081C112.456 324.044 112.604 323.006 112.752 321.969Z" fill="white"/>
<path d="M122.517 326.817C122.544 326.289 123.368 326.29 123.341 326.821C123.291 327.809 123.242 328.797 123.192 329.785C123.165 330.313 122.341 330.313 122.368 329.781C122.417 328.793 122.467 327.805 122.517 326.817Z" fill="white"/>
<path d="M132.385 328.007V331.564C132.385 332.094 131.561 332.092 131.561 331.56V328.003C131.56 327.472 132.385 327.475 132.385 328.007Z" fill="white"/>
<path d="M138.254 328.595C138.278 328.067 139.102 328.067 139.078 328.599C139.032 329.637 138.986 330.674 138.939 331.712C138.915 332.24 138.091 332.24 138.115 331.708C138.161 330.67 138.208 329.633 138.254 328.595Z" fill="white"/>
<path d="M145.47 332.189C145.548 331.664 146.343 331.883 146.266 332.402C146.12 333.39 145.974 334.379 145.827 335.367C145.749 335.892 144.954 335.673 145.031 335.154C145.178 334.166 145.324 333.178 145.47 332.189Z" fill="white"/>
<path d="M139.279 338.42C139.378 337.898 140.174 338.114 140.075 338.633C139.877 339.67 139.68 340.708 139.482 341.745C139.383 342.267 138.587 342.051 138.686 341.532C138.883 340.495 139.081 339.457 139.279 338.42Z" fill="white"/>
<path d="M131.458 337.266C131.552 336.743 132.348 336.96 132.254 337.479C132.032 338.71 131.809 339.94 131.587 341.17C131.493 341.693 130.697 341.476 130.791 340.957C131.013 339.727 131.236 338.496 131.458 337.266Z" fill="white"/>
<path d="M122.99 339.312C123.288 338.028 123.585 336.744 123.883 335.46C124.003 334.942 124.799 335.157 124.679 335.673C124.381 336.957 124.084 338.241 123.786 339.525C123.667 340.043 122.871 339.829 122.99 339.312Z" fill="white"/>
<path d="M114.595 338.287C114.936 336.952 115.276 335.617 115.617 334.282C115.748 333.767 116.545 333.981 116.413 334.495C116.072 335.83 115.731 337.165 115.391 338.5C115.26 339.015 114.464 338.802 114.595 338.287Z" fill="white"/>
<path d="M106.82 325.482C106.838 324.953 107.662 324.954 107.644 325.486C107.596 326.919 107.547 328.351 107.499 329.784C107.481 330.313 106.657 330.312 106.675 329.78C106.723 328.347 106.772 326.915 106.82 325.482Z" fill="white"/>
<path d="M113.273 344.301C113.293 343.772 114.118 343.773 114.097 344.305C114.058 345.343 114.019 346.381 113.98 347.418C113.96 347.947 113.135 347.946 113.155 347.414C113.195 346.376 113.234 345.339 113.273 344.301Z" fill="white"/>
<path d="M122.746 344.896C122.748 344.366 123.572 344.368 123.57 344.9C123.567 345.789 123.564 346.678 123.561 347.568C123.559 348.098 122.735 348.096 122.736 347.564C122.741 346.674 122.744 345.785 122.746 344.896Z" fill="white"/>
<path d="M132.322 345.195C132.355 344.668 133.179 344.668 133.146 345.199C133.097 345.989 133.048 346.78 132.999 347.57C132.966 348.097 132.142 348.097 132.175 347.566C132.224 346.775 132.273 345.985 132.322 345.195Z" fill="white"/>
<path d="M112.417 368.06C128.569 373.095 145.536 374.961 162.396 373.562C162.924 373.518 162.918 374.343 162.392 374.386C145.467 375.79 128.417 373.91 112.204 368.856C111.697 368.698 111.909 367.901 112.417 368.06Z" fill="white"/>
<path d="M176.59 306.107C176.68 305.584 177.475 305.801 177.385 306.32C177.147 307.705 176.91 309.089 176.672 310.474C176.582 310.997 175.786 310.78 175.876 310.261C176.114 308.876 176.352 307.491 176.59 306.107Z" fill="white"/>
<path d="M168.474 305.476C168.508 304.949 169.333 304.949 169.298 305.48C169.195 307.061 169.093 308.641 168.99 310.222C168.956 310.749 168.131 310.749 168.166 310.218C168.269 308.637 168.372 307.057 168.474 305.476Z" fill="white"/>
<path d="M160.473 304.926C160.56 304.402 161.356 304.62 161.269 305.139C161.071 306.325 160.874 307.51 160.676 308.696C160.589 309.22 159.793 309.002 159.88 308.483C160.078 307.297 160.275 306.112 160.473 304.926Z" fill="white"/>
<path d="M163.506 315.114V318.078C163.506 318.608 162.682 318.606 162.682 318.074V315.11C162.682 314.579 163.506 314.582 163.506 315.114Z" fill="white"/>
<path d="M171.573 316.295C171.63 315.773 172.455 315.771 172.398 316.299C172.258 317.584 172.119 318.87 171.979 320.155C171.922 320.677 171.097 320.679 171.155 320.151C171.293 318.865 171.433 317.58 171.573 316.295Z" fill="white"/>
<path d="M88.026 326.289C89.111 326.885 90.196 327.481 91.281 328.077C91.747 328.333 91.337 329.049 90.873 328.793C89.788 328.197 88.703 327.601 87.618 327.005C87.152 326.749 87.562 326.033 88.026 326.289Z" fill="white"/>
<path d="M85.5881 330.562C86.5221 331.065 87.4551 331.568 88.3891 332.071C88.8571 332.323 88.4471 333.039 87.9811 332.787C87.0471 332.284 86.1131 331.781 85.1801 331.278C84.7111 331.026 85.1221 330.311 85.5881 330.562Z" fill="white"/>
<path d="M81.9615 325.526C82.9665 326.089 83.9714 326.652 84.9754 327.215C85.4394 327.475 85.0305 328.191 84.5675 327.931C83.5625 327.368 82.5575 326.805 81.5535 326.242C81.0885 325.982 81.4985 325.267 81.9615 325.526Z" fill="white"/>
<path d="M154.12 381.549C154.466 380.018 154.811 378.486 155.157 376.955C155.274 376.436 156.07 376.651 155.953 377.168C155.607 378.699 155.262 380.231 154.916 381.762C154.799 382.281 154.003 382.066 154.12 381.549Z" fill="white"/>
<path d="M145.049 380.356C145.295 379.368 145.541 378.38 145.788 377.391C145.916 376.875 146.713 377.089 146.584 377.604C146.338 378.592 146.092 379.58 145.845 380.569C145.717 381.085 144.921 380.871 145.049 380.356Z" fill="white"/>
<path d="M134.976 375.721C135.001 375.193 135.826 375.193 135.8 375.725C135.741 376.96 135.681 378.194 135.622 379.428C135.597 379.956 134.772 379.956 134.798 379.424C134.858 378.19 134.917 376.956 134.976 375.721Z" fill="white"/>
<path d="M141.85 380.618C141.895 381.656 141.941 382.693 141.986 383.731C142.009 384.261 141.185 384.256 141.162 383.727C141.117 382.689 141.071 381.652 141.026 380.614C141.002 380.083 141.827 380.088 141.85 380.618Z" fill="white"/>
<path d="M151.476 384.322C151.511 385.36 151.546 386.398 151.582 387.436C151.6 387.966 150.776 387.962 150.758 387.432C150.723 386.394 150.688 385.356 150.652 384.318C150.634 383.787 151.458 383.791 151.476 384.322Z" fill="white"/>
<path d="M157.049 388.466C157.068 387.937 157.892 387.938 157.873 388.47C157.824 389.853 157.774 391.236 157.725 392.62C157.706 393.149 156.882 393.148 156.9 392.616L157.049 388.466Z" fill="white"/>
<path d="M125.008 365.086C125.996 365.135 126.984 365.185 127.972 365.234C128.5 365.26 128.499 366.085 127.968 366.058C126.98 366.009 125.992 365.959 125.004 365.91C124.476 365.884 124.476 365.06 125.008 365.086Z" fill="white"/>
<path d="M124.475 360.125L127.294 359.395C127.807 359.262 128.017 360.06 127.502 360.193L124.683 360.923C124.169 361.056 123.959 360.258 124.475 360.125Z" fill="white"/>
<path d="M119.674 363.021C120.514 362.926 121.354 362.831 122.195 362.736C122.721 362.677 122.713 363.501 122.191 363.56C121.351 363.655 120.511 363.75 119.67 363.845C119.144 363.905 119.152 363.08 119.674 363.021Z" fill="white"/>
<path d="M116.912 356.694L120.625 355.686C121.136 355.547 121.346 356.345 120.833 356.484L117.12 357.492C116.608 357.631 116.399 356.834 116.912 356.694Z" fill="white"/>
<path d="M12.8543 349.167L23.9913 371.375H41.8223C32.2013 359.925 21.2453 349.563 12.8543 349.167Z" fill="#DCDFEA"/>
<path d="M76.699 365.209L60.08 332.078H4.27997L12.853 349.167C21.245 349.563 32.2 359.925 41.821 371.375H82.766H82.774C84.719 369.932 86.681 368.671 88.627 367.682H77.935L76.699 365.209Z" fill="#DCDFEA"/>
<path d="M66.8149 419.138C59.0409 423.507 61.4399 430.275 61.4399 430.275C64.5309 431.52 68.1499 431.198 72.3049 428.181C76.9129 424.826 78.2819 421.388 77.8279 418.165C77.2849 417.687 73.8969 415.156 66.8149 419.138Z" fill="white"/>
<path d="M24.023 394.589C14.494 397.598 3.55404 409.221 14.601 414.786C11.048 402.462 27.617 399.742 30.123 399.404C27.963 397.771 25.927 396.155 24.023 394.589Z" fill="white"/>
<path d="M30.123 399.403C27.617 399.741 11.048 402.461 14.601 414.785C25.804 420.432 47.468 415.675 47.468 415.675L49.875 415.477C48.259 411.495 47.468 408.313 47.468 408.313L44.476 409.434C39.174 405.989 34.401 402.642 30.123 399.403Z" fill="#15A135"/>
<path d="M62.7672 402.552L47.4671 408.314C47.4671 408.314 48.2581 411.496 49.8741 415.478C52.1241 421.009 55.9581 428.082 61.4401 430.275C61.4401 430.275 59.0411 423.507 66.8151 419.138C73.8961 415.156 77.2841 417.687 77.8281 418.165C77.4981 415.741 76.1381 413.433 74.3741 411.381C69.8971 406.179 62.7672 402.552 62.7672 402.552Z" fill="#15A135"/>
<path d="M24.0243 394.589C25.9283 396.155 27.9643 397.771 30.1243 399.403C34.4023 402.643 39.1753 405.99 44.4763 409.435L47.4683 408.314L62.7683 402.552L64.0293 402.074C64.0293 402.074 62.4633 399.535 59.8083 395.578C55.7603 389.519 49.1823 380.13 41.8213 371.375H23.9903L12.8533 349.167C11.8063 349.126 10.7923 349.233 9.82831 349.513C-5.45469 353.998 -4.49871 371.004 24.0243 394.589Z" fill="#525C60"/>
<path d="M82.7676 371.375H41.8226C49.1836 380.13 55.7626 389.519 59.8096 395.578C62.3646 392.107 72.2566 379.149 82.7676 371.375Z" fill="#636A6D"/>
<path d="M88.6277 367.682C86.6827 368.671 84.7207 369.932 82.7747 371.375H82.7668C72.2568 379.149 62.3637 392.107 59.8087 395.578C62.4627 399.535 64.0298 402.074 64.0298 402.074L62.7687 402.552C62.7687 402.552 69.8997 406.179 74.3757 411.381L77.8788 410.482L93.8628 405.602C93.8628 405.602 98.7598 414.068 123.556 421.495C148.361 428.922 161.278 402.98 161.278 402.98L161.303 401.727H161.278C161.278 401.727 129.491 375.999 107.803 367.83C100.12 366.519 94.8278 365.53 94.8278 365.53C92.8238 365.852 90.7377 366.61 88.6277 367.682Z" fill="#687175"/>
<path d="M55.2849 416.123C57.0819 414.257 59.2269 412.847 61.5609 411.939C61.9759 410.551 62.3909 409.163 62.8059 407.775C62.9579 407.267 63.7549 407.479 63.6019 407.988C63.2419 409.191 62.8829 410.394 62.5229 411.597C64.8979 410.83 67.4399 410.569 70.0039 410.884C70.5239 410.948 70.5269 411.773 69.9999 411.708C67.3199 411.379 64.6739 411.685 62.2339 412.565C61.6289 414.589 61.0239 416.613 60.4189 418.637C60.2669 419.145 59.4699 418.933 59.6229 418.424L61.2579 412.955C59.2689 413.819 57.4389 415.076 55.8729 416.702C55.5029 417.085 54.9169 416.505 55.2849 416.123Z" fill="white"/>
<path d="M45.1001 400.955C46.3641 399.829 48.9192 401.012 50.1242 401.566C51.3062 402.11 52.3691 402.815 53.3251 403.646C52.8051 402.521 52.4501 401.318 52.2941 400.05C52.1151 398.6 51.8821 395.754 53.2161 394.67C56.3121 392.153 56.6071 401.525 56.5481 405.577C56.9821 404.442 57.4161 403.307 57.8501 402.173C58.0381 401.682 58.8362 401.89 58.6462 402.386C58.1252 403.748 57.6041 405.11 57.0841 406.472C58.7291 406.015 60.4281 405.733 62.1771 405.648C62.7071 405.622 62.7021 406.447 62.1731 406.472C60.2861 406.563 58.4681 406.886 56.7201 407.426C56.0611 409.148 55.4031 410.87 54.7441 412.592C54.5561 413.083 53.7582 412.875 53.9482 412.379C54.5352 410.843 55.1232 409.307 55.7102 407.771C54.2022 408.32 52.7441 409.029 51.3471 409.917C50.8991 410.202 50.4882 409.487 50.9352 409.203C52.1182 408.451 53.3521 407.832 54.6211 407.32C51.8261 406.255 48.7642 405.386 46.1332 403.998C45.0582 403.434 43.8491 402.07 45.1001 400.955ZM55.7611 400.975C55.6571 399.705 55.5012 398.418 55.2152 397.175C54.9712 396.119 54.5052 394.608 53.3742 396.001C52.4322 397.161 53.0992 400.396 53.4482 401.645C53.9012 403.268 54.7061 404.696 55.7691 405.966C55.8841 404.304 55.8981 402.642 55.7611 400.975ZM46.9302 403.444C47.3032 403.589 47.6771 403.735 48.0501 403.88C48.7971 404.171 49.5431 404.462 50.2901 404.753C51.8241 405.351 53.3582 405.948 54.8922 406.546C53.9692 405.294 52.8901 404.201 51.5931 403.331C50.5281 402.616 48.7961 401.479 47.4931 401.513C46.6541 401.201 46.4662 401.845 46.9302 403.444Z" fill="white"/>
<path d="M32.2224 413.948C33.4084 412.897 34.4963 411.766 35.5233 410.582C34.7923 409.089 34.0613 407.597 33.3293 406.104C33.0973 405.63 33.8094 405.214 34.0434 405.692C34.7334 407.101 35.4234 408.509 36.1134 409.918C37.2814 408.501 38.3403 406.993 39.2863 405.393C39.5563 404.936 40.2734 405.344 40.0024 405.801C38.9704 407.547 37.7974 409.182 36.5054 410.718C37.0644 411.86 37.6244 413.002 38.1834 414.143C38.4154 414.617 37.7034 415.033 37.4694 414.555L35.9144 411.38C34.9414 412.481 33.9204 413.542 32.8094 414.526C32.4144 414.877 31.8254 414.3 32.2224 413.948Z" fill="white"/>
<path d="M22.1982 411.134C23.6532 410.387 25.1082 409.64 26.5632 408.893L25.0061 405.445C24.7901 404.966 25.5012 404.549 25.7202 405.033C26.2442 406.195 26.7692 407.356 27.2942 408.518C28.7412 407.775 30.1881 407.032 31.6351 406.289C32.1051 406.048 32.5202 406.76 32.0472 407.003C30.5762 407.758 29.1042 408.514 27.6332 409.269C28.3782 410.92 29.1242 412.57 29.8692 414.221C30.0852 414.7 29.3742 415.117 29.1552 414.633C28.4042 412.97 27.6531 411.307 26.9021 409.644C25.4711 410.378 24.0411 411.113 22.6101 411.847C22.1401 412.089 21.7252 411.377 22.1982 411.134Z" fill="white"/>
<path d="M3.67029 436.029C32.6103 442.939 62.2703 447.219 92.1403 448.659C118.2 449.919 144.37 449.059 170.27 446.069C175.46 445.469 191.88 445.649 190 437.219C189.52 435.089 187.51 433.859 186.55 431.999C184.21 427.439 188.39 423.979 192.85 423.139C199.07 421.989 205.79 424.149 211.83 425.329C220.92 427.109 231.69 427.869 238.7 421.099C244.98 415.029 245.44 405.769 245.79 397.889C246.95 372.339 247.05 350.629 248.17 325.079C248.25 323.299 245.25 323.299 245.17 325.059C244 351.739 244.38 374.669 242.62 401.319C241.9 412.109 238.35 422.969 224.57 423.809C214.07 424.449 204.08 419.109 193.6 420.279C186.76 421.039 179.96 426.819 183.95 433.369C184.51 434.289 185.84 435.279 186.22 436.259C187.8 440.309 185.29 440.929 182.67 441.619C180.25 442.249 177.65 442.399 175.17 442.719C168.39 443.579 161.6 444.289 154.79 444.849C105.92 448.889 56.5003 445.269 8.91031 434.389C17.7903 431.129 26.6703 427.889 35.5303 424.599C40.5603 422.739 47.0303 420.269 47.9203 414.669C48.4303 411.439 46.7803 408.509 44.8903 405.919C42.1203 402.119 39.3503 398.579 37.5203 394.289C34.3803 386.949 33.5703 379.079 34.9403 371.379H31.9103C29.9203 383.469 33.2503 395.389 40.9803 405.579C43.7203 409.199 47.1403 413.699 42.9903 417.689C39.7703 420.769 34.4903 422.039 30.3303 423.569C21.4503 426.839 12.5603 430.099 3.6803 433.369C2.3903 433.839 2.08029 435.649 3.67029 436.029Z" fill="#5770EA"/>
</svg>
