<svg width="439" height="333" viewBox="0 0 439 333" fill="none" xmlns="http://www.w3.org/2000/svg">
<rect y="48" width="439" height="285" rx="5" fill="#F5F5F5"/>
<path d="M64.89 35.5043L64.1494 41.0928C62.309 40.9582 60.9175 41.3173 59.9748 42.1701C59.0322 43.023 58.4262 44.1901 58.1569 45.6714C57.8876 47.1526 57.8202 48.791 57.9549 50.5865H64.89V65.8034H51.6931V48.5666C51.6931 43.8534 52.8377 40.3073 55.127 37.9283C57.4611 35.5043 60.7155 34.6964 64.89 35.5043ZM45.9699 35.5043L45.2293 41.0928C43.3889 40.9582 41.9974 41.3173 41.0547 42.1701C40.1121 43.023 39.5061 44.1901 39.2368 45.6714C38.9675 47.1526 38.9001 48.791 39.0348 50.5865H45.9699V65.8034H32.773V48.5666C32.773 43.8534 33.9176 40.3073 36.2069 37.9283C38.541 35.5043 41.7954 34.6964 45.9699 35.5043Z" fill="#FFB800"/>
</svg>
