<svg width="72" height="75" viewBox="0 0 72 75" fill="none" xmlns="http://www.w3.org/2000/svg">
<path d="M29.62 17.101L35.714 8.35742L41.808 17.101C39.9533 16.5711 37.8337 16.3062 35.714 16.3062C33.5943 16.3062 31.4747 16.5711 29.62 17.101ZM50.2867 22.1352C53.2012 25.0498 55.5858 28.7592 56.3807 32.9985L60.885 23.1951L50.2867 22.1352ZM17.1669 27.1694C17.4319 26.9045 17.4319 26.9045 17.1669 27.1694C17.4319 26.9045 17.4319 26.9045 17.4319 26.6395C18.4917 25.0498 19.8165 23.46 21.1413 22.1352L10.543 22.9301L15.0473 32.7336C15.5772 30.8789 16.372 28.7592 17.1669 27.1694ZM54.791 46.5114C54.526 47.0413 54.2611 47.5712 53.9961 47.8362V48.3661C52.9363 50.2208 51.6115 51.5456 50.2867 53.1353L61.15 52.3405L56.6457 42.537C56.1158 43.8618 55.5858 45.1866 54.791 46.5114ZM17.6968 48.6311C17.6968 48.3661 17.4319 48.3661 17.4319 48.1011C17.1669 47.8362 17.1669 47.8362 17.1669 47.5712C16.902 47.0413 16.637 46.7763 16.637 46.2464C16.1071 44.9216 15.5772 43.5968 15.3122 42.2721L10.8079 52.0755L21.6712 52.8704C19.8165 51.5456 18.7567 50.2208 17.6968 48.6311ZM37.3037 58.6995H34.1242C32.5345 58.6995 30.9447 58.1695 29.62 57.9046L35.714 66.6482L41.808 57.9046C40.4832 58.1695 38.8935 58.4345 37.3037 58.6995Z" fill="#FFB800"/>
<path d="M39.6695 16.517L49.0941 11.5406L50.5011 22.1051C49.0958 20.7838 47.3335 19.5765 45.4497 18.6046C43.566 17.6328 41.5608 16.8964 39.6695 16.517ZM55.728 30.4663C56.9818 34.3928 57.4003 38.7826 56.163 42.9146L64.6608 36.2674L55.728 30.4663ZM23.9863 19.7553C24.3432 19.6413 24.3432 19.6413 23.9863 19.7553C24.3432 19.6413 24.3432 19.6413 24.4647 19.4058C26.1354 18.4789 28.0417 17.6735 29.8264 17.1036L20.0432 12.9508L19.5514 23.7283C20.8727 22.3229 22.551 20.8036 23.9863 19.7553ZM48.5548 54.1946C48.0763 54.5441 47.5979 54.8935 47.241 55.0075L46.998 55.4784C45.2058 56.6408 43.421 57.2108 41.5148 58.0162L51.5335 62.2904L52.0253 51.5129C50.9469 52.4473 49.8686 53.3817 48.5548 54.1946ZM14.6173 39.0712C14.7388 38.8357 14.5033 38.7142 14.6248 38.4788C14.5108 38.1218 14.5108 38.1218 14.6323 37.8863C14.6398 37.2939 14.5258 36.937 14.7688 36.466C14.9052 35.0457 15.0417 33.6254 15.4136 32.3266L6.91591 38.9738L16.2057 44.6609C15.1648 42.6332 14.8303 40.9699 14.6173 39.0712ZM27.4258 57.0085L24.6002 55.5507C23.1873 54.8219 22.0175 53.622 20.9616 52.7792L22.3686 63.3437L31.7932 58.3672C30.4944 57.9953 28.9601 57.5019 27.4258 57.0085Z" fill="#FFB800"/>
<path d="M33.8683 40.2728V51.551L43.2418 34.6337H37.6177V23.3555L28.2441 40.2728H33.8683Z" fill="#FFB800"/>
<circle cx="35.59" cy="37.3028" r="19.047" stroke="#FFB800" stroke-width="0.899858"/>
</svg>
