<svg width="59" height="68" viewBox="0 0 59 68" fill="none" xmlns="http://www.w3.org/2000/svg">
<path d="M32.6673 0C28.1591 6.77262 27.1771 16.3658 27.3138 24.833C27.3304 25.863 27.664 27.3078 28.0303 28.5988C28.778 28.2557 29.5908 28.0781 30.4132 28.0782C30.8415 28.0782 31.2585 28.127 31.661 28.2167L32.6673 0ZM30.4132 30.6179C28.6085 30.6179 27.1729 32.0557 27.1729 33.8631C27.1729 35.6706 28.6085 37.1083 30.4132 37.1083C32.2179 37.1083 33.6535 35.6706 33.6535 33.8631C33.6535 32.0557 32.2179 30.6179 30.4132 30.6179ZM36.1612 34.4322C36.0348 35.7096 35.4884 36.8686 34.6634 37.7681L58.5633 52.7517C54.9609 45.455 47.1568 39.8069 39.7667 35.6917C38.8698 35.1922 37.4583 34.7598 36.1612 34.4322ZM24.9053 35.5996L0 48.8363C8.11062 49.3603 16.8971 45.4157 24.1505 41.0633C25.0344 40.533 26.1159 39.5202 27.0499 38.556C26.0496 37.8333 25.2858 36.7998 24.9053 35.5996ZM32.775 39.1369C32.033 39.4738 31.2278 39.648 30.4132 39.6481C29.5986 39.6482 28.7934 39.474 28.0514 39.1373L27.032 67.7262H33.7944L32.775 39.1369Z" fill="#FFB800"/>
<ellipse cx="30.0772" cy="33.8638" rx="7.37021" ry="7.5694" stroke="#FFB800" stroke-width="1.19517"/>
<circle cx="30.0802" cy="33.6642" r="15.338" stroke="#FFB800" stroke-width="1.19517"/>
<circle cx="30.2781" cy="33.8635" r="26.2937" stroke="#FFB800" stroke-width="1.19517"/>
</svg>
