<svg width="430" height="669" viewBox="0 0 430 669" fill="none" xmlns="http://www.w3.org/2000/svg">
<g clip-path="url(#clip0_167_1189)">
<rect width="430" height="669" fill="#15A135"/>
<path d="M164.73 623.61L159.235 654.52" stroke="white" stroke-width="0.366337" stroke-linecap="round"/>
<path d="M161.067 624.297L155.343 655.207" stroke="white" stroke-width="0.366337" stroke-linecap="round"/>
<path d="M157.861 624.984L150.535 655.207" stroke="white" stroke-width="0.366337" stroke-linecap="round"/>
<path d="M154.198 625.9L145.498 655.665" stroke="white" stroke-width="0.366337" stroke-linecap="round"/>
<path d="M146.184 627.503L133.82 655.894" stroke="white" stroke-width="0.366337" stroke-linecap="round"/>
<path d="M131.073 656.123L131.989 658.184" stroke="white" stroke-width="0.366337" stroke-linecap="round"/>
<path d="M161.983 654.291L162.899 656.581" stroke="white" stroke-width="0.366337" stroke-linecap="round"/>
<path d="M126.494 632.54L127.41 661.847" stroke="white" stroke-width="0.457921" stroke-linecap="round"/>
<path d="M108.864 601.401L129.928 632.311" stroke="white" stroke-width="0.457921" stroke-linecap="round"/>
<path d="M54.8289 601.172L33.8408 625.733C33.6077 626.006 33.7646 626.428 34.1193 626.483L36.2831 626.816" stroke="white" stroke-width="0.457921"/>
<path d="M82.9341 646.559L98.214 646.182" stroke="white" stroke-width="0.377283" stroke-linecap="round"/>
<path d="M90.4795 637.693L91.4227 656.369" stroke="white" stroke-width="0.377283" stroke-linecap="round"/>
<path d="M97.4676 637.514C93.0639 637.625 85.2395 637.793 83.0965 637.732C82.8329 637.725 82.5676 637.975 82.5778 638.238L83.2959 656.728C83.3042 656.943 83.4908 657.108 83.7053 657.089L98.2318 655.834C98.4328 655.817 98.5846 655.644 98.5763 655.442L97.8519 637.876C97.8434 637.67 97.6736 637.509 97.4676 637.514Z" stroke="white" stroke-width="0.377283" stroke-linecap="round"/>
<path d="M103.643 645.223L117.305 644.886" stroke="white" stroke-width="0.377283" stroke-linecap="round"/>
<path d="M110.39 637.295L111.233 653.993" stroke="white" stroke-width="0.377283" stroke-linecap="round"/>
<path d="M116.598 637.136C112.693 637.235 105.838 637.381 103.848 637.332C103.584 637.326 103.317 637.577 103.327 637.841L103.965 654.273C103.973 654.488 104.16 654.653 104.374 654.634L117.283 653.519C117.484 653.501 117.636 653.329 117.628 653.127L116.983 637.498C116.975 637.292 116.804 637.131 116.598 637.136Z" stroke="white" stroke-width="0.377283" stroke-linecap="round"/>
<path fill-rule="evenodd" clip-rule="evenodd" d="M60.377 603.397C60.3548 603.403 60.3343 603.414 60.3164 603.428L60.4334 603.388C60.4946 603.389 60.5545 603.419 60.5905 603.474L60.7813 603.765L61.0869 603.764C61.4906 603.764 62.0668 603.763 62.7754 603.762C63.8485 603.761 65.2253 603.76 66.7668 603.759C66.7727 603.778 66.7817 603.796 66.7939 603.813L69.8554 608.04C66.5332 608.043 63.9791 608.045 63.587 608.046L63.8339 608.423L64.1937 608.422C64.5975 608.422 65.1736 608.421 65.8822 608.421C67.0141 608.42 68.4839 608.418 70.1285 608.417L73.2267 612.695C69.5215 612.699 66.7114 612.703 66.6436 612.705L66.6398 612.705L66.8865 613.081L67.3176 613.08C67.7316 613.079 68.3225 613.079 69.0488 613.078C70.2327 613.076 71.7762 613.074 73.4997 613.072L77.1131 618.061C73.5393 618.112 70.7175 618.157 70.2181 618.165L70.4628 618.538C71.3575 618.524 74.0697 618.482 77.3835 618.435L81.2677 623.798C79.4867 623.836 77.8796 623.87 76.6338 623.896L76.6271 623.896L76.6064 623.896L76.5859 623.897L76.5654 623.897L76.5448 623.898L76.5239 623.898L76.5153 623.898L76.5123 623.898L76.4973 623.899C74.9996 623.93 74.0577 623.95 74.0194 623.951L74.0105 623.952L74.2538 624.323L74.7177 624.313L76.4911 624.276L76.6166 624.273C77.9258 624.246 79.6395 624.21 81.5369 624.17L85.265 629.317C81.3499 629.39 78.2111 629.449 77.6203 629.461L77.6882 629.564C77.7453 629.651 77.7209 629.768 77.6338 629.825C77.6264 629.83 77.6187 629.834 77.6109 629.838L77.7282 629.836L78.2343 629.826C78.668 629.818 79.287 629.806 80.0481 629.792C81.4805 629.765 83.4165 629.729 85.5697 629.689C85.6165 629.708 85.67 629.708 85.7176 629.686L85.9784 629.681C90.5723 629.596 96.0514 629.495 99.7331 629.427C99.771 629.438 99.812 629.437 99.85 629.424C99.9428 629.41 100.013 629.33 100.012 629.233C100.01 629.151 99.9562 629.082 99.8824 629.058L81.3753 603.56C81.375 603.477 81.3208 603.407 81.2458 603.382L81.2411 603.375C81.1799 603.291 81.0619 603.272 80.9776 603.334C80.9621 603.345 80.9487 603.358 80.9377 603.373C74.0491 603.377 60.7445 603.385 60.4334 603.388C60.4145 603.388 60.3955 603.391 60.377 603.397ZM81.0467 603.75L74.3685 603.754L77.5105 608.035L84.1539 608.031L81.0467 603.75ZM84.4025 608.373C84.3718 608.395 84.3342 608.408 84.2936 608.408L77.7872 608.412L80.9251 612.687C83.3544 612.685 85.6845 612.683 87.5298 612.682L84.4025 608.373ZM87.8024 613.057C87.7946 613.058 87.7866 613.059 87.7784 613.059C85.9642 613.06 83.6407 613.062 81.2018 613.064L84.7951 617.96C87.2083 617.931 89.5075 617.907 91.3144 617.896L87.8024 613.057ZM91.565 618.241C91.5356 618.261 91.5003 618.272 91.4624 618.272C89.7014 618.283 87.4483 618.306 85.0696 618.334L88.9579 623.631C91.3384 623.578 93.5965 623.526 95.3691 623.482L91.565 618.241ZM95.6223 623.831C95.5961 623.846 95.566 623.855 95.5338 623.855C93.8024 623.899 91.583 623.95 89.2304 624.003L92.9556 629.078C92.9771 629.107 92.9888 629.141 92.9916 629.174L99.4147 629.056L95.6223 623.831ZM68.2957 603.758L73.9007 603.754L77.0427 608.035L70.321 608.04L67.2206 603.759L68.2957 603.758ZM71.4026 608.416L77.3195 608.412L80.4574 612.688C78.1614 612.69 75.7994 612.692 73.6922 612.695L70.594 608.417L71.4026 608.416ZM74.6988 613.071C76.6245 613.069 78.7101 613.066 80.7342 613.065L84.3312 617.965C82.0537 617.993 79.6971 618.025 77.5742 618.055L73.9652 613.072L74.6988 613.071ZM77.8447 618.428C79.9821 618.398 82.3395 618.367 84.6057 618.339L88.4974 623.642C86.2262 623.692 83.866 623.743 81.7265 623.788L77.8447 618.428ZM82.269 624.154C84.3475 624.11 86.6048 624.061 88.77 624.013L92.564 629.182L85.7246 629.309L81.9957 624.16L82.269 624.154ZM60.2749 603.68L60.2765 603.683C60.2662 603.667 60.258 603.651 60.2524 603.633C60.2575 603.649 60.265 603.665 60.2749 603.68ZM60.2445 603.564C60.2462 603.538 60.2535 603.512 60.2659 603.489C60.2538 603.512 60.2462 603.537 60.2445 603.564Z" fill="white"/>
<path d="M95.3052 617.796C95.45 617.792 109.191 617.575 115.774 617.535" stroke="white" stroke-width="0.377283" stroke-linecap="round"/>
<path d="M99.0332 623.351C99.178 623.345 113.099 623.062 119.68 622.896" stroke="white" stroke-width="0.377283" stroke-linecap="round"/>
<path d="M102.395 628.643C102.55 628.638 116.732 628.375 123.803 628.245" stroke="white" stroke-width="0.377283" stroke-linecap="round"/>
<path d="M85.9785 603.606C86.1234 603.603 99.3249 603.594 105.907 603.591" stroke="white" stroke-width="0.377283" stroke-linecap="round"/>
<path d="M88.9619 608.078C89.1068 608.076 102.308 608.067 108.891 608.063" stroke="white" stroke-width="0.377283" stroke-linecap="round"/>
<path d="M91.9448 612.551C92.0897 612.549 105.653 612.533 112.236 612.529" stroke="white" stroke-width="0.377283" stroke-linecap="round"/>
<path d="M85.9785 603.606L102.397 628.659" stroke="white" stroke-width="0.377283" stroke-linecap="round"/>
<path d="M92.2329 603.726L110.184 628.511" stroke="white" stroke-width="0.377283" stroke-linecap="round"/>
<path d="M99.0234 603.622L117.063 628.2" stroke="white" stroke-width="0.377283" stroke-linecap="round"/>
<path d="M105.813 603.519L123.767 628.254" stroke="white" stroke-width="0.377283" stroke-linecap="round"/>
<path d="M48.4116 619.961C48.8644 619.961 55.8944 620.212 59.3528 620.338" stroke="white" stroke-width="0.377283" stroke-linecap="round"/>
<path d="M54.2596 613.547L53.8823 624.299" stroke="white" stroke-width="0.377283" stroke-linecap="round"/>
<path d="M59.353 620.338C58.7871 612.227 49.9209 610.34 48.4118 619.961L48.2402 623.736C48.2308 623.944 48.3906 624.12 48.5979 624.13L58.9565 624.657C59.1722 624.668 59.353 624.496 59.353 624.28V620.338Z" stroke="white" stroke-width="0.377283" stroke-linecap="round"/>
<path d="M57.0894 604.492L53.5657 599.458C53.3865 599.202 53.5785 598.852 53.8907 598.865L108.635 601.172" stroke="white" stroke-width="0.377283" stroke-linecap="round"/>
<path d="M36.3384 626.752L55.8254 603.553C55.9862 603.362 56.2853 603.377 56.4261 603.583L76.5926 633.186C76.6644 633.291 76.7844 633.353 76.9118 633.35L129.928 632.311" stroke="white" stroke-width="0.377283" stroke-linecap="round"/>
<path d="M45.3926 661.651L46.1152 640.698C46.1223 640.491 46.2949 640.329 46.5018 640.334L61.0628 640.702C61.266 640.707 61.4286 640.873 61.4305 641.076L61.6157 660.707" stroke="white" stroke-width="0.377283" stroke-linecap="round"/>
<path d="M34.2227 663.679L36.1307 627.117C36.1413 626.914 36.3115 626.755 36.5152 626.759L72.3883 627.499C72.5889 627.503 72.7511 627.664 72.7576 627.864L73.8328 661.389" stroke="white" stroke-width="0.377283" stroke-linecap="round"/>
<path d="M97.2695 664.858C107.479 661.211 144.811 656.123 189 678.561" stroke="white" stroke-width="0.377283" stroke-linecap="round"/>
<path d="M86.1828 554.035C86.3981 548.677 82.8096 548.503 81.5623 553.663C81.5177 553.848 81.2458 553.873 81.1688 553.699C78.9469 548.687 75.5658 549.758 75.3936 555.195C75.3884 555.361 75.1835 555.444 75.0615 555.333C69.02 549.81 67.3849 552.985 70.3266 558.732C70.3933 558.862 70.2908 559.02 70.1444 559.015C63.2999 558.759 62.8468 561.734 67.4559 564.12C67.6016 564.195 67.5933 564.412 67.4425 564.477C62.4191 566.634 63.0045 569.385 67.4815 569.918C67.6597 569.94 67.7236 570.178 67.5774 570.283C63.0986 573.474 64.197 576.065 69.4145 575.302C69.5551 575.281 69.6726 575.419 69.63 575.554C68.1558 580.256 70.0757 581.354 73.9213 578.523C74.0519 578.427 74.24 578.529 74.2343 578.691C74.0471 584.04 77.0562 583.678 79.4136 579.761C79.5101 579.601 79.7688 579.654 79.7922 579.839C80.4917 585.381 83.4891 584.92 84.3549 580.136C84.3869 579.96 84.63 579.912 84.7251 580.065C87.3002 584.192 89.4761 583.133 89.0546 578.941C89.0355 578.751 89.2879 578.636 89.4203 578.773C92.117 581.567 94.3148 580.222 92.6212 575.868C92.5523 575.691 92.7617 575.515 92.924 575.614C96.6058 577.855 98.8278 576.483 95.9187 572.672C95.8093 572.528 95.941 572.316 96.1183 572.349C100.404 573.147 101.514 570.943 97.0505 567.537C96.8994 567.421 96.9919 567.165 97.1819 567.166C101.947 567.196 101.442 563.757 97.0114 562.378C96.8435 562.326 96.821 562.086 96.9765 562.004C100.941 559.907 99.6929 557.769 95.7551 558.858C95.5786 558.907 95.4261 558.7 95.5266 558.547C98.2263 554.434 95.124 553.706 91.326 555.914C91.1707 556.004 90.9768 555.849 91.0296 555.677C92.429 551.133 89.3664 550.879 86.5519 554.179C86.429 554.323 86.1752 554.224 86.1828 554.035Z" stroke="white" stroke-width="0.377283" stroke-linecap="round"/>
<path d="M78.2168 563.18C78.4054 565.821 80.8578 565.632 81.0464 563.18" stroke="white" stroke-width="0.377283" stroke-linecap="round"/>
<path d="M83.3101 563.18C83.4987 565.821 85.951 565.632 86.1397 563.18" stroke="white" stroke-width="0.377283" stroke-linecap="round"/>
<path d="M81.4233 566.953C81.5239 567.996 82.8319 567.921 82.9325 566.953" stroke="white" stroke-width="0.377283" stroke-linecap="round"/>
<path d="M48.812 591.419L49.1053 607.813" stroke="white" stroke-width="0.377283" stroke-linecap="round"/>
<path d="M52.2456 586.138L49.388 589.365C49.2761 589.491 49.0638 589.454 48.9264 589.356C48.7672 589.242 48.6624 589.048 48.7462 588.872L49.6328 587C49.6497 586.964 49.6723 586.931 49.6995 586.903C50.4089 586.16 51.0313 585.788 51.9195 585.562C52.2591 585.476 52.4779 585.876 52.2456 586.138Z" stroke="white" stroke-width="0.377283" stroke-linecap="round"/>
<path d="M50.3675 595.005L48.6482 591.053C48.5808 590.898 48.7044 590.721 48.8513 590.638C49.0215 590.542 49.2411 590.529 49.3661 590.679L50.689 592.273C50.7142 592.303 50.7347 592.337 50.749 592.374C51.1234 593.331 51.1975 594.052 51.0276 594.952C50.9627 595.297 50.5073 595.326 50.3675 595.005Z" stroke="white" stroke-width="0.377283" stroke-linecap="round"/>
<path d="M43.4464 588.196L47.5856 589.397C47.7478 589.444 47.8048 589.652 47.775 589.818C47.7404 590.01 47.6105 590.188 47.4149 590.188L45.3437 590.188C45.3043 590.188 45.2647 590.182 45.2273 590.17C44.252 589.847 43.6498 589.443 43.0652 588.738C42.8417 588.468 43.1099 588.099 43.4464 588.196Z" stroke="white" stroke-width="0.377283" stroke-linecap="round"/>
<circle cx="48.51" cy="589.968" r="0.725322" stroke="white" stroke-width="0.377283"/>
<path d="M48.0871 590.573L47.9609 609.187" stroke="white" stroke-width="0.377283" stroke-linecap="round"/>
<path d="M47.5063 549.589C35.906 548.96 39.7034 561.805 48.1898 557.449C48.3215 557.381 48.4884 557.391 48.6075 557.479C52.1628 560.104 54.3942 560.027 58.4195 557.989C58.5302 557.933 58.6644 557.934 58.7741 557.992C62.0696 559.729 63.7839 559.739 66.1695 557.311C66.2693 557.21 66.4182 557.17 66.5551 557.209C67.6145 557.512 68.2959 557.573 69.231 557.543C69.4805 557.535 69.6478 557.285 69.5698 557.048C68.3087 553.214 68.3102 551.619 72.6285 553.284C72.9146 553.394 73.2148 553.143 73.1257 552.85C72.297 550.121 70.5981 549.467 66.676 549.411C66.5776 549.409 66.4803 549.369 66.4099 549.3C63.4249 546.38 61.3441 546.493 57.459 548.197C57.346 548.246 57.2128 548.238 57.1065 548.175C53.6385 546.132 51.5373 546.55 47.7718 549.507C47.6984 549.564 47.5994 549.594 47.5063 549.589Z" stroke="white" stroke-width="0.377283" stroke-linecap="round"/>
<ellipse cx="82.3668" cy="566.953" rx="9.6207" ry="8.6775" stroke="white" stroke-width="0.377283"/>
<path d="M99.9106 563.935C101.953 561.335 104.578 561.114 108.762 564.162C108.885 564.251 109.053 564.26 109.184 564.185C113.597 561.633 115.556 561.643 117.481 564.968C117.576 565.131 117.774 565.204 117.952 565.142C120.53 564.239 121.552 564.859 122.688 567.229C122.719 567.294 122.772 567.352 122.833 567.391C127.157 570.184 123.357 574.019 118.746 572.297C118.645 572.259 118.53 572.263 118.433 572.311C115.441 573.784 113.749 573.841 111.066 571.658C110.938 571.554 110.756 571.542 110.616 571.629C107.43 573.62 105.548 573.786 102.273 571.548C102.209 571.505 102.133 571.48 102.057 571.48H99.9106" stroke="white" stroke-width="0.377283" stroke-linecap="round"/>
<path d="M4 678.332C35.5965 652.231 83.8214 660.345 118.775 670.517" stroke="white" stroke-width="0.377283" stroke-linecap="round"/>
<path d="M59.7658 651.275C59.7658 651.746 59.6032 651.968 59.4499 652.079C59.386 652.126 59.3183 652.157 59.2544 652.178C59.3239 651.989 59.3885 651.705 59.3885 651.275C59.3885 650.846 59.3239 650.562 59.2544 650.372C59.3183 650.393 59.386 650.425 59.4499 650.471C59.6032 650.583 59.7658 650.804 59.7658 651.275Z" fill="#FF0000" stroke="white" stroke-width="0.377283"/>
<path d="M56.0144 633.914C56.0144 635.043 54.9024 636.015 53.4555 636.015C52.0086 636.015 50.8966 635.043 50.8966 633.914C50.8966 632.784 52.0086 631.813 53.4555 631.813C54.9024 631.813 56.0144 632.784 56.0144 633.914Z" stroke="white" stroke-width="0.377283"/>
<path d="M22.7754 622.237L22.0885 667.342" stroke="white" stroke-width="0.380074" stroke-linecap="round"/>
<path d="M24.8159 611.919L23.9436 619.325C23.9109 619.603 23.5869 619.753 23.3073 619.749C22.9834 619.745 22.6581 619.581 22.6048 619.262L22.0375 615.86C22.0288 615.808 22.0284 615.754 22.0364 615.702C22.3157 613.894 22.8621 612.765 24.004 611.523C24.322 611.177 24.8709 611.452 24.8159 611.919Z" stroke="white" stroke-width="0.380074" stroke-linecap="round"/>
<path d="M30.8806 626.236L24.5335 622.32C24.2956 622.174 24.2965 621.817 24.4177 621.565C24.558 621.273 24.8439 621.047 25.1561 621.133L28.4793 622.054C28.5302 622.068 28.5792 622.091 28.6232 622.12C30.1446 623.136 30.9378 624.108 31.5818 625.667C31.7612 626.101 31.2805 626.483 30.8806 626.236Z" stroke="white" stroke-width="0.380074" stroke-linecap="round"/>
<path d="M14.4562 623.457L21.5228 621.074C21.7877 620.984 22.0618 621.213 22.1784 621.467C22.3134 621.762 22.3046 622.126 22.0387 622.311L19.208 624.28C19.1646 624.31 19.1161 624.334 19.0655 624.349C17.312 624.871 16.0577 624.861 14.4465 624.361C13.9978 624.221 14.011 623.608 14.4562 623.457Z" stroke="white" stroke-width="0.380074" stroke-linecap="round"/>
<circle cx="1.20106" cy="1.20106" r="1.20106" transform="matrix(-1 0 0 1 24.5029 619.802)" stroke="white" stroke-width="0.380074"/>
<path d="M24.1495 622.008L24.6074 666.426" stroke="white" stroke-width="0.380074" stroke-linecap="round"/>
<path d="M67.1321 579.404C65.5661 580.671 64.1826 582.054 62.474 583.153C61.58 583.728 60.5236 584.194 60.3228 585.298" stroke="white" stroke-width="0.366337" stroke-linecap="round"/>
<path d="M71.2996 581.538C70.5714 583.128 69.7475 584.545 68.6572 585.908" stroke="white" stroke-width="0.366337" stroke-linecap="round"/>
<path d="M74.2466 583.063C73.7979 585.172 73.4982 587.346 72.7222 589.364" stroke="white" stroke-width="0.366337" stroke-linecap="round"/>
<path d="M78.7178 583.571V584.993" stroke="white" stroke-width="0.366337" stroke-linecap="round"/>
<path d="M85.2231 584.79C85.9882 585.81 86.1743 587.429 87.1541 588.246" stroke="white" stroke-width="0.366337" stroke-linecap="round"/>
<path d="M90.2026 581.945C91.1655 583.56 92.3431 585.013 93.3871 586.575C94.0713 587.598 94.6357 588.694 95.3858 589.669" stroke="white" stroke-width="0.366337" stroke-linecap="round"/>
<path d="M94.979 580.827C95.4399 581.165 95.8654 581.628 96.4018 581.843" stroke="white" stroke-width="0.366337" stroke-linecap="round"/>
<path d="M97.3164 577.879C97.9262 578.794 99.0804 579.528 99.8741 580.29C100.361 580.758 100.775 581.308 101.28 581.741" stroke="white" stroke-width="0.366337" stroke-linecap="round"/>
<path d="M62.8635 573.204C61.7948 573.646 60.6807 573.921 59.6113 574.322" stroke="white" stroke-width="0.366337" stroke-linecap="round"/>
<path d="M61.7455 569.952C59.979 569.987 58.3007 570.283 56.5623 570.573C55.2129 570.798 53.8598 570.765 52.4971 570.765" stroke="white" stroke-width="0.366337" stroke-linecap="round"/>
<path d="M60.6284 576.965H63.5757" stroke="white" stroke-width="0.366337" stroke-linecap="round"/>
<path d="M99.7046 556.852C100.05 556.181 100.734 555.854 101.342 555.449" stroke="white" stroke-width="0.366337" stroke-linecap="round"/>
<path d="M97.1318 554.747C97.4641 553.445 98.3503 552.275 99.0095 551.122C99.7913 549.753 100.636 548.44 101.342 547.029" stroke="white" stroke-width="0.366337" stroke-linecap="round"/>
<path d="M93.0386 550.42V551.59" stroke="white" stroke-width="0.366337" stroke-linecap="round"/>
<path d="M88.478 542V550.303" stroke="white" stroke-width="0.366337" stroke-linecap="round"/>
<path d="M81.5781 548.198V548.9" stroke="white" stroke-width="0.366337" stroke-linecap="round"/>
<path d="M76.5493 548.9C76.4574 546.878 76.0077 544.906 75.6138 542.936" stroke="white" stroke-width="0.366337" stroke-linecap="round"/>
<path d="M162.54 650.645C162.339 650.645 142.47 651.983 132.561 652.652" stroke="white" stroke-width="0.366337" stroke-linecap="round"/>
<path d="M163.293 646.632L134.067 649.14" stroke="white" stroke-width="0.366337" stroke-linecap="round"/>
<path d="M163.795 643.245L135.422 646.278" stroke="white" stroke-width="0.366337" stroke-linecap="round"/>
<path d="M164.296 640.109C163.795 640.109 145.606 642.617 136.575 643.872" stroke="white" stroke-width="0.366337" stroke-linecap="round"/>
<path d="M164.798 637.224L137.955 641.112" stroke="white" stroke-width="0.366337" stroke-linecap="round"/>
<path d="M165.175 634.589L138.958 638.854" stroke="white" stroke-width="0.366337" stroke-linecap="round"/>
<path d="M165.677 632.081L140.088 636.596" stroke="white" stroke-width="0.366337" stroke-linecap="round"/>
<path d="M166.68 625.307L143.098 630.074" stroke="white" stroke-width="0.366337" stroke-linecap="round"/>
<path d="M166.429 627.439L142.094 632.206" stroke="white" stroke-width="0.366337" stroke-linecap="round"/>
<path d="M166.052 629.697L141.09 634.338" stroke="white" stroke-width="0.366337" stroke-linecap="round"/>
<path d="M162.098 654.047L167.074 623.588C167.126 623.269 166.84 622.998 166.524 623.067L144.323 627.893C144.183 627.924 144.066 628.017 144.006 628.146L131.133 655.592C130.985 655.907 131.228 656.265 131.575 656.244L161.674 654.431C161.887 654.418 162.064 654.259 162.098 654.047Z" stroke="white" stroke-width="0.366337" stroke-linecap="round"/>
<path d="M167.057 623.049L167.772 623.765C167.874 623.867 167.922 624.011 167.902 624.154L163.222 656.417C163.191 656.634 163.009 656.799 162.79 656.809L131.988 658.184" stroke="white" stroke-width="0.366337" stroke-linecap="round"/>
<path d="M155.265 657.168V670.214" stroke="white" stroke-width="0.366337" stroke-linecap="round"/>
<path d="M151.377 657.294V671.092" stroke="white" stroke-width="0.366337" stroke-linecap="round"/>
<path d="M148.868 657.419V670.464" stroke="white" stroke-width="0.366337" stroke-linecap="round"/>
<path d="M131.302 656.352L161.982 654.52L162.898 656.81L131.989 658.184L131.302 656.352Z" fill="white"/>
<path d="M86.0222 639.867C85.8438 640.13 85.6172 640.363 85.4212 640.61C85.3307 640.724 85.1919 641.006 85.0518 641.053" stroke="white" stroke-width="0.274752" stroke-linecap="round"/>
<path d="M106.629 638.951C106.45 639.214 106.224 639.447 106.028 639.694C105.937 639.808 105.798 640.09 105.658 640.137" stroke="white" stroke-width="0.274752" stroke-linecap="round"/>
<path d="M86.8835 639.867C86.631 640.273 86.3102 640.632 86.0327 641.014C85.9047 641.19 85.7081 641.626 85.5098 641.699" stroke="white" stroke-width="0.274752" stroke-linecap="round"/>
<path d="M107.49 638.951C107.237 639.357 106.917 639.716 106.639 640.098C106.511 640.274 106.315 640.71 106.116 640.783" stroke="white" stroke-width="0.274752" stroke-linecap="round"/>
<path d="M148.703 627.045L137.026 655.894" stroke="white" stroke-width="0.366337" stroke-linecap="round"/>
<path d="M150.992 626.587L141.147 655.665" stroke="white" stroke-width="0.366337" stroke-linecap="round"/>
<path d="M-59.4858 31.3764C-69.1587 71.3487 -44.5962 111.594 -4.62383 121.267C35.3485 130.94 75.594 106.377 85.2669 66.4051C94.9398 26.4328 70.3773 -13.8126 30.4049 -23.4856C-9.56743 -33.1585 -49.8129 -8.59595 -59.4858 31.3764Z" fill="url(#paint0_linear_167_1189)"/>
<path d="M621.857 824.306C734.11 725.556 745.056 554.505 646.306 442.252C547.556 329.999 376.505 319.053 264.252 417.803C151.999 516.553 141.053 687.604 239.803 799.857C338.553 912.11 509.604 923.056 621.857 824.306Z" fill="url(#paint1_linear_167_1189)"/>
</g>
<defs>
<linearGradient id="paint0_linear_167_1189" x1="-59.4835" y1="31.375" x2="85.2655" y2="66.4029" gradientUnits="userSpaceOnUse">
<stop stop-color="#15A135"/>
<stop offset="1" stop-color="#DEB343"/>
</linearGradient>
<linearGradient id="paint1_linear_167_1189" x1="621.848" y1="824.306" x2="264.251" y2="417.813" gradientUnits="userSpaceOnUse">
<stop stop-color="#15A135"/>
<stop offset="1" stop-color="#DEB343"/>
</linearGradient>
<clipPath id="clip0_167_1189">
<rect width="430" height="669" fill="white"/>
</clipPath>
</defs>
</svg>
