<svg width="430" height="300" viewBox="0 0 430 300" fill="none" xmlns="http://www.w3.org/2000/svg">
<g clip-path="url(#clip0_621_3020)">
<rect width="430" height="300" fill="#15A135"/>
<path d="M48.3039 290.691C128.4 229.586 143.795 115.121 82.691 35.0255C21.5868 -45.0701 -92.8783 -60.4658 -172.974 0.63843C-253.07 61.7426 -268.465 176.208 -207.361 256.303C-146.257 336.399 -31.7918 351.795 48.3039 290.691Z" fill="url(#paint0_linear_621_3020)"/>
<path d="M384.026 290.691C303.931 229.586 288.535 115.121 349.639 35.0255C410.743 -45.0701 525.208 -60.4658 605.304 0.63843C685.4 61.7426 700.795 176.208 639.691 256.303C578.587 336.399 464.122 351.795 384.026 290.691Z" fill="url(#paint1_linear_621_3020)"/>
<mask id="path-4-outside-1_621_3020" maskUnits="userSpaceOnUse" x="-13" y="177" width="98" height="95" fill="black">
<rect fill="white" x="-13" y="177" width="98" height="95"/>
<path d="M-5.0469 218.948C-5.0469 218.255 -4.77211 217.59 -4.28298 217.1C-3.79385 216.61 -3.13045 216.335 -2.43872 216.335H4.51642C5.20815 216.335 5.87155 216.61 6.36068 217.1C6.84981 217.59 7.1246 218.255 7.1246 218.948C7.1246 219.642 6.84981 220.306 6.36068 220.797C5.87155 221.287 5.20815 221.562 4.51642 221.562H-2.43872C-3.13045 221.562 -3.79385 221.287 -4.28298 220.797C-4.77211 220.306 -5.0469 219.642 -5.0469 218.948ZM11.8367 198.618C12.078 198.864 12.3656 199.06 12.6828 199.194C13 199.328 13.3405 199.398 13.6848 199.4C14.0291 199.401 14.3703 199.335 14.6888 199.203C15.0072 199.072 15.2965 198.879 15.5401 198.635C15.7837 198.391 15.9767 198.102 16.108 197.783C16.2393 197.464 16.3063 197.122 16.3051 196.777C16.3039 196.432 16.2346 196.09 16.1011 195.772C15.9676 195.454 15.7726 195.166 15.5273 194.924L10.6022 189.993C10.1048 189.551 9.45795 189.316 8.7936 189.336C8.12925 189.356 7.49758 189.629 7.0276 190.1C6.55763 190.571 6.28481 191.204 6.26486 191.87C6.24492 192.536 6.47935 193.184 6.92029 193.682L11.8367 198.618ZM35.8146 190.197C36.5063 190.197 37.1697 189.922 37.6588 189.432C38.1479 188.942 38.4227 188.277 38.4227 187.584V180.614C38.4227 179.921 38.1479 179.256 37.6588 178.766C37.1697 178.275 36.5063 178 35.8146 178C35.1228 178 34.4594 178.275 33.9703 178.766C33.4812 179.256 33.2064 179.921 33.2064 180.614V187.584C33.2064 188.277 33.4812 188.942 33.9703 189.432C34.4594 189.922 35.1228 190.197 35.8146 190.197ZM57.945 199.385C58.2881 199.385 58.6279 199.317 58.9449 199.186C59.2619 199.054 59.5499 198.861 59.7924 198.618L64.7088 193.682C65.1498 193.184 65.3842 192.536 65.3643 191.87C65.3443 191.204 65.0715 190.571 64.6015 190.1C64.1315 189.629 63.4999 189.356 62.8355 189.336C62.1712 189.316 61.5243 189.551 61.0269 189.993L56.1018 194.924C55.7375 195.289 55.4895 195.755 55.3891 196.262C55.2886 196.768 55.3403 197.294 55.5375 197.771C55.7347 198.248 56.0686 198.656 56.4971 198.943C56.9256 199.231 57.4294 199.384 57.945 199.385ZM64.5045 218.948C64.5045 219.642 64.7793 220.306 65.2684 220.797C65.7576 221.287 66.421 221.562 67.1127 221.562H74.0678C74.7596 221.562 75.423 221.287 75.9121 220.797C76.4012 220.306 76.676 219.642 76.676 218.948C76.676 218.255 76.4012 217.59 75.9121 217.1C75.423 216.61 74.7596 216.335 74.0678 216.335H67.1127C66.421 216.335 65.7576 216.61 65.2684 217.1C64.7793 217.59 64.5045 218.255 64.5045 218.948ZM18.4267 221.562C19.1184 221.562 19.7818 221.287 20.271 220.797C20.7601 220.306 21.0349 219.642 21.0349 218.948C21.0349 215.02 22.592 211.253 25.3637 208.475C28.1355 205.698 31.8947 204.137 35.8146 204.137C39.7344 204.137 43.4936 205.698 46.2654 208.475C49.0371 211.253 50.5942 215.02 50.5942 218.948C50.5942 219.642 50.869 220.306 51.3582 220.797C51.8473 221.287 52.5107 221.562 53.2024 221.562C53.8941 221.562 54.5575 221.287 55.0467 220.797C55.5358 220.306 55.8106 219.642 55.8106 218.948C55.8106 213.634 53.7039 208.537 49.9539 204.779C46.2039 201.021 41.1178 198.91 35.8146 198.91C30.5113 198.91 25.4252 201.021 21.6752 204.779C17.9252 208.537 15.8185 213.634 15.8185 218.948C15.8185 219.642 16.0933 220.306 16.5824 220.797C17.0716 221.287 17.735 221.562 18.4267 221.562ZM83.2747 269.045C83.0464 269.441 82.7182 269.771 82.3231 270C81.9279 270.229 81.4796 270.351 81.023 270.352H-9.39386C-9.8494 270.351 -10.2969 270.232 -10.6918 270.004C-11.0867 269.776 -11.4153 269.449 -11.6448 269.055C-11.8743 268.661 -11.9967 268.213 -11.9999 267.756C-12.0031 267.3 -11.887 266.85 -11.663 266.453L6.02482 235.088C6.2522 234.685 6.58256 234.349 6.98206 234.115C7.38155 233.882 7.83581 233.759 8.29828 233.76H63.3308C63.7933 233.759 64.2476 233.882 64.6471 234.115C65.0466 234.349 65.3769 234.685 65.6043 235.088L83.2921 266.453C83.5144 266.849 83.6297 267.297 83.6266 267.751C83.6236 268.206 83.5023 268.652 83.2747 269.045ZM61.8094 238.987H49.6379L51.5288 247.699H66.7432L61.8094 238.987ZM46.1864 247.699L44.2955 238.987H27.3423L25.4514 247.699H46.1864ZM24.3081 252.927L21.6608 265.124H49.9683L47.321 252.927H24.3081ZM4.9033 247.699H20.1177L22.0086 238.987H9.8371L4.9033 247.699ZM-4.92519 265.124H16.3228L18.9701 252.927H1.95606L-4.92519 265.124ZM76.5543 265.124L69.6731 252.927H52.659L55.3063 265.124H76.5543Z"/>
</mask>
<path d="M-5.0469 218.948C-5.0469 218.255 -4.77211 217.59 -4.28298 217.1C-3.79385 216.61 -3.13045 216.335 -2.43872 216.335H4.51642C5.20815 216.335 5.87155 216.61 6.36068 217.1C6.84981 217.59 7.1246 218.255 7.1246 218.948C7.1246 219.642 6.84981 220.306 6.36068 220.797C5.87155 221.287 5.20815 221.562 4.51642 221.562H-2.43872C-3.13045 221.562 -3.79385 221.287 -4.28298 220.797C-4.77211 220.306 -5.0469 219.642 -5.0469 218.948ZM11.8367 198.618C12.078 198.864 12.3656 199.06 12.6828 199.194C13 199.328 13.3405 199.398 13.6848 199.4C14.0291 199.401 14.3703 199.335 14.6888 199.203C15.0072 199.072 15.2965 198.879 15.5401 198.635C15.7837 198.391 15.9767 198.102 16.108 197.783C16.2393 197.464 16.3063 197.122 16.3051 196.777C16.3039 196.432 16.2346 196.09 16.1011 195.772C15.9676 195.454 15.7726 195.166 15.5273 194.924L10.6022 189.993C10.1048 189.551 9.45795 189.316 8.7936 189.336C8.12925 189.356 7.49758 189.629 7.0276 190.1C6.55763 190.571 6.28481 191.204 6.26486 191.87C6.24492 192.536 6.47935 193.184 6.92029 193.682L11.8367 198.618ZM35.8146 190.197C36.5063 190.197 37.1697 189.922 37.6588 189.432C38.1479 188.942 38.4227 188.277 38.4227 187.584V180.614C38.4227 179.921 38.1479 179.256 37.6588 178.766C37.1697 178.275 36.5063 178 35.8146 178C35.1228 178 34.4594 178.275 33.9703 178.766C33.4812 179.256 33.2064 179.921 33.2064 180.614V187.584C33.2064 188.277 33.4812 188.942 33.9703 189.432C34.4594 189.922 35.1228 190.197 35.8146 190.197ZM57.945 199.385C58.2881 199.385 58.6279 199.317 58.9449 199.186C59.2619 199.054 59.5499 198.861 59.7924 198.618L64.7088 193.682C65.1498 193.184 65.3842 192.536 65.3643 191.87C65.3443 191.204 65.0715 190.571 64.6015 190.1C64.1315 189.629 63.4999 189.356 62.8355 189.336C62.1712 189.316 61.5243 189.551 61.0269 189.993L56.1018 194.924C55.7375 195.289 55.4895 195.755 55.3891 196.262C55.2886 196.768 55.3403 197.294 55.5375 197.771C55.7347 198.248 56.0686 198.656 56.4971 198.943C56.9256 199.231 57.4294 199.384 57.945 199.385ZM64.5045 218.948C64.5045 219.642 64.7793 220.306 65.2684 220.797C65.7576 221.287 66.421 221.562 67.1127 221.562H74.0678C74.7596 221.562 75.423 221.287 75.9121 220.797C76.4012 220.306 76.676 219.642 76.676 218.948C76.676 218.255 76.4012 217.59 75.9121 217.1C75.423 216.61 74.7596 216.335 74.0678 216.335H67.1127C66.421 216.335 65.7576 216.61 65.2684 217.1C64.7793 217.59 64.5045 218.255 64.5045 218.948ZM18.4267 221.562C19.1184 221.562 19.7818 221.287 20.271 220.797C20.7601 220.306 21.0349 219.642 21.0349 218.948C21.0349 215.02 22.592 211.253 25.3637 208.475C28.1355 205.698 31.8947 204.137 35.8146 204.137C39.7344 204.137 43.4936 205.698 46.2654 208.475C49.0371 211.253 50.5942 215.02 50.5942 218.948C50.5942 219.642 50.869 220.306 51.3582 220.797C51.8473 221.287 52.5107 221.562 53.2024 221.562C53.8941 221.562 54.5575 221.287 55.0467 220.797C55.5358 220.306 55.8106 219.642 55.8106 218.948C55.8106 213.634 53.7039 208.537 49.9539 204.779C46.2039 201.021 41.1178 198.91 35.8146 198.91C30.5113 198.91 25.4252 201.021 21.6752 204.779C17.9252 208.537 15.8185 213.634 15.8185 218.948C15.8185 219.642 16.0933 220.306 16.5824 220.797C17.0716 221.287 17.735 221.562 18.4267 221.562ZM83.2747 269.045C83.0464 269.441 82.7182 269.771 82.3231 270C81.9279 270.229 81.4796 270.351 81.023 270.352H-9.39386C-9.8494 270.351 -10.2969 270.232 -10.6918 270.004C-11.0867 269.776 -11.4153 269.449 -11.6448 269.055C-11.8743 268.661 -11.9967 268.213 -11.9999 267.756C-12.0031 267.3 -11.887 266.85 -11.663 266.453L6.02482 235.088C6.2522 234.685 6.58256 234.349 6.98206 234.115C7.38155 233.882 7.83581 233.759 8.29828 233.76H63.3308C63.7933 233.759 64.2476 233.882 64.6471 234.115C65.0466 234.349 65.3769 234.685 65.6043 235.088L83.2921 266.453C83.5144 266.849 83.6297 267.297 83.6266 267.751C83.6236 268.206 83.5023 268.652 83.2747 269.045ZM61.8094 238.987H49.6379L51.5288 247.699H66.7432L61.8094 238.987ZM46.1864 247.699L44.2955 238.987H27.3423L25.4514 247.699H46.1864ZM24.3081 252.927L21.6608 265.124H49.9683L47.321 252.927H24.3081ZM4.9033 247.699H20.1177L22.0086 238.987H9.8371L4.9033 247.699ZM-4.92519 265.124H16.3228L18.9701 252.927H1.95606L-4.92519 265.124ZM76.5543 265.124L69.6731 252.927H52.659L55.3063 265.124H76.5543Z" stroke="white" stroke-width="2" mask="url(#path-4-outside-1_621_3020)"/>
<path d="M91.4564 118.963L80.8412 97.5904C80.753 97.4129 80.6174 97.2636 80.4495 97.1593C80.2817 97.055 80.0884 96.9999 79.8912 97H41.6767C41.4795 96.9999 41.2861 97.055 41.1183 97.1593C40.9505 97.2636 40.8149 97.4129 40.7266 97.5904L30.1115 118.963C30.0379 119.112 29.9998 119.276 30 119.442V134.403C30 135.253 30.3355 136.068 30.9327 136.67C31.53 137.271 32.34 137.609 33.1845 137.609H88.3833C89.2279 137.609 90.0379 137.271 90.6351 136.67C91.2323 136.068 91.5678 135.253 91.5678 134.403V119.442C91.5681 119.276 91.5299 119.112 91.4564 118.963ZM52.9473 118.373L48.7012 109.824H59.0669L63.313 118.373H52.9473ZM53.7594 99.1373L58.0054 107.686H47.6397L43.3937 99.1373H53.7594ZM66.4975 99.1373L70.7436 107.686H60.3779L56.1318 99.1373H66.4975ZM65.6855 118.373L61.4394 109.824H71.8051L76.0512 118.373H65.6855ZM78.4236 118.373L74.1776 109.824H84.5433L88.7893 118.373H78.4236ZM83.4818 107.686H73.1161L68.87 99.1373H79.2357L83.4818 107.686ZM32.123 134.403V119.693L41.6767 100.457L51.2303 119.693V135.471H33.1845C32.903 135.471 32.633 135.359 32.4339 135.158C32.2349 134.958 32.123 134.686 32.123 134.403ZM88.3833 135.471H53.3533V120.51H89.4448V134.403C89.4448 134.686 89.333 134.958 89.1339 135.158C88.9348 135.359 88.6648 135.471 88.3833 135.471Z" stroke="white"/>
<mask id="path-6-inside-2_621_3020" fill="white">
<path d="M116.599 45.7527H130.572V49.6197H116.599V45.7527ZM116.599 50.6677H130.572V54.5347H116.599V50.6677ZM116.599 55.4629H130.572V59.3299H116.599V55.4629ZM116.599 60.2539H130.572V64.1208H116.599V60.2539ZM116.633 66.1998C116.633 66.5565 116.704 66.9097 116.841 67.2393C116.978 67.5688 117.178 67.8683 117.431 68.1205C117.684 68.3727 117.985 68.5728 118.315 68.7093C118.646 68.8458 119 68.9161 119.358 68.9161H127.938C128.66 68.9149 129.352 68.6284 129.863 68.1192C130.373 67.6101 130.661 66.9198 130.662 66.1998V65.0491H116.633V66.1998ZM130.735 25.096H130.212V23.6545C130.21 23.4812 130.141 23.3154 130.018 23.1929C129.895 23.0704 129.729 23.0011 129.555 23H117.616C117.442 23.0011 117.276 23.0704 117.153 23.1929C117.03 23.3154 116.961 23.4812 116.959 23.6545V25.096H116.569C116.035 25.0955 115.506 25.1998 115.013 25.4032C114.52 25.6065 114.071 25.9048 113.693 26.281C113.316 26.6572 113.016 27.104 112.812 27.5957C112.607 28.0875 112.502 28.6146 112.502 29.147V68.3001C107.191 60.4164 106.496 60.7971 105.994 61.0538C105.492 61.3104 105.604 61.8494 105.719 62.8418C105.887 64.1279 105.946 65.4257 105.895 66.7216C105.788 69.0273 105.702 71.0207 104.514 71.812C103.937 72.0586 103.316 72.1857 102.688 72.1857C102.061 72.1857 101.44 72.0586 100.863 71.812C100.01 71.5311 99.2132 71.1041 98.5077 70.5501L98.645 70.64L110.533 48.037L110.207 47.1002L96.9804 72.3382H49.3432L49.8451 73.4332H97.1864L98.2031 71.504C98.9675 71.9707 99.7876 72.3401 100.644 72.6034C101.548 72.93 102.507 73.0754 103.467 73.0311C103.995 72.9899 104.503 72.8179 104.947 72.5307C106.47 71.5126 106.569 69.331 106.663 66.8029C106.72 65.4642 106.66 64.1231 106.483 62.7948C106.441 62.4884 106.415 62.18 106.406 61.8708C108.831 64.3368 110.932 67.101 112.656 70.0967C112.893 70.9457 113.402 71.6942 114.106 72.2279C114.809 72.7615 115.668 73.0512 116.552 73.0525H130.709C131.247 73.0565 131.781 72.9538 132.279 72.7504C132.777 72.547 133.23 72.2469 133.611 71.8677C133.991 71.4884 134.293 71.0374 134.497 70.541C134.702 70.0446 134.805 69.5126 134.802 68.976V29.147C134.802 28.6146 134.697 28.0875 134.492 27.5957C134.288 27.104 133.988 26.6572 133.61 26.281C133.233 25.9048 132.784 25.6065 132.291 25.4032C131.798 25.1998 131.269 25.0955 130.735 25.096ZM131.456 66.6789C131.456 67.5025 131.128 68.2924 130.543 68.8748C129.959 69.4572 129.167 69.7844 128.341 69.7844H118.83C118.004 69.7844 117.212 69.4572 116.628 68.8748C116.043 68.2924 115.715 67.5025 115.715 66.6789V30.9906C115.715 30.167 116.043 29.3771 116.628 28.7946C117.212 28.2122 118.004 27.8851 118.83 27.8851H128.341C129.167 27.8851 129.959 28.2122 130.543 28.7946C131.128 29.3771 131.456 30.167 131.456 30.9906V66.6789ZM88.2673 35.4222C88.331 35.4458 88.4015 35.4433 88.4634 35.4153C88.5253 35.3872 88.5735 35.3359 88.5976 35.2725L90.378 30.396C90.3896 30.3643 90.3948 30.3306 90.3933 30.2968C90.3918 30.2631 90.3837 30.23 90.3693 30.1994C90.355 30.1688 90.3347 30.1413 90.3097 30.1185C90.2847 30.0957 90.2554 30.0781 90.2235 30.0666C90.1598 30.0446 90.0899 30.0484 90.0289 30.0772C89.9679 30.106 89.9207 30.1575 89.8975 30.2206L88.1171 35.0971C88.0947 35.1601 88.0979 35.2294 88.126 35.2901C88.154 35.3508 88.2047 35.3982 88.2673 35.4222ZM91.8495 37.2531L95.1915 33.2791C95.2136 33.2534 95.2304 33.2235 95.2409 33.1912C95.2514 33.1589 95.2553 33.1249 95.2525 33.0911C95.2497 33.0573 95.2402 33.0244 95.2246 32.9942C95.209 32.9641 95.1875 32.9374 95.1614 32.9155C95.1089 32.8728 95.0417 32.8524 94.9742 32.8588C94.9067 32.8652 94.8445 32.8979 94.8011 32.9498L91.4548 36.9237C91.4119 36.976 91.3915 37.0431 91.3979 37.1104C91.4043 37.1776 91.4371 37.2397 91.4891 37.283C91.5411 37.3263 91.608 37.3474 91.6755 37.3418C91.7429 37.3362 91.8054 37.3043 91.8495 37.2531ZM93.8744 40.1276C93.9085 40.1855 93.964 40.2278 94.0289 40.2453C94.0939 40.2629 94.1631 40.2545 94.2219 40.2217L98.7308 37.6295C98.7893 37.5948 98.8316 37.5384 98.8484 37.4726C98.8653 37.4069 98.8554 37.3372 98.8209 37.2787C98.7868 37.2208 98.7313 37.1786 98.6664 37.161C98.6014 37.1434 98.5322 37.1519 98.4734 37.1846L93.9688 39.7769C93.9395 39.7937 93.9138 39.8161 93.8932 39.8429C93.8726 39.8696 93.8575 39.9002 93.8487 39.9327C93.8399 39.9653 93.8377 39.9993 93.8421 40.0327C93.8465 40.0662 93.8575 40.0984 93.8744 40.1276ZM95.14 43.6139C95.1515 43.6807 95.1891 43.7403 95.2446 43.7796C95.3001 43.8189 95.3689 43.8347 95.436 43.8235L100.584 42.9209C100.65 42.9084 100.709 42.8705 100.748 42.8153C100.786 42.7601 100.801 42.692 100.79 42.6258C100.784 42.5913 100.772 42.5584 100.753 42.529C100.734 42.4996 100.71 42.4744 100.681 42.4547C100.652 42.4351 100.619 42.4216 100.585 42.415C100.551 42.4083 100.515 42.4087 100.481 42.4162L95.333 43.3102C95.2674 43.3255 95.2104 43.3659 95.1743 43.4227C95.1382 43.4795 95.1259 43.5481 95.14 43.6139ZM68.6272 42.8824L73.7496 43.785C73.8151 43.7933 73.8814 43.7762 73.9346 43.7372C73.9878 43.6982 74.024 43.6402 74.0355 43.5754C74.0471 43.5105 74.0332 43.4437 73.9968 43.3888C73.9603 43.3338 73.9041 43.295 73.8397 43.2802L68.6915 42.3819C68.6564 42.3704 68.6192 42.3666 68.5824 42.3708C68.5456 42.3749 68.5102 42.387 68.4785 42.406C68.4468 42.425 68.4196 42.4507 68.3987 42.4811C68.3779 42.5116 68.3639 42.5462 68.3576 42.5826C68.3514 42.6189 68.3531 42.6562 68.3626 42.6919C68.3721 42.7275 68.3893 42.7607 68.4128 42.7892C68.4364 42.8176 68.4658 42.8407 68.4991 42.8568C68.5324 42.8729 68.5687 42.8816 68.6057 42.8824H68.6272ZM74.9722 40.1918C75.0015 40.2087 75.0339 40.2196 75.0674 40.224C75.101 40.2284 75.135 40.2262 75.1677 40.2174C75.2004 40.2087 75.231 40.1936 75.2578 40.1731C75.2846 40.1525 75.3071 40.1269 75.324 40.0977C75.3569 40.0391 75.3654 39.97 75.3477 39.9052C75.3301 39.8405 75.2877 39.7852 75.2297 39.7512L70.725 37.1547C70.6973 37.1274 70.6637 37.1068 70.6268 37.0943C70.5899 37.0819 70.5506 37.0779 70.512 37.0828C70.4733 37.0877 70.4363 37.1013 70.4036 37.1225C70.371 37.1437 70.3436 37.1721 70.3236 37.2054C70.3035 37.2387 70.2913 37.2761 70.2879 37.3148C70.2845 37.3535 70.2899 37.3925 70.3038 37.4288C70.3176 37.4651 70.3396 37.4978 70.368 37.5244C70.3964 37.551 70.4304 37.5709 70.4676 37.5824L74.9722 40.1918ZM77.3575 37.2274C77.401 37.2792 77.4632 37.3119 77.5307 37.3183C77.5981 37.3247 77.6654 37.3044 77.7179 37.2616C77.7443 37.2395 77.766 37.2122 77.7816 37.1816C77.7972 37.1509 77.8065 37.1174 77.8089 37.0831C77.8113 37.0488 77.8068 37.0143 77.7956 36.9818C77.7844 36.9493 77.7667 36.9193 77.7436 36.8937L74.3974 32.9198C74.3782 32.8881 74.3524 32.8608 74.3217 32.8399C74.291 32.819 74.2562 32.805 74.2195 32.7989C74.1829 32.7927 74.1453 32.7945 74.1094 32.8042C74.0736 32.8139 74.0402 32.8312 74.0117 32.855C73.9832 32.8787 73.9602 32.9084 73.9442 32.9418C73.9283 32.9753 73.9198 33.0118 73.9193 33.0489C73.9189 33.0859 73.9265 33.1226 73.9416 33.1565C73.9567 33.1903 73.979 33.2205 74.007 33.2449L77.3575 37.2274ZM80.9441 35.4137C81.0076 35.3897 81.0591 35.3416 81.0872 35.2799C81.1154 35.2181 81.1179 35.1478 81.0942 35.0843L79.3181 30.2078C79.2948 30.1437 79.2469 30.0915 79.1849 30.0626C79.123 30.0337 79.0521 30.0306 78.9878 30.0538C78.9235 30.0771 78.8711 30.1248 78.8421 30.1866C78.8132 30.2484 78.81 30.3191 78.8333 30.3832L80.6137 35.2597C80.6252 35.2915 80.6429 35.3207 80.6657 35.3456C80.6886 35.3706 80.7161 35.3908 80.7468 35.4051C80.7775 35.4194 80.8107 35.4275 80.8446 35.429C80.8784 35.4305 80.9122 35.4253 80.9441 35.4137ZM84.6078 34.7549C84.6753 34.7549 84.7402 34.7285 84.7883 34.6813C84.8365 34.6341 84.8641 34.5699 84.8652 34.5025V29.3309C84.8652 29.2972 84.8585 29.2638 84.8456 29.2327C84.8327 29.2015 84.8137 29.1732 84.7898 29.1494C84.7659 29.1256 84.7375 29.1067 84.7063 29.0938C84.6751 29.0809 84.6416 29.0742 84.6078 29.0742C84.574 29.0742 84.5405 29.0809 84.5093 29.0938C84.4781 29.1067 84.4497 29.1256 84.4258 29.1494C84.4019 29.1732 84.3829 29.2015 84.37 29.2327C84.3571 29.2638 84.3504 29.2972 84.3504 29.3309V34.5197C84.3558 34.584 84.3853 34.6439 84.433 34.6875C84.4807 34.7311 84.5431 34.7551 84.6078 34.7549ZM69.6525 45.3463C69.6259 45.3446 69.5992 45.3492 69.5746 45.3596C69.5501 45.37 69.5282 45.3859 69.511 45.4062C69.49 45.4239 69.4736 45.4463 69.4632 45.4716C69.4527 45.497 69.4485 45.5244 69.4509 45.5517C69.4509 45.5781 69.4561 45.6042 69.4662 45.6286C69.4764 45.653 69.4912 45.6751 69.5099 45.6938C69.5287 45.7125 69.5509 45.7273 69.5754 45.7374C69.5998 45.7475 69.626 45.7527 69.6525 45.7527H99.5245C99.5789 45.7519 99.6311 45.7305 99.6703 45.6928C99.6907 45.6756 99.7067 45.6538 99.7171 45.6293C99.7275 45.6048 99.7321 45.5782 99.7304 45.5517C99.731 45.5245 99.726 45.4976 99.7159 45.4724C99.7058 45.4472 99.6906 45.4244 99.6714 45.4052C99.6521 45.386 99.6292 45.3709 99.604 45.3608C99.5787 45.3507 99.5517 45.3457 99.5245 45.3463H94.0117C93.8757 42.9461 92.8237 40.6888 91.0714 39.0375C89.3192 37.3862 86.9995 36.4662 84.5885 36.4662C82.1774 36.4662 79.8578 37.3862 78.1056 39.0375C76.3533 40.6888 75.3012 42.9461 75.1653 45.3463H69.6525ZM110.005 46.4157H61.9518L49 71.7564H96.7145L110.005 46.4157ZM107.247 48.3022L101.996 58.3161H101.047L106.29 48.3022H107.247ZM105.805 48.3022L100.563 58.3161H99.5416L104.771 48.3022H105.805ZM104.295 48.3022L99.0568 58.3161H98.1087L103.343 48.3022H104.295ZM102.858 48.3022L97.624 58.3161H96.6201L101.854 48.3022H102.858ZM101.373 48.3022L96.1439 58.3161H95.1915L100.421 48.3022H101.373ZM99.9363 48.3022L94.7067 58.3161H93.6856L98.911 48.3022H99.9363ZM98.4262 48.3022L93.188 58.3161H92.2399L97.4781 48.3022H98.4262ZM95.8521 48.3022L90.6354 58.3161H89.6873L94.904 48.3022H95.8521ZM94.415 48.3022L89.2025 58.3161H88.1814L93.3896 48.3022H94.415ZM92.9048 48.3022L87.6967 58.3161H86.7528L91.961 48.3022H92.9048ZM91.4677 48.3022L86.2638 58.3161H85.2642L90.4638 48.3022H91.4677ZM89.979 48.3022L84.7794 58.3161H83.8313L89.0266 48.3022H89.979ZM88.5418 48.3022L83.3465 58.3161H82.3255L87.5165 48.3022H88.5418ZM87.0317 48.3022L81.8407 58.3161H80.8926L86.0793 48.3022H87.0317ZM84.3247 48.3022L79.1379 58.3161H78.1727L83.3508 48.3022H84.3247ZM82.8832 48.3022L77.705 58.3161H76.684L81.8578 48.3022H82.8832ZM81.3731 48.3022L76.1992 58.3161H75.2468L80.4207 48.3022H81.3731ZM79.9359 48.3022L74.7878 58.3161H73.7667L78.9363 48.3022H79.9359ZM78.4515 48.3022L73.3034 58.3161H72.3338L77.4819 48.3022H78.4515ZM77.0143 48.3022L71.8662 58.3161H70.828L75.9761 48.3022H77.0143ZM75.5042 48.3022L70.3561 58.3161H69.3951L74.5432 48.3022H75.5042ZM72.7929 48.3022L67.6448 58.3161H66.6924L71.8405 48.3022H72.7929ZM71.3557 48.3022L66.2076 58.3161H65.1865L70.3346 48.3022H71.3557ZM69.8456 48.3022L64.6975 58.3161H63.7536L68.9018 48.3022H69.8456ZM68.4084 48.3022L63.2603 58.3161H62.2693L67.4174 48.3022H68.4084ZM66.9197 48.3022L61.7716 58.3161H60.8364L65.9845 48.3022H66.9197ZM65.4825 48.3022L60.3344 58.3161H59.3306L64.4443 48.3022H65.4825ZM63.02 48.3022H63.9724L58.8672 58.3161H57.8977L63.02 48.3022ZM51.9344 69.9684L57.0611 59.9544H58.0092L52.8825 69.9684H51.9344ZM53.363 69.9684L58.5111 59.9544H59.5322L54.3841 69.9684H53.363ZM54.8646 69.9684L60.0127 59.9544H60.9608L55.8127 69.9684H54.8646ZM56.2932 69.9684L61.4413 59.9544H62.428L57.2799 69.9684H56.2932ZM57.7732 69.9684L62.9214 59.9544H63.8695L58.7214 69.9684H57.7732ZM59.2018 69.9684L64.35 59.9544H65.371L60.2229 69.9684H59.2018ZM60.6991 69.9684L65.8472 59.9544H66.7953L61.6472 69.9684H60.6991ZM63.3976 69.9684L68.5457 59.9544H69.4981L64.35 69.9684H63.3976ZM64.8262 69.9684L69.9743 59.9544H71.0082L65.8601 69.9684H64.8262ZM66.3234 69.9684L71.4715 59.9544H72.4239L67.2758 69.9684H66.3234ZM67.7563 69.9684L72.9044 59.9544H73.904L68.7344 69.9684H67.7563ZM69.2321 69.9684L74.406 59.9544H75.3541L70.1802 69.9684H69.2321ZM70.6607 69.9684L75.8388 59.9544H76.8599L71.6774 69.9684H70.6607ZM72.1622 69.9684L77.3404 59.9544H78.2928L73.1061 69.9684H72.1622ZM74.8564 69.9684L80.0431 59.9544H80.9955L75.8002 69.9684H74.8564ZM76.285 69.9684L81.476 59.9544H82.4971L77.3146 69.9684H76.285ZM77.7865 69.9684L82.9818 59.9544H83.93L78.7304 69.9684H77.7865ZM79.2151 69.9684L84.4147 59.9544H85.4143L80.2104 69.9684H79.2151ZM80.6909 69.9684L85.8948 59.9544H86.8472L81.6391 69.9684H80.6909ZM82.1195 69.9684L87.3277 59.9544H88.3488L83.1406 69.9684H82.1195ZM83.6211 69.9684L88.8335 59.9544H89.7817L84.5692 69.9684H83.6211ZM86.1951 69.9684L91.4162 59.9544H92.33L87.1089 69.9684H86.1951ZM87.6237 69.9684L92.8491 59.9544H93.8701L88.6448 69.9684H87.6237ZM89.1253 69.9684L94.3549 59.9544H95.303L90.0562 69.9684H89.1253ZM90.5539 69.9684L95.7878 59.9544H96.7874L91.5492 69.9684H90.5539ZM92.0297 69.9684L97.2679 59.9544H98.2203L92.9778 69.9684H92.0297ZM93.4583 69.9684L98.7008 59.9544H99.7218L94.475 69.9684H93.4583ZM94.9598 69.9684L100.207 59.9544H101.155L95.8908 69.9684H94.9598Z"/>
</mask>
<path d="M116.599 45.7527H130.572V49.6197H116.599V45.7527ZM116.599 50.6677H130.572V54.5347H116.599V50.6677ZM116.599 55.4629H130.572V59.3299H116.599V55.4629ZM116.599 60.2539H130.572V64.1208H116.599V60.2539ZM116.633 66.1998C116.633 66.5565 116.704 66.9097 116.841 67.2393C116.978 67.5688 117.178 67.8683 117.431 68.1205C117.684 68.3727 117.985 68.5728 118.315 68.7093C118.646 68.8458 119 68.9161 119.358 68.9161H127.938C128.66 68.9149 129.352 68.6284 129.863 68.1192C130.373 67.6101 130.661 66.9198 130.662 66.1998V65.0491H116.633V66.1998ZM130.735 25.096H130.212V23.6545C130.21 23.4812 130.141 23.3154 130.018 23.1929C129.895 23.0704 129.729 23.0011 129.555 23H117.616C117.442 23.0011 117.276 23.0704 117.153 23.1929C117.03 23.3154 116.961 23.4812 116.959 23.6545V25.096H116.569C116.035 25.0955 115.506 25.1998 115.013 25.4032C114.52 25.6065 114.071 25.9048 113.693 26.281C113.316 26.6572 113.016 27.104 112.812 27.5957C112.607 28.0875 112.502 28.6146 112.502 29.147V68.3001C107.191 60.4164 106.496 60.7971 105.994 61.0538C105.492 61.3104 105.604 61.8494 105.719 62.8418C105.887 64.1279 105.946 65.4257 105.895 66.7216C105.788 69.0273 105.702 71.0207 104.514 71.812C103.937 72.0586 103.316 72.1857 102.688 72.1857C102.061 72.1857 101.44 72.0586 100.863 71.812C100.01 71.5311 99.2132 71.1041 98.5077 70.5501L98.645 70.64L110.533 48.037L110.207 47.1002L96.9804 72.3382H49.3432L49.8451 73.4332H97.1864L98.2031 71.504C98.9675 71.9707 99.7876 72.3401 100.644 72.6034C101.548 72.93 102.507 73.0754 103.467 73.0311C103.995 72.9899 104.503 72.8179 104.947 72.5307C106.47 71.5126 106.569 69.331 106.663 66.8029C106.72 65.4642 106.66 64.1231 106.483 62.7948C106.441 62.4884 106.415 62.18 106.406 61.8708C108.831 64.3368 110.932 67.101 112.656 70.0967C112.893 70.9457 113.402 71.6942 114.106 72.2279C114.809 72.7615 115.668 73.0512 116.552 73.0525H130.709C131.247 73.0565 131.781 72.9538 132.279 72.7504C132.777 72.547 133.23 72.2469 133.611 71.8677C133.991 71.4884 134.293 71.0374 134.497 70.541C134.702 70.0446 134.805 69.5126 134.802 68.976V29.147C134.802 28.6146 134.697 28.0875 134.492 27.5957C134.288 27.104 133.988 26.6572 133.61 26.281C133.233 25.9048 132.784 25.6065 132.291 25.4032C131.798 25.1998 131.269 25.0955 130.735 25.096ZM131.456 66.6789C131.456 67.5025 131.128 68.2924 130.543 68.8748C129.959 69.4572 129.167 69.7844 128.341 69.7844H118.83C118.004 69.7844 117.212 69.4572 116.628 68.8748C116.043 68.2924 115.715 67.5025 115.715 66.6789V30.9906C115.715 30.167 116.043 29.3771 116.628 28.7946C117.212 28.2122 118.004 27.8851 118.83 27.8851H128.341C129.167 27.8851 129.959 28.2122 130.543 28.7946C131.128 29.3771 131.456 30.167 131.456 30.9906V66.6789ZM88.2673 35.4222C88.331 35.4458 88.4015 35.4433 88.4634 35.4153C88.5253 35.3872 88.5735 35.3359 88.5976 35.2725L90.378 30.396C90.3896 30.3643 90.3948 30.3306 90.3933 30.2968C90.3918 30.2631 90.3837 30.23 90.3693 30.1994C90.355 30.1688 90.3347 30.1413 90.3097 30.1185C90.2847 30.0957 90.2554 30.0781 90.2235 30.0666C90.1598 30.0446 90.0899 30.0484 90.0289 30.0772C89.9679 30.106 89.9207 30.1575 89.8975 30.2206L88.1171 35.0971C88.0947 35.1601 88.0979 35.2294 88.126 35.2901C88.154 35.3508 88.2047 35.3982 88.2673 35.4222ZM91.8495 37.2531L95.1915 33.2791C95.2136 33.2534 95.2304 33.2235 95.2409 33.1912C95.2514 33.1589 95.2553 33.1249 95.2525 33.0911C95.2497 33.0573 95.2402 33.0244 95.2246 32.9942C95.209 32.9641 95.1875 32.9374 95.1614 32.9155C95.1089 32.8728 95.0417 32.8524 94.9742 32.8588C94.9067 32.8652 94.8445 32.8979 94.8011 32.9498L91.4548 36.9237C91.4119 36.976 91.3915 37.0431 91.3979 37.1104C91.4043 37.1776 91.4371 37.2397 91.4891 37.283C91.5411 37.3263 91.608 37.3474 91.6755 37.3418C91.7429 37.3362 91.8054 37.3043 91.8495 37.2531ZM93.8744 40.1276C93.9085 40.1855 93.964 40.2278 94.0289 40.2453C94.0939 40.2629 94.1631 40.2545 94.2219 40.2217L98.7308 37.6295C98.7893 37.5948 98.8316 37.5384 98.8484 37.4726C98.8653 37.4069 98.8554 37.3372 98.8209 37.2787C98.7868 37.2208 98.7313 37.1786 98.6664 37.161C98.6014 37.1434 98.5322 37.1519 98.4734 37.1846L93.9688 39.7769C93.9395 39.7937 93.9138 39.8161 93.8932 39.8429C93.8726 39.8696 93.8575 39.9002 93.8487 39.9327C93.8399 39.9653 93.8377 39.9993 93.8421 40.0327C93.8465 40.0662 93.8575 40.0984 93.8744 40.1276ZM95.14 43.6139C95.1515 43.6807 95.1891 43.7403 95.2446 43.7796C95.3001 43.8189 95.3689 43.8347 95.436 43.8235L100.584 42.9209C100.65 42.9084 100.709 42.8705 100.748 42.8153C100.786 42.7601 100.801 42.692 100.79 42.6258C100.784 42.5913 100.772 42.5584 100.753 42.529C100.734 42.4996 100.71 42.4744 100.681 42.4547C100.652 42.4351 100.619 42.4216 100.585 42.415C100.551 42.4083 100.515 42.4087 100.481 42.4162L95.333 43.3102C95.2674 43.3255 95.2104 43.3659 95.1743 43.4227C95.1382 43.4795 95.1259 43.5481 95.14 43.6139ZM68.6272 42.8824L73.7496 43.785C73.8151 43.7933 73.8814 43.7762 73.9346 43.7372C73.9878 43.6982 74.024 43.6402 74.0355 43.5754C74.0471 43.5105 74.0332 43.4437 73.9968 43.3888C73.9603 43.3338 73.9041 43.295 73.8397 43.2802L68.6915 42.3819C68.6564 42.3704 68.6192 42.3666 68.5824 42.3708C68.5456 42.3749 68.5102 42.387 68.4785 42.406C68.4468 42.425 68.4196 42.4507 68.3987 42.4811C68.3779 42.5116 68.3639 42.5462 68.3576 42.5826C68.3514 42.6189 68.3531 42.6562 68.3626 42.6919C68.3721 42.7275 68.3893 42.7607 68.4128 42.7892C68.4364 42.8176 68.4658 42.8407 68.4991 42.8568C68.5324 42.8729 68.5687 42.8816 68.6057 42.8824H68.6272ZM74.9722 40.1918C75.0015 40.2087 75.0339 40.2196 75.0674 40.224C75.101 40.2284 75.135 40.2262 75.1677 40.2174C75.2004 40.2087 75.231 40.1936 75.2578 40.1731C75.2846 40.1525 75.3071 40.1269 75.324 40.0977C75.3569 40.0391 75.3654 39.97 75.3477 39.9052C75.3301 39.8405 75.2877 39.7852 75.2297 39.7512L70.725 37.1547C70.6973 37.1274 70.6637 37.1068 70.6268 37.0943C70.5899 37.0819 70.5506 37.0779 70.512 37.0828C70.4733 37.0877 70.4363 37.1013 70.4036 37.1225C70.371 37.1437 70.3436 37.1721 70.3236 37.2054C70.3035 37.2387 70.2913 37.2761 70.2879 37.3148C70.2845 37.3535 70.2899 37.3925 70.3038 37.4288C70.3176 37.4651 70.3396 37.4978 70.368 37.5244C70.3964 37.551 70.4304 37.5709 70.4676 37.5824L74.9722 40.1918ZM77.3575 37.2274C77.401 37.2792 77.4632 37.3119 77.5307 37.3183C77.5981 37.3247 77.6654 37.3044 77.7179 37.2616C77.7443 37.2395 77.766 37.2122 77.7816 37.1816C77.7972 37.1509 77.8065 37.1174 77.8089 37.0831C77.8113 37.0488 77.8068 37.0143 77.7956 36.9818C77.7844 36.9493 77.7667 36.9193 77.7436 36.8937L74.3974 32.9198C74.3782 32.8881 74.3524 32.8608 74.3217 32.8399C74.291 32.819 74.2562 32.805 74.2195 32.7989C74.1829 32.7927 74.1453 32.7945 74.1094 32.8042C74.0736 32.8139 74.0402 32.8312 74.0117 32.855C73.9832 32.8787 73.9602 32.9084 73.9442 32.9418C73.9283 32.9753 73.9198 33.0118 73.9193 33.0489C73.9189 33.0859 73.9265 33.1226 73.9416 33.1565C73.9567 33.1903 73.979 33.2205 74.007 33.2449L77.3575 37.2274ZM80.9441 35.4137C81.0076 35.3897 81.0591 35.3416 81.0872 35.2799C81.1154 35.2181 81.1179 35.1478 81.0942 35.0843L79.3181 30.2078C79.2948 30.1437 79.2469 30.0915 79.1849 30.0626C79.123 30.0337 79.0521 30.0306 78.9878 30.0538C78.9235 30.0771 78.8711 30.1248 78.8421 30.1866C78.8132 30.2484 78.81 30.3191 78.8333 30.3832L80.6137 35.2597C80.6252 35.2915 80.6429 35.3207 80.6657 35.3456C80.6886 35.3706 80.7161 35.3908 80.7468 35.4051C80.7775 35.4194 80.8107 35.4275 80.8446 35.429C80.8784 35.4305 80.9122 35.4253 80.9441 35.4137ZM84.6078 34.7549C84.6753 34.7549 84.7402 34.7285 84.7883 34.6813C84.8365 34.6341 84.8641 34.5699 84.8652 34.5025V29.3309C84.8652 29.2972 84.8585 29.2638 84.8456 29.2327C84.8327 29.2015 84.8137 29.1732 84.7898 29.1494C84.7659 29.1256 84.7375 29.1067 84.7063 29.0938C84.6751 29.0809 84.6416 29.0742 84.6078 29.0742C84.574 29.0742 84.5405 29.0809 84.5093 29.0938C84.4781 29.1067 84.4497 29.1256 84.4258 29.1494C84.4019 29.1732 84.3829 29.2015 84.37 29.2327C84.3571 29.2638 84.3504 29.2972 84.3504 29.3309V34.5197C84.3558 34.584 84.3853 34.6439 84.433 34.6875C84.4807 34.7311 84.5431 34.7551 84.6078 34.7549ZM69.6525 45.3463C69.6259 45.3446 69.5992 45.3492 69.5746 45.3596C69.5501 45.37 69.5282 45.3859 69.511 45.4062C69.49 45.4239 69.4736 45.4463 69.4632 45.4716C69.4527 45.497 69.4485 45.5244 69.4509 45.5517C69.4509 45.5781 69.4561 45.6042 69.4662 45.6286C69.4764 45.653 69.4912 45.6751 69.5099 45.6938C69.5287 45.7125 69.5509 45.7273 69.5754 45.7374C69.5998 45.7475 69.626 45.7527 69.6525 45.7527H99.5245C99.5789 45.7519 99.6311 45.7305 99.6703 45.6928C99.6907 45.6756 99.7067 45.6538 99.7171 45.6293C99.7275 45.6048 99.7321 45.5782 99.7304 45.5517C99.731 45.5245 99.726 45.4976 99.7159 45.4724C99.7058 45.4472 99.6906 45.4244 99.6714 45.4052C99.6521 45.386 99.6292 45.3709 99.604 45.3608C99.5787 45.3507 99.5517 45.3457 99.5245 45.3463H94.0117C93.8757 42.9461 92.8237 40.6888 91.0714 39.0375C89.3192 37.3862 86.9995 36.4662 84.5885 36.4662C82.1774 36.4662 79.8578 37.3862 78.1056 39.0375C76.3533 40.6888 75.3012 42.9461 75.1653 45.3463H69.6525ZM110.005 46.4157H61.9518L49 71.7564H96.7145L110.005 46.4157ZM107.247 48.3022L101.996 58.3161H101.047L106.29 48.3022H107.247ZM105.805 48.3022L100.563 58.3161H99.5416L104.771 48.3022H105.805ZM104.295 48.3022L99.0568 58.3161H98.1087L103.343 48.3022H104.295ZM102.858 48.3022L97.624 58.3161H96.6201L101.854 48.3022H102.858ZM101.373 48.3022L96.1439 58.3161H95.1915L100.421 48.3022H101.373ZM99.9363 48.3022L94.7067 58.3161H93.6856L98.911 48.3022H99.9363ZM98.4262 48.3022L93.188 58.3161H92.2399L97.4781 48.3022H98.4262ZM95.8521 48.3022L90.6354 58.3161H89.6873L94.904 48.3022H95.8521ZM94.415 48.3022L89.2025 58.3161H88.1814L93.3896 48.3022H94.415ZM92.9048 48.3022L87.6967 58.3161H86.7528L91.961 48.3022H92.9048ZM91.4677 48.3022L86.2638 58.3161H85.2642L90.4638 48.3022H91.4677ZM89.979 48.3022L84.7794 58.3161H83.8313L89.0266 48.3022H89.979ZM88.5418 48.3022L83.3465 58.3161H82.3255L87.5165 48.3022H88.5418ZM87.0317 48.3022L81.8407 58.3161H80.8926L86.0793 48.3022H87.0317ZM84.3247 48.3022L79.1379 58.3161H78.1727L83.3508 48.3022H84.3247ZM82.8832 48.3022L77.705 58.3161H76.684L81.8578 48.3022H82.8832ZM81.3731 48.3022L76.1992 58.3161H75.2468L80.4207 48.3022H81.3731ZM79.9359 48.3022L74.7878 58.3161H73.7667L78.9363 48.3022H79.9359ZM78.4515 48.3022L73.3034 58.3161H72.3338L77.4819 48.3022H78.4515ZM77.0143 48.3022L71.8662 58.3161H70.828L75.9761 48.3022H77.0143ZM75.5042 48.3022L70.3561 58.3161H69.3951L74.5432 48.3022H75.5042ZM72.7929 48.3022L67.6448 58.3161H66.6924L71.8405 48.3022H72.7929ZM71.3557 48.3022L66.2076 58.3161H65.1865L70.3346 48.3022H71.3557ZM69.8456 48.3022L64.6975 58.3161H63.7536L68.9018 48.3022H69.8456ZM68.4084 48.3022L63.2603 58.3161H62.2693L67.4174 48.3022H68.4084ZM66.9197 48.3022L61.7716 58.3161H60.8364L65.9845 48.3022H66.9197ZM65.4825 48.3022L60.3344 58.3161H59.3306L64.4443 48.3022H65.4825ZM63.02 48.3022H63.9724L58.8672 58.3161H57.8977L63.02 48.3022ZM51.9344 69.9684L57.0611 59.9544H58.0092L52.8825 69.9684H51.9344ZM53.363 69.9684L58.5111 59.9544H59.5322L54.3841 69.9684H53.363ZM54.8646 69.9684L60.0127 59.9544H60.9608L55.8127 69.9684H54.8646ZM56.2932 69.9684L61.4413 59.9544H62.428L57.2799 69.9684H56.2932ZM57.7732 69.9684L62.9214 59.9544H63.8695L58.7214 69.9684H57.7732ZM59.2018 69.9684L64.35 59.9544H65.371L60.2229 69.9684H59.2018ZM60.6991 69.9684L65.8472 59.9544H66.7953L61.6472 69.9684H60.6991ZM63.3976 69.9684L68.5457 59.9544H69.4981L64.35 69.9684H63.3976ZM64.8262 69.9684L69.9743 59.9544H71.0082L65.8601 69.9684H64.8262ZM66.3234 69.9684L71.4715 59.9544H72.4239L67.2758 69.9684H66.3234ZM67.7563 69.9684L72.9044 59.9544H73.904L68.7344 69.9684H67.7563ZM69.2321 69.9684L74.406 59.9544H75.3541L70.1802 69.9684H69.2321ZM70.6607 69.9684L75.8388 59.9544H76.8599L71.6774 69.9684H70.6607ZM72.1622 69.9684L77.3404 59.9544H78.2928L73.1061 69.9684H72.1622ZM74.8564 69.9684L80.0431 59.9544H80.9955L75.8002 69.9684H74.8564ZM76.285 69.9684L81.476 59.9544H82.4971L77.3146 69.9684H76.285ZM77.7865 69.9684L82.9818 59.9544H83.93L78.7304 69.9684H77.7865ZM79.2151 69.9684L84.4147 59.9544H85.4143L80.2104 69.9684H79.2151ZM80.6909 69.9684L85.8948 59.9544H86.8472L81.6391 69.9684H80.6909ZM82.1195 69.9684L87.3277 59.9544H88.3488L83.1406 69.9684H82.1195ZM83.6211 69.9684L88.8335 59.9544H89.7817L84.5692 69.9684H83.6211ZM86.1951 69.9684L91.4162 59.9544H92.33L87.1089 69.9684H86.1951ZM87.6237 69.9684L92.8491 59.9544H93.8701L88.6448 69.9684H87.6237ZM89.1253 69.9684L94.3549 59.9544H95.303L90.0562 69.9684H89.1253ZM90.5539 69.9684L95.7878 59.9544H96.7874L91.5492 69.9684H90.5539ZM92.0297 69.9684L97.2679 59.9544H98.2203L92.9778 69.9684H92.0297ZM93.4583 69.9684L98.7008 59.9544H99.7218L94.475 69.9684H93.4583ZM94.9598 69.9684L100.207 59.9544H101.155L95.8908 69.9684H94.9598Z" stroke="white" stroke-width="2" mask="url(#path-6-inside-2_621_3020)"/>
<path d="M19.2088 21.4422H17.6459C15.4147 21.4422 14.2981 21.4422 13.4422 22.1313C12.5864 22.8204 12.1972 24.0336 11.4127 26.464L9.75003 31.622C8.21771 36.3693 7.45359 38.7441 8.44593 40.409C9.43827 42.074 11.6206 42.074 15.9812 42.074H36.7C41.0606 42.074 43.2409 42.074 44.2332 40.409C45.2255 38.7441 44.4594 36.3693 42.9291 31.6199L41.2664 26.462C40.4819 24.0336 40.0907 22.8204 39.2369 22.1293C38.3811 21.4422 37.2665 21.4422 35.0352 21.4422H32.4535M26.3406 26.6002V42.074V48.2636M42.6418 31.7581H10.0394M26.3406 48.2636H30.4159M26.3406 48.2636H22.2653M27.3594 7L22.2653 14.2211H30.4159L25.3218 21.4422" stroke="white" stroke-linecap="round" stroke-linejoin="round"/>
<path d="M368.817 180.536H378.634C381.237 180.536 383.734 181.57 385.575 183.411C387.415 185.252 388.45 187.749 388.45 190.352C388.45 192.956 387.415 195.452 385.575 197.293C383.734 199.134 381.237 200.168 378.634 200.168H368.817V180.536Z" stroke="white" stroke-linejoin="round"/>
<path d="M368.816 177.264V203.441M359 185.75H363.908H366.362H368.816M359 193.625H368.816M388.448 190.353H401.537C402.404 190.353 403.237 190.008 403.85 189.394C404.464 188.781 404.809 187.948 404.809 187.081V169.084M404.809 138V149.452M389.886 144.346L396.828 151.288M389.886 172.554L396.828 165.614M419.731 144.346L412.791 151.288M419.731 172.554L412.792 165.616" stroke="white" stroke-linecap="round" stroke-linejoin="round"/>
<path d="M404.81 169.084C410.232 169.084 414.626 164.69 414.626 159.268C414.626 153.847 410.232 149.452 404.81 149.452C399.389 149.452 394.994 153.847 394.994 159.268C394.994 164.69 399.389 169.084 404.81 169.084Z" stroke="white"/>
<path d="M385.177 159.269H394.993M414.625 159.269H424.441" stroke="white" stroke-linecap="round" stroke-linejoin="round"/>
<path d="M423.273 29.4375H423.274C425.385 29.4375 427.491 29.1754 429.5 28.6225V-0.5H399.974C399.41 1.48071 399.11 3.52329 399.074 5.56605C399.114 18.784 409.943 29.4742 423.273 29.4375ZM354.855 40.75L372.5 72.0926V51.5V51H373H383.545L365.9 19.6574V40.25V40.75H365.4H354.855ZM393.59 -0.196738L381.73 5.63876L393.59 11.5072V-0.196738ZM393.762 34.6189L406.268 30.5053L398.098 22.4096L393.762 34.6189ZM417.325 34.9375L423.273 46.6437L429.187 34.9375H417.325Z" stroke="white"/>
<mask id="path-13-outside-3_621_3020" maskUnits="userSpaceOnUse" x="285" y="71" width="86" height="87" fill="black">
<rect fill="white" x="285" y="71" width="86" height="87"/>
<path fill-rule="evenodd" clip-rule="evenodd" d="M291.961 109.051C290.447 113.56 290.399 121.185 291.465 126.034C292.694 131.615 295.377 136.946 298.982 141.047L304.143 122.306C304.232 121.987 304.381 121.674 304.619 121.443C304.883 121.185 305.216 121.022 305.637 121.022H316.936H329.037H342.917C343.304 121.022 343.61 121.158 343.861 121.382C343.888 121.403 343.915 121.423 343.935 121.45C344.166 121.681 344.316 121.993 344.404 122.313L349.117 139.418C350.658 137.265 351.969 134.848 352.994 132.159C353.972 129.599 354.658 127.012 355.038 124.445C355.798 119.352 355.398 110.653 355.398 105.554C349.918 104.895 347.65 102.26 347.65 96.8889V93.8536H346.672C345.973 93.8536 345.402 93.29 345.402 92.5905V91.1238C345.402 90.4244 345.973 89.854 346.672 89.854H350.529V82.0925C350.529 80.9924 351.425 80.0893 352.532 80.0893C353.632 80.0893 354.529 80.9856 354.529 82.0925V89.854H360.409V82.0925C360.409 80.9924 361.299 80.0893 362.412 80.0893C363.512 80.0893 364.416 80.9856 364.416 82.0925V89.854H368.164C368.863 89.854 369.434 90.4244 369.434 91.1238V92.5905C369.434 93.29 368.863 93.8536 368.164 93.8536H367.383V96.5834C367.383 101.785 365.054 104.983 359.635 105.499C359.635 110.748 359.941 119.528 359.207 124.703C358.793 127.677 358.012 130.678 356.885 133.632C355.106 138.291 352.553 142.249 349.463 145.495C344.465 150.744 338.055 154.119 331.217 155.532C324.392 156.937 317.14 156.394 310.411 153.82C305.902 152.089 301.617 149.454 297.862 145.882C292.783 141.061 288.973 134.162 287.378 126.91C286.101 121.083 286.244 112.392 288.287 106.925L288.26 106.864C279.548 84.9377 298.045 81.2504 309.385 73C318.716 96.1284 309.182 107.19 291.961 109.051ZM306.988 117.389C306.337 117.389 305.8 116.853 305.8 116.208C305.8 115.556 306.337 115.02 306.988 115.02H310.017C310.669 115.02 311.205 115.556 311.205 116.201C311.205 116.853 310.669 117.389 310.017 117.389H306.988ZM308.835 108.63C308.265 108.297 308.082 107.591 308.394 107.02C308.727 106.45 309.433 106.267 310.003 106.579L312.638 108.093C313.209 108.426 313.392 109.132 313.08 109.703C312.747 110.273 312.041 110.456 311.47 110.144L308.835 108.63ZM324.257 105.866C327.177 105.866 329.825 107.054 331.733 108.962C333.641 110.871 334.829 113.526 334.829 116.439C334.829 117.315 334.721 118.17 334.524 118.985H313.996C313.793 118.17 313.691 117.315 313.691 116.439C313.691 113.519 314.879 110.871 316.787 108.962C318.716 107.054 321.357 105.866 324.257 105.866ZM338.768 107C339.338 106.667 340.058 106.857 340.391 107.428C340.71 107.998 340.52 108.718 339.949 109.037L337.315 110.551C336.744 110.884 336.025 110.694 335.705 110.124C335.373 109.553 335.563 108.833 336.133 108.514L338.768 107ZM341.559 115.508C342.211 115.508 342.747 116.045 342.747 116.697C342.747 117.349 342.211 117.885 341.559 117.885H338.53C337.878 117.885 337.342 117.349 337.342 116.697C337.342 116.045 337.878 115.508 338.53 115.508H341.559ZM314.831 101.968C314.499 101.398 314.689 100.678 315.239 100.359C315.809 100.026 316.529 100.216 316.848 100.787L318.362 103.421C318.695 103.992 318.505 104.712 317.935 105.031C317.364 105.363 316.645 105.173 316.325 104.603L314.831 101.968ZM323.34 99.1773C323.34 98.5254 323.863 97.989 324.528 97.989C325.18 97.989 325.717 98.5254 325.717 99.1773V102.206C325.717 102.858 325.18 103.387 324.528 103.387C323.876 103.387 323.34 102.851 323.34 102.206V99.1773ZM332.106 101.018C332.439 100.447 333.145 100.264 333.716 100.576C334.286 100.909 334.476 101.615 334.157 102.186L332.643 104.82C332.31 105.391 331.604 105.574 331.034 105.262C330.463 104.929 330.28 104.223 330.592 103.652L332.106 101.018ZM303.403 145.162C306.051 147.206 308.917 148.795 311.905 149.943C312.156 150.038 312.414 150.133 312.672 150.221H322.362V145.162H303.403ZM334.809 150.221C338.021 149.06 341.043 147.369 343.732 145.162H326.185V150.221H334.809Z"/>
</mask>
<path fill-rule="evenodd" clip-rule="evenodd" d="M291.961 109.051C290.447 113.56 290.399 121.185 291.465 126.034C292.694 131.615 295.377 136.946 298.982 141.047L304.143 122.306C304.232 121.987 304.381 121.674 304.619 121.443C304.883 121.185 305.216 121.022 305.637 121.022H316.936H329.037H342.917C343.304 121.022 343.61 121.158 343.861 121.382C343.888 121.403 343.915 121.423 343.935 121.45C344.166 121.681 344.316 121.993 344.404 122.313L349.117 139.418C350.658 137.265 351.969 134.848 352.994 132.159C353.972 129.599 354.658 127.012 355.038 124.445C355.798 119.352 355.398 110.653 355.398 105.554C349.918 104.895 347.65 102.26 347.65 96.8889V93.8536H346.672C345.973 93.8536 345.402 93.29 345.402 92.5905V91.1238C345.402 90.4244 345.973 89.854 346.672 89.854H350.529V82.0925C350.529 80.9924 351.425 80.0893 352.532 80.0893C353.632 80.0893 354.529 80.9856 354.529 82.0925V89.854H360.409V82.0925C360.409 80.9924 361.299 80.0893 362.412 80.0893C363.512 80.0893 364.416 80.9856 364.416 82.0925V89.854H368.164C368.863 89.854 369.434 90.4244 369.434 91.1238V92.5905C369.434 93.29 368.863 93.8536 368.164 93.8536H367.383V96.5834C367.383 101.785 365.054 104.983 359.635 105.499C359.635 110.748 359.941 119.528 359.207 124.703C358.793 127.677 358.012 130.678 356.885 133.632C355.106 138.291 352.553 142.249 349.463 145.495C344.465 150.744 338.055 154.119 331.217 155.532C324.392 156.937 317.14 156.394 310.411 153.82C305.902 152.089 301.617 149.454 297.862 145.882C292.783 141.061 288.973 134.162 287.378 126.91C286.101 121.083 286.244 112.392 288.287 106.925L288.26 106.864C279.548 84.9377 298.045 81.2504 309.385 73C318.716 96.1284 309.182 107.19 291.961 109.051ZM306.988 117.389C306.337 117.389 305.8 116.853 305.8 116.208C305.8 115.556 306.337 115.02 306.988 115.02H310.017C310.669 115.02 311.205 115.556 311.205 116.201C311.205 116.853 310.669 117.389 310.017 117.389H306.988ZM308.835 108.63C308.265 108.297 308.082 107.591 308.394 107.02C308.727 106.45 309.433 106.267 310.003 106.579L312.638 108.093C313.209 108.426 313.392 109.132 313.08 109.703C312.747 110.273 312.041 110.456 311.47 110.144L308.835 108.63ZM324.257 105.866C327.177 105.866 329.825 107.054 331.733 108.962C333.641 110.871 334.829 113.526 334.829 116.439C334.829 117.315 334.721 118.17 334.524 118.985H313.996C313.793 118.17 313.691 117.315 313.691 116.439C313.691 113.519 314.879 110.871 316.787 108.962C318.716 107.054 321.357 105.866 324.257 105.866ZM338.768 107C339.338 106.667 340.058 106.857 340.391 107.428C340.71 107.998 340.52 108.718 339.949 109.037L337.315 110.551C336.744 110.884 336.025 110.694 335.705 110.124C335.373 109.553 335.563 108.833 336.133 108.514L338.768 107ZM341.559 115.508C342.211 115.508 342.747 116.045 342.747 116.697C342.747 117.349 342.211 117.885 341.559 117.885H338.53C337.878 117.885 337.342 117.349 337.342 116.697C337.342 116.045 337.878 115.508 338.53 115.508H341.559ZM314.831 101.968C314.499 101.398 314.689 100.678 315.239 100.359C315.809 100.026 316.529 100.216 316.848 100.787L318.362 103.421C318.695 103.992 318.505 104.712 317.935 105.031C317.364 105.363 316.645 105.173 316.325 104.603L314.831 101.968ZM323.34 99.1773C323.34 98.5254 323.863 97.989 324.528 97.989C325.18 97.989 325.717 98.5254 325.717 99.1773V102.206C325.717 102.858 325.18 103.387 324.528 103.387C323.876 103.387 323.34 102.851 323.34 102.206V99.1773ZM332.106 101.018C332.439 100.447 333.145 100.264 333.716 100.576C334.286 100.909 334.476 101.615 334.157 102.186L332.643 104.82C332.31 105.391 331.604 105.574 331.034 105.262C330.463 104.929 330.28 104.223 330.592 103.652L332.106 101.018ZM303.403 145.162C306.051 147.206 308.917 148.795 311.905 149.943C312.156 150.038 312.414 150.133 312.672 150.221H322.362V145.162H303.403ZM334.809 150.221C338.021 149.06 341.043 147.369 343.732 145.162H326.185V150.221H334.809Z" stroke="white" stroke-width="2" mask="url(#path-13-outside-3_621_3020)"/>
<path d="M291.96 103.479L291.915 103.792L292.178 103.967L292.218 103.994L292.593 104.244L292.881 103.897C294.932 101.421 296.683 99.4927 298.197 97.825C298.318 97.6916 298.437 97.5599 298.555 97.4297C300.146 95.6755 301.48 94.1858 302.607 92.6229C304.883 89.4696 306.299 86.0506 307.465 79.567L306.516 79.276C305.689 81.1424 304.476 82.9378 303.08 84.752C302.266 85.8089 301.409 86.8495 300.534 87.911C299.894 88.6876 299.245 89.4754 298.597 90.289C295.567 94.0938 292.714 98.2805 291.96 103.479Z" stroke="white"/>
<path d="M319.413 132.161H318.977L318.918 132.593L318.517 135.513L318.44 136.081H319.013H328.458H329.011L328.956 135.531L328.664 132.611L328.619 132.161H328.166H319.413ZM328.961 121.826H328.409L328.463 122.375L328.837 126.151L328.881 126.602H329.334H336.376H336.976L336.868 126.011L336.175 122.236L336.1 121.826H335.683H328.961ZM337.517 121.826H336.917L337.025 122.416L337.718 126.192L337.793 126.602H338.21H343.71H344.365L344.192 125.97L343.16 122.194L343.059 121.826H342.678H337.517ZM344.688 127.782L344.587 127.415H344.206H338.536H337.937L338.044 128.004L338.573 130.924L338.648 131.335H339.065H345.007H345.663L345.489 130.702L344.688 127.782ZM345.998 132.528L345.897 132.161H345.516H339.405H338.804L338.913 132.752L339.449 135.672L339.525 136.081H339.941H346.324H346.981L346.806 135.448L345.998 132.528ZM347.309 137.261L347.208 136.894H346.827H340.274H339.674L339.782 137.484L340.78 142.93L340.855 143.34H341.272H348.327H348.984L348.809 142.707L347.309 137.261ZM339.432 143.34H340.032L339.924 142.75L338.925 137.304L338.85 136.894H338.434H330.455H329.903L329.957 137.443L330.494 142.889L330.538 143.34H330.991H339.432ZM329.171 143.34H329.724L329.669 142.791L329.126 137.345L329.081 136.894H328.628H318.768H318.332L318.273 137.326L317.526 142.772L317.448 143.34H318.021H329.171ZM316.195 143.34H316.631L316.69 142.908L317.437 137.462L317.515 136.894H316.942H309.404H309.007L308.917 137.281L307.654 142.727L307.512 143.34H308.141H316.195ZM306.281 143.34H306.678L306.768 142.953L308.031 137.507L308.173 136.894H307.544H301.717H301.337L301.235 137.261L299.735 142.707L299.56 143.34H300.217H306.281ZM301.738 135.442L301.564 136.074H302.22H307.972H308.369L308.459 135.687L309.131 132.767L309.272 132.154H308.644H303.021H302.64L302.539 132.522L301.738 135.442ZM303.048 130.696L302.875 131.328H303.531H309.065H309.462L309.552 130.941L310.231 128.021L310.373 127.408H309.744H304.332H303.951L303.85 127.776L303.048 130.696ZM304.352 125.962L304.178 126.595H304.834H310.172H310.569L310.659 126.208L311.535 122.432L311.677 121.819H311.048H305.873H305.492L305.391 122.187L304.352 125.962ZM312.908 121.826H312.511L312.421 122.213L311.545 125.989L311.403 126.602H312.032H318.483H318.92L318.979 126.169L319.495 122.394L319.572 121.826H318.999H312.908ZM320.812 121.826H320.312V122.326L320.312 122.345L320.31 122.359L319.801 126.033L319.722 126.602H320.296H327.508H328.06L328.005 126.052L327.632 122.277L327.587 121.826H327.134H320.812ZM320.312 122.352C320.312 122.352 320.312 122.352 320.312 122.352V122.352ZM329.511 127.415H328.96L329.013 127.963L329.299 130.883L329.343 131.335H329.796H337.232H337.832L337.723 130.744L337.187 127.824L337.112 127.415H336.695H329.511ZM311.604 127.415H311.207L311.117 127.801L310.438 130.721L310.296 131.335H310.925H317.831H318.268L318.327 130.901L318.721 127.982L318.797 127.415H318.225H311.604ZM320.059 127.415H319.623L319.563 127.847L319.163 130.767L319.085 131.335H319.658H327.983H328.536L328.481 130.785L328.189 127.865L328.144 127.415H327.691H320.059ZM329.979 132.161H329.427L329.482 132.711L329.774 135.631L329.819 136.081H330.271H338.101H338.701L338.593 135.491L338.056 132.571L337.981 132.161H337.564H329.979ZM310.504 132.161H310.106L310.017 132.549L309.345 135.469L309.204 136.081H309.832H317.193H317.63L317.689 135.648L318.082 132.728L318.159 132.161H317.587H310.504Z" stroke="white"/>
<path d="M376.083 258.6V275.85C376.083 282.357 376.083 285.607 378.069 287.628C379.665 289.257 382.048 289.574 386.25 289.636M426.917 258.6V275.85C426.917 282.357 426.917 285.607 424.931 287.628C423.335 289.257 420.952 289.574 416.75 289.636M404.889 272.4L396.098 282.981C395.024 284.396 394.488 285.106 394.82 285.655C395.153 286.2 396.118 286.2 398.053 286.2H404.947C406.878 286.2 407.847 286.2 408.18 286.745C408.512 287.294 407.976 288.001 406.902 289.419L398.057 300M394.722 231L391.333 258.6M408.278 231L411.667 258.6M374.389 244.8H428.611M374.273 244.103L376.317 239.27C378.015 235.257 378.862 233.249 380.526 232.128C382.19 231 384.308 231 388.544 231H414.456C418.692 231 420.81 231 422.474 232.125C424.135 233.249 424.985 235.257 426.683 239.266L428.727 244.103C431.495 250.644 432.878 253.915 431.397 256.257C429.916 258.6 426.463 258.6 419.556 258.6H383.44C376.537 258.6 373.084 258.6 371.603 256.257C370.122 253.915 371.505 250.644 374.273 244.103Z" stroke="white" stroke-linecap="round" stroke-linejoin="round"/>
</g>
<defs>
<linearGradient id="paint0_linear_621_3020" x1="48.2974" y1="290.69" x2="-172.975" y2="0.64497" gradientUnits="userSpaceOnUse">
<stop stop-color="#15A135"/>
<stop offset="1" stop-color="#DEB343"/>
</linearGradient>
<linearGradient id="paint1_linear_621_3020" x1="384.033" y1="290.69" x2="605.305" y2="0.64497" gradientUnits="userSpaceOnUse">
<stop stop-color="#15A135"/>
<stop offset="1" stop-color="#DEB343"/>
</linearGradient>
<clipPath id="clip0_621_3020">
<rect width="430" height="300" fill="white"/>
</clipPath>
</defs>
</svg>
