<svg width="1600" height="300" viewBox="0 0 1600 300" fill="none" xmlns="http://www.w3.org/2000/svg">
<g clip-path="url(#clip0_350_5499)">
<rect width="1600" height="300" rx="5" fill="#15A135"/>
<path d="M188.589 343.246C307.449 252.569 330.296 82.7042 239.619 -36.1564C148.941 -155.017 -20.9232 -177.864 -139.784 -87.1863C-258.644 3.4913 -281.491 173.356 -190.814 292.216C-100.136 411.077 69.7282 433.924 188.589 343.246Z" fill="url(#paint0_linear_350_5499)"/>
<path d="M1412.22 343.246C1293.36 252.569 1270.51 82.7042 1361.19 -36.1564C1451.86 -155.017 1621.73 -177.864 1740.59 -87.1863C1859.45 3.4913 1882.3 173.356 1791.62 292.216C1700.94 411.077 1531.08 433.924 1412.22 343.246Z" fill="url(#paint1_linear_350_5499)"/>
<mask id="path-4-outside-1_350_5499" maskUnits="userSpaceOnUse" x="-19" y="158" width="148" height="143" fill="black">
<rect fill="white" x="-19" y="158" width="148" height="143"/>
<path d="M-7.38421 221.519C-7.38421 220.461 -6.96467 219.445 -6.21788 218.697C-5.4711 217.949 -4.45824 217.528 -3.40212 217.528H7.21679C8.2729 217.528 9.28576 217.949 10.0326 218.697C10.7793 219.445 11.1989 220.461 11.1989 221.519C11.1989 222.577 10.7793 223.592 10.0326 224.341C9.28576 225.089 8.2729 225.509 7.21679 225.509H-3.40212C-4.45824 225.509 -5.4711 225.089 -6.21788 224.341C-6.96467 223.592 -7.38421 222.577 -7.38421 221.519ZM18.3932 190.479C18.7616 190.855 19.2007 191.154 19.6849 191.358C20.1692 191.563 20.6892 191.67 21.2149 191.672C21.7405 191.675 22.2614 191.573 22.7476 191.373C23.2338 191.172 23.6756 190.878 24.0475 190.505C24.4194 190.133 24.7141 189.691 24.9145 189.204C25.115 188.717 25.2173 188.195 25.2154 187.668C25.2136 187.141 25.1077 186.62 24.9039 186.134C24.7001 185.649 24.4023 185.209 24.0278 184.839L16.5083 177.31C15.749 176.635 14.7614 176.277 13.7471 176.307C12.7328 176.338 11.7683 176.755 11.0508 177.474C10.3332 178.193 9.91671 179.16 9.88626 180.176C9.85581 181.193 10.2137 182.182 10.8869 182.943L18.3932 190.479ZM55.0019 177.623C56.058 177.623 57.0709 177.202 57.8176 176.454C58.5644 175.705 58.984 174.69 58.984 173.632V162.991C58.984 161.932 58.5644 160.917 57.8176 160.169C57.0709 159.42 56.058 159 55.0019 159C53.9458 159 52.9329 159.42 52.1861 160.169C51.4393 160.917 51.0198 161.932 51.0198 162.991V173.632C51.0198 174.69 51.4393 175.705 52.1861 176.454C52.9329 177.202 53.9458 177.623 55.0019 177.623ZM88.7899 191.649C89.3138 191.65 89.8326 191.547 90.3166 191.346C90.8006 191.145 91.2403 190.85 91.6106 190.479L99.1168 182.943C99.79 182.182 100.148 181.193 100.117 180.176C100.087 179.16 99.6705 178.193 98.953 177.474C98.2354 176.755 97.271 176.338 96.2567 176.307C95.2424 176.277 94.2547 176.635 93.4954 177.31L85.9759 184.839C85.4197 185.397 85.041 186.108 84.8876 186.881C84.7343 187.655 84.8131 188.457 85.1142 189.186C85.4154 189.914 85.9252 190.537 86.5794 190.976C87.2336 191.414 88.0028 191.649 88.7899 191.649ZM98.8049 221.519C98.8049 222.577 99.2244 223.592 99.9712 224.341C100.718 225.089 101.731 225.509 102.787 225.509H113.406C114.462 225.509 115.475 225.089 116.222 224.341C116.968 223.592 117.388 222.577 117.388 221.519C117.388 220.461 116.968 219.445 116.222 218.697C115.475 217.949 114.462 217.528 113.406 217.528H102.787C101.731 217.528 100.718 217.949 99.9712 218.697C99.2244 219.445 98.8049 220.461 98.8049 221.519ZM28.4546 225.509C29.5107 225.509 30.5236 225.089 31.2704 224.341C32.0172 223.592 32.4367 222.577 32.4367 221.519C32.4367 215.521 34.8141 209.77 39.0459 205.529C43.2777 201.288 49.0172 198.906 55.0019 198.906C60.9865 198.906 66.7261 201.288 70.9579 205.529C75.1897 209.77 77.5671 215.521 77.5671 221.519C77.5671 222.577 77.9866 223.592 78.7334 224.341C79.4802 225.089 80.493 225.509 81.5491 225.509C82.6053 225.509 83.6181 225.089 84.3649 224.341C85.1117 223.592 85.5312 222.577 85.5312 221.519C85.5312 213.405 82.3148 205.623 76.5894 199.885C70.864 194.148 63.0988 190.925 55.0019 190.925C46.905 190.925 39.1397 194.148 33.4144 199.885C27.689 205.623 24.4725 213.405 24.4725 221.519C24.4725 222.577 24.8921 223.592 25.6388 224.341C26.3856 225.089 27.3985 225.509 28.4546 225.509ZM127.463 298.005C127.114 298.61 126.613 299.113 126.01 299.463C125.406 299.813 124.722 299.998 124.025 300H-14.021C-14.7165 299.999 -15.3998 299.816 -16.0027 299.469C-16.6057 299.122 -17.1073 298.622 -17.4577 298.02C-17.8081 297.418 -17.995 296.734 -17.9999 296.037C-18.0048 295.34 -17.8274 294.654 -17.4854 294.047L9.51976 246.161C9.86692 245.544 10.3713 245.032 10.9813 244.675C11.5912 244.319 12.2847 244.131 12.9908 244.132H97.0129C97.719 244.131 98.4126 244.319 99.0225 244.675C99.6324 245.032 100.137 245.544 100.484 246.161L127.489 294.047C127.829 294.652 128.005 295.336 128 296.03C127.995 296.724 127.81 297.404 127.463 298.005ZM94.69 252.113H76.107L78.994 265.415H102.223L94.69 252.113ZM70.8373 265.415L67.9503 252.113H42.0667L39.1797 265.415H70.8373ZM37.4342 273.396L33.3924 292.019H76.6114L72.5695 273.396H37.4342ZM7.80746 265.415H31.0363L33.9233 252.113H15.3403L7.80746 265.415ZM-7.19838 292.019H25.2424L29.2842 273.396H3.3077L-7.19838 292.019ZM117.202 292.019L106.696 273.396H80.7195L84.7614 292.019H117.202Z"/>
</mask>
<path d="M-7.38421 221.519C-7.38421 220.461 -6.96467 219.445 -6.21788 218.697C-5.4711 217.949 -4.45824 217.528 -3.40212 217.528H7.21679C8.2729 217.528 9.28576 217.949 10.0326 218.697C10.7793 219.445 11.1989 220.461 11.1989 221.519C11.1989 222.577 10.7793 223.592 10.0326 224.341C9.28576 225.089 8.2729 225.509 7.21679 225.509H-3.40212C-4.45824 225.509 -5.4711 225.089 -6.21788 224.341C-6.96467 223.592 -7.38421 222.577 -7.38421 221.519ZM18.3932 190.479C18.7616 190.855 19.2007 191.154 19.6849 191.358C20.1692 191.563 20.6892 191.67 21.2149 191.672C21.7405 191.675 22.2614 191.573 22.7476 191.373C23.2338 191.172 23.6756 190.878 24.0475 190.505C24.4194 190.133 24.7141 189.691 24.9145 189.204C25.115 188.717 25.2173 188.195 25.2154 187.668C25.2136 187.141 25.1077 186.62 24.9039 186.134C24.7001 185.649 24.4023 185.209 24.0278 184.839L16.5083 177.31C15.749 176.635 14.7614 176.277 13.7471 176.307C12.7328 176.338 11.7683 176.755 11.0508 177.474C10.3332 178.193 9.91671 179.16 9.88626 180.176C9.85581 181.193 10.2137 182.182 10.8869 182.943L18.3932 190.479ZM55.0019 177.623C56.058 177.623 57.0709 177.202 57.8176 176.454C58.5644 175.705 58.984 174.69 58.984 173.632V162.991C58.984 161.932 58.5644 160.917 57.8176 160.169C57.0709 159.42 56.058 159 55.0019 159C53.9458 159 52.9329 159.42 52.1861 160.169C51.4393 160.917 51.0198 161.932 51.0198 162.991V173.632C51.0198 174.69 51.4393 175.705 52.1861 176.454C52.9329 177.202 53.9458 177.623 55.0019 177.623ZM88.7899 191.649C89.3138 191.65 89.8326 191.547 90.3166 191.346C90.8006 191.145 91.2403 190.85 91.6106 190.479L99.1168 182.943C99.79 182.182 100.148 181.193 100.117 180.176C100.087 179.16 99.6705 178.193 98.953 177.474C98.2354 176.755 97.271 176.338 96.2567 176.307C95.2424 176.277 94.2547 176.635 93.4954 177.31L85.9759 184.839C85.4197 185.397 85.041 186.108 84.8876 186.881C84.7343 187.655 84.8131 188.457 85.1142 189.186C85.4154 189.914 85.9252 190.537 86.5794 190.976C87.2336 191.414 88.0028 191.649 88.7899 191.649ZM98.8049 221.519C98.8049 222.577 99.2244 223.592 99.9712 224.341C100.718 225.089 101.731 225.509 102.787 225.509H113.406C114.462 225.509 115.475 225.089 116.222 224.341C116.968 223.592 117.388 222.577 117.388 221.519C117.388 220.461 116.968 219.445 116.222 218.697C115.475 217.949 114.462 217.528 113.406 217.528H102.787C101.731 217.528 100.718 217.949 99.9712 218.697C99.2244 219.445 98.8049 220.461 98.8049 221.519ZM28.4546 225.509C29.5107 225.509 30.5236 225.089 31.2704 224.341C32.0172 223.592 32.4367 222.577 32.4367 221.519C32.4367 215.521 34.8141 209.77 39.0459 205.529C43.2777 201.288 49.0172 198.906 55.0019 198.906C60.9865 198.906 66.7261 201.288 70.9579 205.529C75.1897 209.77 77.5671 215.521 77.5671 221.519C77.5671 222.577 77.9866 223.592 78.7334 224.341C79.4802 225.089 80.493 225.509 81.5491 225.509C82.6053 225.509 83.6181 225.089 84.3649 224.341C85.1117 223.592 85.5312 222.577 85.5312 221.519C85.5312 213.405 82.3148 205.623 76.5894 199.885C70.864 194.148 63.0988 190.925 55.0019 190.925C46.905 190.925 39.1397 194.148 33.4144 199.885C27.689 205.623 24.4725 213.405 24.4725 221.519C24.4725 222.577 24.8921 223.592 25.6388 224.341C26.3856 225.089 27.3985 225.509 28.4546 225.509ZM127.463 298.005C127.114 298.61 126.613 299.113 126.01 299.463C125.406 299.813 124.722 299.998 124.025 300H-14.021C-14.7165 299.999 -15.3998 299.816 -16.0027 299.469C-16.6057 299.122 -17.1073 298.622 -17.4577 298.02C-17.8081 297.418 -17.995 296.734 -17.9999 296.037C-18.0048 295.34 -17.8274 294.654 -17.4854 294.047L9.51976 246.161C9.86692 245.544 10.3713 245.032 10.9813 244.675C11.5912 244.319 12.2847 244.131 12.9908 244.132H97.0129C97.719 244.131 98.4126 244.319 99.0225 244.675C99.6324 245.032 100.137 245.544 100.484 246.161L127.489 294.047C127.829 294.652 128.005 295.336 128 296.03C127.995 296.724 127.81 297.404 127.463 298.005ZM94.69 252.113H76.107L78.994 265.415H102.223L94.69 252.113ZM70.8373 265.415L67.9503 252.113H42.0667L39.1797 265.415H70.8373ZM37.4342 273.396L33.3924 292.019H76.6114L72.5695 273.396H37.4342ZM7.80746 265.415H31.0363L33.9233 252.113H15.3403L7.80746 265.415ZM-7.19838 292.019H25.2424L29.2842 273.396H3.3077L-7.19838 292.019ZM117.202 292.019L106.696 273.396H80.7195L84.7614 292.019H117.202Z" stroke="white" stroke-width="2" mask="url(#path-4-outside-1_350_5499)"/>
<path d="M1426.85 183.35H1441.7C1445.64 183.35 1449.42 184.915 1452.2 187.7C1454.99 190.484 1456.55 194.262 1456.55 198.2C1456.55 202.139 1454.99 205.916 1452.2 208.701C1449.42 211.486 1445.64 213.05 1441.7 213.05H1426.85V183.35Z" stroke="white" stroke-linejoin="round"/>
<path d="M1426.85 178.4V218M1412 191.237H1419.43H1423.14H1426.85M1412 203.15H1426.85M1456.55 198.2H1476.35C1477.66 198.2 1478.92 197.679 1479.85 196.75C1480.78 195.822 1481.3 194.563 1481.3 193.25V166.025M1481.3 119V136.325M1458.73 128.601L1469.23 139.102M1458.73 171.275L1469.23 160.776M1503.87 128.601L1493.38 139.102M1503.87 171.275L1493.38 160.778" stroke="white" stroke-linecap="round" stroke-linejoin="round"/>
<path d="M1481.3 166.025C1489.5 166.025 1496.15 159.377 1496.15 151.175C1496.15 142.974 1489.5 136.325 1481.3 136.325C1473.1 136.325 1466.45 142.974 1466.45 151.175C1466.45 159.377 1473.1 166.025 1481.3 166.025Z" stroke="white"/>
<path d="M1451.6 151.175H1466.45M1496.15 151.175H1511" stroke="white" stroke-linecap="round" stroke-linejoin="round"/>
<path d="M166.83 118.533L150.623 85.9014C150.488 85.6304 150.281 85.4025 150.025 85.2432C149.769 85.084 149.473 84.9998 149.172 85H90.8276C90.5265 84.9998 90.2313 85.084 89.9751 85.2432C89.7189 85.4025 89.5118 85.6304 89.3771 85.9014L73.1702 118.533C73.0579 118.76 72.9996 119.01 73 119.263V142.105C73 143.403 73.5123 144.648 74.4241 145.566C75.3359 146.484 76.5726 147 77.8621 147H162.138C163.427 147 164.664 146.484 165.576 145.566C166.488 144.648 167 143.403 167 142.105V119.263C167 119.01 166.942 118.76 166.83 118.533ZM108.035 117.632L101.553 104.579H117.379L123.861 117.632H108.035ZM109.275 88.2632L115.758 101.316H99.9318L93.4491 88.2632H109.275ZM128.723 88.2632L135.206 101.316H119.38L112.897 88.2632H128.723ZM127.484 117.632L121.001 104.579H136.827L143.31 117.632H127.484ZM146.932 117.632L140.449 104.579H156.275L162.758 117.632H146.932ZM154.654 101.316H138.828L132.346 88.2632H148.172L154.654 101.316ZM76.2414 142.105V119.647L90.8276 90.2782L105.414 119.647V143.737H77.8621C77.4322 143.737 77.02 143.565 76.7161 143.259C76.4121 142.953 76.2414 142.538 76.2414 142.105ZM162.138 143.737H108.655V120.895H163.759V142.105C163.759 142.538 163.588 142.953 163.284 143.259C162.98 143.565 162.568 143.737 162.138 143.737Z" stroke="white"/>
<path d="M1589.91 46.525H1589.91C1593.16 46.525 1596.41 46.1076 1599.5 45.2251V0.5H1554.77C1553.89 3.59233 1553.42 6.78534 1553.36 9.9786C1553.42 30.2228 1569.78 46.5812 1589.91 46.525ZM1486.85 63.2L1514 112.07V79.8V79.3H1514.5H1530.75L1503.6 30.4296V62.7V63.2H1503.1H1486.85ZM1545.64 0.807998L1527.02 10.0903L1545.64 19.425V0.807998ZM1545.23 54.5503L1564.88 48.0029L1552.04 35.1177L1545.23 54.5503ZM1580.58 54.365L1589.91 72.982L1599.19 54.365H1580.58Z" stroke="white"/>
<mask id="path-11-inside-2_350_5499" fill="white">
<path d="M289.208 47.7382H310.542V53.6422H289.208V47.7382ZM289.208 55.2422H310.542V61.1462H289.208V55.2422ZM289.208 62.5634H310.542V68.4674H289.208V62.5634ZM289.208 69.8781H310.542V75.7821H289.208V69.8781ZM289.261 78.9561C289.261 79.5008 289.368 80.04 289.577 80.5432C289.786 81.0463 290.093 81.5035 290.479 81.8886C290.865 82.2737 291.324 82.5792 291.828 82.7876C292.333 82.996 292.874 83.1033 293.42 83.1033H306.52C307.622 83.1016 308.679 82.6641 309.459 81.8867C310.239 81.1094 310.677 80.0555 310.679 78.9561V77.1993H289.261V78.9561ZM310.79 16.2002H309.991V13.9992C309.99 13.7348 309.884 13.4816 309.696 13.2946C309.508 13.1075 309.254 13.0017 308.989 13H290.761C290.495 13.0017 290.241 13.1075 290.054 13.2946C289.866 13.4816 289.76 13.7348 289.758 13.9992V16.2002H289.162C288.347 16.1993 287.54 16.3587 286.787 16.6691C286.033 16.9795 285.349 17.4349 284.772 18.0093C284.195 18.5837 283.738 19.2658 283.426 20.0166C283.114 20.7675 282.953 21.5722 282.953 22.385V82.1628C274.844 70.1263 273.783 70.7075 273.017 71.0994C272.25 71.4913 272.421 72.3142 272.597 73.8293C272.854 75.7928 272.943 77.7744 272.866 79.7529C272.702 83.2731 272.571 86.3165 270.757 87.5248C269.876 87.9012 268.928 88.0953 267.97 88.0953C267.012 88.0953 266.064 87.9012 265.183 87.5248C263.881 87.0959 262.664 86.4439 261.587 85.5981L261.797 85.7353L279.947 51.2257L279.449 49.7954L259.255 88.3281H186.524L187.29 90H259.57L261.122 87.0545C262.289 87.7671 263.541 88.331 264.849 88.733C266.228 89.2317 267.693 89.4537 269.159 89.3861C269.964 89.3231 270.741 89.0604 271.418 88.622C273.744 87.0676 273.894 83.7368 274.038 79.877C274.125 77.8331 274.033 75.7855 273.763 73.7575C273.699 73.2897 273.659 72.8188 273.645 72.3468C277.349 76.1117 280.556 80.3321 283.189 84.9058C283.55 86.2021 284.327 87.3448 285.401 88.1596C286.475 88.9745 287.787 89.4166 289.136 89.4187H310.751C311.573 89.4248 312.388 89.268 313.148 88.9575C313.909 88.6469 314.6 88.1888 315.181 87.6097C315.762 87.0306 316.222 86.3421 316.535 85.5842C316.847 84.8263 317.005 84.0141 317 83.1947V22.385C317 21.5722 316.839 20.7675 316.527 20.0166C316.215 19.2658 315.757 18.5837 315.181 18.0093C314.604 17.4349 313.92 16.9795 313.166 16.6691C312.413 16.3587 311.606 16.1993 310.79 16.2002ZM311.891 79.6876C311.891 80.9451 311.39 82.1511 310.498 83.0403C309.606 83.9295 308.397 84.4291 307.136 84.4291H292.614C291.353 84.4291 290.144 83.9295 289.252 83.0403C288.36 82.1511 287.859 80.9451 287.859 79.6876V25.1998C287.859 23.9423 288.36 22.7363 289.252 21.8471C290.144 20.9579 291.353 20.4584 292.614 20.4584H307.136C308.397 20.4584 309.606 20.9579 310.498 21.8471C311.39 22.7363 311.891 23.9423 311.891 25.1998V79.6876ZM245.952 31.9659C246.049 32.0019 246.157 31.9981 246.252 31.9553C246.346 31.9125 246.42 31.8341 246.456 31.7373L249.175 24.292C249.192 24.2436 249.2 24.1921 249.198 24.1406C249.196 24.0891 249.183 24.0385 249.162 23.9918C249.14 23.9451 249.109 23.9031 249.07 23.8683C249.032 23.8336 248.988 23.8066 248.939 23.7891C248.842 23.7555 248.735 23.7612 248.642 23.8052C248.549 23.8492 248.477 23.9278 248.441 24.0243L245.723 31.4695C245.689 31.5658 245.694 31.6714 245.736 31.7641C245.779 31.8568 245.857 31.9292 245.952 31.9659ZM251.421 34.7612L256.524 28.6939C256.558 28.6546 256.583 28.6089 256.599 28.5596C256.615 28.5104 256.621 28.4584 256.617 28.4068C256.613 28.3552 256.598 28.3049 256.574 28.2589C256.551 28.2129 256.518 28.1721 256.478 28.1388C256.398 28.0735 256.295 28.0424 256.192 28.0522C256.089 28.0619 255.994 28.1118 255.928 28.191L250.819 34.2583C250.753 34.3382 250.722 34.4406 250.732 34.5433C250.742 34.646 250.792 34.7407 250.871 34.8069C250.95 34.8729 251.053 34.9051 251.156 34.8966C251.259 34.888 251.354 34.8394 251.421 34.7612ZM254.513 39.15C254.565 39.2383 254.65 39.3028 254.749 39.3297C254.848 39.3565 254.954 39.3436 255.043 39.2936L261.928 35.3359C262.017 35.2829 262.081 35.1968 262.107 35.0964C262.133 34.9961 262.118 34.8896 262.065 34.8003C262.013 34.712 261.928 34.6475 261.829 34.6206C261.73 34.5937 261.624 34.6067 261.535 34.6567L254.657 38.6144C254.612 38.6401 254.573 38.6744 254.542 38.7152C254.51 38.756 254.487 38.8027 254.474 38.8524C254.46 38.9021 254.457 38.954 254.464 39.0051C254.47 39.0561 254.487 39.1054 254.513 39.15ZM256.445 44.4727C256.463 44.5748 256.52 44.6657 256.605 44.7257C256.69 44.7856 256.795 44.8097 256.897 44.7927L264.757 43.4147C264.858 43.3956 264.948 43.3377 265.007 43.2534C265.065 43.1691 265.089 43.0652 265.072 42.964C265.063 42.9115 265.044 42.8613 265.015 42.8164C264.986 42.7715 264.949 42.7329 264.905 42.7029C264.861 42.673 264.811 42.6523 264.758 42.6422C264.706 42.6321 264.652 42.6327 264.6 42.644L256.74 44.009C256.64 44.0324 256.553 44.094 256.498 44.1808C256.442 44.2675 256.424 44.3723 256.445 44.4727ZM215.966 43.3559L223.787 44.7339C223.887 44.7466 223.988 44.7205 224.069 44.6609C224.151 44.6014 224.206 44.5129 224.224 44.4139C224.241 44.3148 224.22 44.2128 224.164 44.129C224.109 44.0451 224.023 43.9858 223.924 43.9633L216.064 42.5918C216.011 42.5742 215.954 42.5684 215.898 42.5748C215.842 42.5811 215.788 42.5994 215.739 42.6285C215.691 42.6576 215.649 42.6967 215.617 42.7432C215.586 42.7898 215.564 42.8426 215.555 42.8981C215.545 42.9536 215.548 43.0105 215.562 43.065C215.577 43.1194 215.603 43.1701 215.639 43.2135C215.675 43.257 215.72 43.2922 215.771 43.3167C215.821 43.3413 215.877 43.3547 215.933 43.3559H215.966ZM225.654 39.2479C225.698 39.2737 225.748 39.2904 225.799 39.2971C225.85 39.3038 225.902 39.3004 225.952 39.2871C226.002 39.2737 226.049 39.2507 226.09 39.2193C226.131 39.188 226.165 39.1489 226.191 39.1042C226.241 39.0148 226.254 38.9093 226.227 38.8104C226.2 38.7115 226.135 38.6271 226.047 38.5752L219.169 34.6109C219.127 34.5693 219.076 34.5378 219.019 34.5188C218.963 34.4998 218.903 34.4938 218.844 34.5012C218.785 34.5087 218.728 34.5294 218.678 34.5618C218.629 34.5942 218.587 34.6375 218.556 34.6884C218.526 34.7392 218.507 34.7964 218.502 34.8554C218.497 34.9145 218.505 34.974 218.526 35.0295C218.547 35.0849 218.581 35.1348 218.624 35.1754C218.667 35.2161 218.719 35.2464 218.776 35.264L225.654 39.2479ZM229.295 34.722C229.362 34.8011 229.457 34.851 229.56 34.8608C229.663 34.8706 229.766 34.8395 229.846 34.7742C229.886 34.7404 229.919 34.6988 229.943 34.652C229.967 34.6052 229.981 34.5541 229.985 34.5017C229.988 34.4493 229.981 34.3967 229.964 34.347C229.947 34.2973 229.92 34.2516 229.885 34.2125L224.776 28.1453C224.747 28.0968 224.707 28.0552 224.66 28.0233C224.614 27.9914 224.56 27.9701 224.504 27.9606C224.448 27.9512 224.391 27.954 224.336 27.9688C224.282 27.9836 224.231 28.01 224.187 28.0463C224.144 28.0826 224.108 28.1278 224.084 28.1789C224.06 28.23 224.047 28.2857 224.046 28.3423C224.045 28.3989 224.057 28.4549 224.08 28.5066C224.103 28.5583 224.137 28.6043 224.18 28.6416L229.295 34.722ZM234.771 31.9528C234.868 31.9162 234.947 31.8427 234.99 31.7485C235.033 31.6543 235.037 31.547 235.001 31.45L232.289 24.0047C232.253 23.9068 232.18 23.827 232.085 23.783C231.991 23.7389 231.883 23.734 231.784 23.7695C231.686 23.8051 231.606 23.878 231.562 23.9723C231.518 24.0666 231.513 24.1746 231.549 24.2724L234.267 31.7177C234.284 31.7662 234.311 31.8108 234.346 31.8489C234.381 31.887 234.423 31.9178 234.47 31.9397C234.517 31.9615 234.568 31.9739 234.619 31.9762C234.671 31.9785 234.723 31.9705 234.771 31.9528ZM240.365 30.9471C240.468 30.9471 240.567 30.9067 240.641 30.8346C240.714 30.7625 240.756 30.6645 240.758 30.5617V22.6658C240.758 22.6144 240.748 22.5634 240.728 22.5159C240.708 22.4683 240.679 22.4251 240.643 22.3887C240.606 22.3523 240.563 22.3235 240.515 22.3038C240.468 22.2841 240.417 22.274 240.365 22.274C240.313 22.274 240.262 22.2841 240.215 22.3038C240.167 22.3235 240.124 22.3523 240.087 22.3887C240.051 22.4251 240.022 22.4683 240.002 22.5159C239.982 22.5634 239.972 22.6144 239.972 22.6658V30.5879C239.98 30.686 240.025 30.7775 240.098 30.8441C240.171 30.9106 240.266 30.9474 240.365 30.9471ZM217.532 47.1177C217.491 47.1151 217.45 47.1221 217.413 47.1379C217.375 47.1538 217.342 47.1782 217.316 47.2092C217.284 47.2362 217.259 47.2704 217.243 47.3091C217.227 47.3477 217.22 47.3896 217.224 47.4312C217.224 47.4715 217.232 47.5114 217.247 47.5487C217.263 47.5859 217.285 47.6198 217.314 47.6483C217.343 47.6768 217.377 47.6994 217.414 47.7148C217.451 47.7302 217.491 47.7382 217.532 47.7382H263.139C263.222 47.737 263.302 47.7043 263.362 47.6467C263.393 47.6204 263.417 47.5872 263.433 47.5498C263.449 47.5124 263.456 47.4718 263.454 47.4312C263.455 47.3898 263.447 47.3486 263.432 47.3102C263.416 47.2718 263.393 47.2368 263.364 47.2076C263.334 47.1783 263.299 47.1552 263.261 47.1398C263.222 47.1243 263.181 47.1168 263.139 47.1177H254.723C254.515 43.4531 252.909 40.0067 250.233 37.4856C247.558 34.9644 244.017 33.5598 240.335 33.5598C236.654 33.5598 233.113 34.9644 230.438 37.4856C227.762 40.0067 226.156 43.4531 225.948 47.1177H217.532ZM279.141 48.7505H205.774L186 87.4399H258.849L279.141 48.7505ZM274.929 51.6306L266.912 66.9196H265.465L273.469 51.6306H274.929ZM272.728 51.6306L264.724 66.9196H263.165L271.15 51.6306H272.728ZM270.423 51.6306L262.425 66.9196H260.978L268.969 51.6306H270.423ZM268.229 51.6306L260.238 66.9196H258.705L266.696 51.6306H268.229ZM265.962 51.6306L257.978 66.9196H256.524L264.508 51.6306H265.962ZM263.768 51.6306L255.784 66.9196H254.225L262.203 51.6306H263.768ZM261.462 51.6306L253.465 66.9196H252.017L260.015 51.6306H261.462ZM257.532 51.6306L249.568 66.9196H248.12L256.085 51.6306H257.532ZM255.338 51.6306L247.38 66.9196H245.821L253.773 51.6306H255.338ZM253.033 51.6306L245.081 66.9196H243.64L251.592 51.6306H253.033ZM250.838 51.6306L242.893 66.9196H241.367L249.306 51.6306H250.838ZM248.566 51.6306L240.627 66.9196H239.179L247.111 51.6306H248.566ZM246.371 51.6306L238.439 66.9196H236.88L244.806 51.6306H246.371ZM244.066 51.6306L236.14 66.9196H234.693L242.612 51.6306H244.066ZM239.933 51.6306L232.014 66.9196H230.54L238.446 51.6306H239.933ZM237.732 51.6306L229.826 66.9196H228.267L236.166 51.6306H237.732ZM235.426 51.6306L227.527 66.9196H226.073L233.972 51.6306H235.426ZM233.232 51.6306L225.372 66.9196H223.813L231.706 51.6306H233.232ZM230.966 51.6306L223.106 66.9196H221.625L229.485 51.6306H230.966ZM228.771 51.6306L220.911 66.9196H219.326L227.186 51.6306H228.771ZM226.466 51.6306L218.606 66.9196H217.139L224.999 51.6306H226.466ZM222.326 51.6306L214.466 66.9196H213.012L220.872 51.6306H222.326ZM220.132 51.6306L212.272 66.9196H210.713L218.573 51.6306H220.132ZM217.826 51.6306L209.966 66.9196H208.525L216.385 51.6306H217.826ZM215.632 51.6306L207.772 66.9196H206.259L214.119 51.6306H215.632ZM213.359 51.6306L205.499 66.9196H204.071L211.931 51.6306H213.359ZM211.165 51.6306L203.305 66.9196H201.772L209.58 51.6306H211.165ZM207.405 51.6306H208.859L201.065 66.9196H199.585L207.405 51.6306ZM190.48 84.7099L198.307 69.4209H199.755L191.928 84.7099H190.48ZM192.661 84.7099L200.521 69.4209H202.08L194.22 84.7099H192.661ZM194.954 84.7099L202.814 69.4209H204.261L196.401 84.7099H194.954ZM197.135 84.7099L204.995 69.4209H206.501L198.641 84.7099H197.135ZM199.395 84.7099L207.255 69.4209H208.702L200.842 84.7099H199.395ZM201.576 84.7099L209.436 69.4209H210.995L203.135 84.7099H201.576ZM203.862 84.7099L211.722 69.4209H213.169L205.309 84.7099H203.862ZM207.982 84.7099L215.842 69.4209H217.296L209.436 84.7099H207.982ZM210.163 84.7099L218.023 69.4209H219.601L211.741 84.7099H210.163ZM212.449 84.7099L220.309 69.4209H221.763L213.903 84.7099H212.449ZM214.637 84.7099L222.497 69.4209H224.023L216.13 84.7099H214.637ZM216.89 84.7099L224.789 69.4209H226.237L218.337 84.7099H216.89ZM219.071 84.7099L226.977 69.4209H228.536L220.623 84.7099H219.071ZM221.363 84.7099L229.269 69.4209H230.723L222.804 84.7099H221.363ZM225.477 84.7099L233.396 69.4209H234.85L226.918 84.7099H225.477ZM227.658 84.7099L235.583 69.4209H237.142L229.23 84.7099H227.658ZM229.95 84.7099L237.882 69.4209H239.33L231.391 84.7099H229.95ZM232.132 84.7099L240.07 69.4209H241.596L233.651 84.7099H232.132ZM234.385 84.7099L242.33 69.4209H243.784L235.832 84.7099H234.385ZM236.566 84.7099L244.518 69.4209H246.077L238.125 84.7099H236.566ZM238.858 84.7099L246.817 69.4209H248.264L240.306 84.7099H238.858ZM242.788 84.7099L250.76 69.4209H252.155L244.184 84.7099H242.788ZM244.97 84.7099L252.947 69.4209H254.506L246.528 84.7099H244.97ZM247.262 84.7099L255.247 69.4209H256.694L248.683 84.7099H247.262ZM249.443 84.7099L257.434 69.4209H258.96L250.963 84.7099H249.443ZM251.696 84.7099L259.694 69.4209H261.148L253.144 84.7099H251.696ZM253.878 84.7099L261.882 69.4209H263.441L255.43 84.7099H253.878ZM256.17 84.7099L264.181 69.4209H265.628L257.591 84.7099H256.17Z"/>
</mask>
<path d="M289.208 47.7382H310.542V53.6422H289.208V47.7382ZM289.208 55.2422H310.542V61.1462H289.208V55.2422ZM289.208 62.5634H310.542V68.4674H289.208V62.5634ZM289.208 69.8781H310.542V75.7821H289.208V69.8781ZM289.261 78.9561C289.261 79.5008 289.368 80.04 289.577 80.5432C289.786 81.0463 290.093 81.5035 290.479 81.8886C290.865 82.2737 291.324 82.5792 291.828 82.7876C292.333 82.996 292.874 83.1033 293.42 83.1033H306.52C307.622 83.1016 308.679 82.6641 309.459 81.8867C310.239 81.1094 310.677 80.0555 310.679 78.9561V77.1993H289.261V78.9561ZM310.79 16.2002H309.991V13.9992C309.99 13.7348 309.884 13.4816 309.696 13.2946C309.508 13.1075 309.254 13.0017 308.989 13H290.761C290.495 13.0017 290.241 13.1075 290.054 13.2946C289.866 13.4816 289.76 13.7348 289.758 13.9992V16.2002H289.162C288.347 16.1993 287.54 16.3587 286.787 16.6691C286.033 16.9795 285.349 17.4349 284.772 18.0093C284.195 18.5837 283.738 19.2658 283.426 20.0166C283.114 20.7675 282.953 21.5722 282.953 22.385V82.1628C274.844 70.1263 273.783 70.7075 273.017 71.0994C272.25 71.4913 272.421 72.3142 272.597 73.8293C272.854 75.7928 272.943 77.7744 272.866 79.7529C272.702 83.2731 272.571 86.3165 270.757 87.5248C269.876 87.9012 268.928 88.0953 267.97 88.0953C267.012 88.0953 266.064 87.9012 265.183 87.5248C263.881 87.0959 262.664 86.4439 261.587 85.5981L261.797 85.7353L279.947 51.2257L279.449 49.7954L259.255 88.3281H186.524L187.29 90H259.57L261.122 87.0545C262.289 87.7671 263.541 88.331 264.849 88.733C266.228 89.2317 267.693 89.4537 269.159 89.3861C269.964 89.3231 270.741 89.0604 271.418 88.622C273.744 87.0676 273.894 83.7368 274.038 79.877C274.125 77.8331 274.033 75.7855 273.763 73.7575C273.699 73.2897 273.659 72.8188 273.645 72.3468C277.349 76.1117 280.556 80.3321 283.189 84.9058C283.55 86.2021 284.327 87.3448 285.401 88.1596C286.475 88.9745 287.787 89.4166 289.136 89.4187H310.751C311.573 89.4248 312.388 89.268 313.148 88.9575C313.909 88.6469 314.6 88.1888 315.181 87.6097C315.762 87.0306 316.222 86.3421 316.535 85.5842C316.847 84.8263 317.005 84.0141 317 83.1947V22.385C317 21.5722 316.839 20.7675 316.527 20.0166C316.215 19.2658 315.757 18.5837 315.181 18.0093C314.604 17.4349 313.92 16.9795 313.166 16.6691C312.413 16.3587 311.606 16.1993 310.79 16.2002ZM311.891 79.6876C311.891 80.9451 311.39 82.1511 310.498 83.0403C309.606 83.9295 308.397 84.4291 307.136 84.4291H292.614C291.353 84.4291 290.144 83.9295 289.252 83.0403C288.36 82.1511 287.859 80.9451 287.859 79.6876V25.1998C287.859 23.9423 288.36 22.7363 289.252 21.8471C290.144 20.9579 291.353 20.4584 292.614 20.4584H307.136C308.397 20.4584 309.606 20.9579 310.498 21.8471C311.39 22.7363 311.891 23.9423 311.891 25.1998V79.6876ZM245.952 31.9659C246.049 32.0019 246.157 31.9981 246.252 31.9553C246.346 31.9125 246.42 31.8341 246.456 31.7373L249.175 24.292C249.192 24.2436 249.2 24.1921 249.198 24.1406C249.196 24.0891 249.183 24.0385 249.162 23.9918C249.14 23.9451 249.109 23.9031 249.07 23.8683C249.032 23.8336 248.988 23.8066 248.939 23.7891C248.842 23.7555 248.735 23.7612 248.642 23.8052C248.549 23.8492 248.477 23.9278 248.441 24.0243L245.723 31.4695C245.689 31.5658 245.694 31.6714 245.736 31.7641C245.779 31.8568 245.857 31.9292 245.952 31.9659ZM251.421 34.7612L256.524 28.6939C256.558 28.6546 256.583 28.6089 256.599 28.5596C256.615 28.5104 256.621 28.4584 256.617 28.4068C256.613 28.3552 256.598 28.3049 256.574 28.2589C256.551 28.2129 256.518 28.1721 256.478 28.1388C256.398 28.0735 256.295 28.0424 256.192 28.0522C256.089 28.0619 255.994 28.1118 255.928 28.191L250.819 34.2583C250.753 34.3382 250.722 34.4406 250.732 34.5433C250.742 34.646 250.792 34.7407 250.871 34.8069C250.95 34.8729 251.053 34.9051 251.156 34.8966C251.259 34.888 251.354 34.8394 251.421 34.7612ZM254.513 39.15C254.565 39.2383 254.65 39.3028 254.749 39.3297C254.848 39.3565 254.954 39.3436 255.043 39.2936L261.928 35.3359C262.017 35.2829 262.081 35.1968 262.107 35.0964C262.133 34.9961 262.118 34.8896 262.065 34.8003C262.013 34.712 261.928 34.6475 261.829 34.6206C261.73 34.5937 261.624 34.6067 261.535 34.6567L254.657 38.6144C254.612 38.6401 254.573 38.6744 254.542 38.7152C254.51 38.756 254.487 38.8027 254.474 38.8524C254.46 38.9021 254.457 38.954 254.464 39.0051C254.47 39.0561 254.487 39.1054 254.513 39.15ZM256.445 44.4727C256.463 44.5748 256.52 44.6657 256.605 44.7257C256.69 44.7856 256.795 44.8097 256.897 44.7927L264.757 43.4147C264.858 43.3956 264.948 43.3377 265.007 43.2534C265.065 43.1691 265.089 43.0652 265.072 42.964C265.063 42.9115 265.044 42.8613 265.015 42.8164C264.986 42.7715 264.949 42.7329 264.905 42.7029C264.861 42.673 264.811 42.6523 264.758 42.6422C264.706 42.6321 264.652 42.6327 264.6 42.644L256.74 44.009C256.64 44.0324 256.553 44.094 256.498 44.1808C256.442 44.2675 256.424 44.3723 256.445 44.4727ZM215.966 43.3559L223.787 44.7339C223.887 44.7466 223.988 44.7205 224.069 44.6609C224.151 44.6014 224.206 44.5129 224.224 44.4139C224.241 44.3148 224.22 44.2128 224.164 44.129C224.109 44.0451 224.023 43.9858 223.924 43.9633L216.064 42.5918C216.011 42.5742 215.954 42.5684 215.898 42.5748C215.842 42.5811 215.788 42.5994 215.739 42.6285C215.691 42.6576 215.649 42.6967 215.617 42.7432C215.586 42.7898 215.564 42.8426 215.555 42.8981C215.545 42.9536 215.548 43.0105 215.562 43.065C215.577 43.1194 215.603 43.1701 215.639 43.2135C215.675 43.257 215.72 43.2922 215.771 43.3167C215.821 43.3413 215.877 43.3547 215.933 43.3559H215.966ZM225.654 39.2479C225.698 39.2737 225.748 39.2904 225.799 39.2971C225.85 39.3038 225.902 39.3004 225.952 39.2871C226.002 39.2737 226.049 39.2507 226.09 39.2193C226.131 39.188 226.165 39.1489 226.191 39.1042C226.241 39.0148 226.254 38.9093 226.227 38.8104C226.2 38.7115 226.135 38.6271 226.047 38.5752L219.169 34.6109C219.127 34.5693 219.076 34.5378 219.019 34.5188C218.963 34.4998 218.903 34.4938 218.844 34.5012C218.785 34.5087 218.728 34.5294 218.678 34.5618C218.629 34.5942 218.587 34.6375 218.556 34.6884C218.526 34.7392 218.507 34.7964 218.502 34.8554C218.497 34.9145 218.505 34.974 218.526 35.0295C218.547 35.0849 218.581 35.1348 218.624 35.1754C218.667 35.2161 218.719 35.2464 218.776 35.264L225.654 39.2479ZM229.295 34.722C229.362 34.8011 229.457 34.851 229.56 34.8608C229.663 34.8706 229.766 34.8395 229.846 34.7742C229.886 34.7404 229.919 34.6988 229.943 34.652C229.967 34.6052 229.981 34.5541 229.985 34.5017C229.988 34.4493 229.981 34.3967 229.964 34.347C229.947 34.2973 229.92 34.2516 229.885 34.2125L224.776 28.1453C224.747 28.0968 224.707 28.0552 224.66 28.0233C224.614 27.9914 224.56 27.9701 224.504 27.9606C224.448 27.9512 224.391 27.954 224.336 27.9688C224.282 27.9836 224.231 28.01 224.187 28.0463C224.144 28.0826 224.108 28.1278 224.084 28.1789C224.06 28.23 224.047 28.2857 224.046 28.3423C224.045 28.3989 224.057 28.4549 224.08 28.5066C224.103 28.5583 224.137 28.6043 224.18 28.6416L229.295 34.722ZM234.771 31.9528C234.868 31.9162 234.947 31.8427 234.99 31.7485C235.033 31.6543 235.037 31.547 235.001 31.45L232.289 24.0047C232.253 23.9068 232.18 23.827 232.085 23.783C231.991 23.7389 231.883 23.734 231.784 23.7695C231.686 23.8051 231.606 23.878 231.562 23.9723C231.518 24.0666 231.513 24.1746 231.549 24.2724L234.267 31.7177C234.284 31.7662 234.311 31.8108 234.346 31.8489C234.381 31.887 234.423 31.9178 234.47 31.9397C234.517 31.9615 234.568 31.9739 234.619 31.9762C234.671 31.9785 234.723 31.9705 234.771 31.9528ZM240.365 30.9471C240.468 30.9471 240.567 30.9067 240.641 30.8346C240.714 30.7625 240.756 30.6645 240.758 30.5617V22.6658C240.758 22.6144 240.748 22.5634 240.728 22.5159C240.708 22.4683 240.679 22.4251 240.643 22.3887C240.606 22.3523 240.563 22.3235 240.515 22.3038C240.468 22.2841 240.417 22.274 240.365 22.274C240.313 22.274 240.262 22.2841 240.215 22.3038C240.167 22.3235 240.124 22.3523 240.087 22.3887C240.051 22.4251 240.022 22.4683 240.002 22.5159C239.982 22.5634 239.972 22.6144 239.972 22.6658V30.5879C239.98 30.686 240.025 30.7775 240.098 30.8441C240.171 30.9106 240.266 30.9474 240.365 30.9471ZM217.532 47.1177C217.491 47.1151 217.45 47.1221 217.413 47.1379C217.375 47.1538 217.342 47.1782 217.316 47.2092C217.284 47.2362 217.259 47.2704 217.243 47.3091C217.227 47.3477 217.22 47.3896 217.224 47.4312C217.224 47.4715 217.232 47.5114 217.247 47.5487C217.263 47.5859 217.285 47.6198 217.314 47.6483C217.343 47.6768 217.377 47.6994 217.414 47.7148C217.451 47.7302 217.491 47.7382 217.532 47.7382H263.139C263.222 47.737 263.302 47.7043 263.362 47.6467C263.393 47.6204 263.417 47.5872 263.433 47.5498C263.449 47.5124 263.456 47.4718 263.454 47.4312C263.455 47.3898 263.447 47.3486 263.432 47.3102C263.416 47.2718 263.393 47.2368 263.364 47.2076C263.334 47.1783 263.299 47.1552 263.261 47.1398C263.222 47.1243 263.181 47.1168 263.139 47.1177H254.723C254.515 43.4531 252.909 40.0067 250.233 37.4856C247.558 34.9644 244.017 33.5598 240.335 33.5598C236.654 33.5598 233.113 34.9644 230.438 37.4856C227.762 40.0067 226.156 43.4531 225.948 47.1177H217.532ZM279.141 48.7505H205.774L186 87.4399H258.849L279.141 48.7505ZM274.929 51.6306L266.912 66.9196H265.465L273.469 51.6306H274.929ZM272.728 51.6306L264.724 66.9196H263.165L271.15 51.6306H272.728ZM270.423 51.6306L262.425 66.9196H260.978L268.969 51.6306H270.423ZM268.229 51.6306L260.238 66.9196H258.705L266.696 51.6306H268.229ZM265.962 51.6306L257.978 66.9196H256.524L264.508 51.6306H265.962ZM263.768 51.6306L255.784 66.9196H254.225L262.203 51.6306H263.768ZM261.462 51.6306L253.465 66.9196H252.017L260.015 51.6306H261.462ZM257.532 51.6306L249.568 66.9196H248.12L256.085 51.6306H257.532ZM255.338 51.6306L247.38 66.9196H245.821L253.773 51.6306H255.338ZM253.033 51.6306L245.081 66.9196H243.64L251.592 51.6306H253.033ZM250.838 51.6306L242.893 66.9196H241.367L249.306 51.6306H250.838ZM248.566 51.6306L240.627 66.9196H239.179L247.111 51.6306H248.566ZM246.371 51.6306L238.439 66.9196H236.88L244.806 51.6306H246.371ZM244.066 51.6306L236.14 66.9196H234.693L242.612 51.6306H244.066ZM239.933 51.6306L232.014 66.9196H230.54L238.446 51.6306H239.933ZM237.732 51.6306L229.826 66.9196H228.267L236.166 51.6306H237.732ZM235.426 51.6306L227.527 66.9196H226.073L233.972 51.6306H235.426ZM233.232 51.6306L225.372 66.9196H223.813L231.706 51.6306H233.232ZM230.966 51.6306L223.106 66.9196H221.625L229.485 51.6306H230.966ZM228.771 51.6306L220.911 66.9196H219.326L227.186 51.6306H228.771ZM226.466 51.6306L218.606 66.9196H217.139L224.999 51.6306H226.466ZM222.326 51.6306L214.466 66.9196H213.012L220.872 51.6306H222.326ZM220.132 51.6306L212.272 66.9196H210.713L218.573 51.6306H220.132ZM217.826 51.6306L209.966 66.9196H208.525L216.385 51.6306H217.826ZM215.632 51.6306L207.772 66.9196H206.259L214.119 51.6306H215.632ZM213.359 51.6306L205.499 66.9196H204.071L211.931 51.6306H213.359ZM211.165 51.6306L203.305 66.9196H201.772L209.58 51.6306H211.165ZM207.405 51.6306H208.859L201.065 66.9196H199.585L207.405 51.6306ZM190.48 84.7099L198.307 69.4209H199.755L191.928 84.7099H190.48ZM192.661 84.7099L200.521 69.4209H202.08L194.22 84.7099H192.661ZM194.954 84.7099L202.814 69.4209H204.261L196.401 84.7099H194.954ZM197.135 84.7099L204.995 69.4209H206.501L198.641 84.7099H197.135ZM199.395 84.7099L207.255 69.4209H208.702L200.842 84.7099H199.395ZM201.576 84.7099L209.436 69.4209H210.995L203.135 84.7099H201.576ZM203.862 84.7099L211.722 69.4209H213.169L205.309 84.7099H203.862ZM207.982 84.7099L215.842 69.4209H217.296L209.436 84.7099H207.982ZM210.163 84.7099L218.023 69.4209H219.601L211.741 84.7099H210.163ZM212.449 84.7099L220.309 69.4209H221.763L213.903 84.7099H212.449ZM214.637 84.7099L222.497 69.4209H224.023L216.13 84.7099H214.637ZM216.89 84.7099L224.789 69.4209H226.237L218.337 84.7099H216.89ZM219.071 84.7099L226.977 69.4209H228.536L220.623 84.7099H219.071ZM221.363 84.7099L229.269 69.4209H230.723L222.804 84.7099H221.363ZM225.477 84.7099L233.396 69.4209H234.85L226.918 84.7099H225.477ZM227.658 84.7099L235.583 69.4209H237.142L229.23 84.7099H227.658ZM229.95 84.7099L237.882 69.4209H239.33L231.391 84.7099H229.95ZM232.132 84.7099L240.07 69.4209H241.596L233.651 84.7099H232.132ZM234.385 84.7099L242.33 69.4209H243.784L235.832 84.7099H234.385ZM236.566 84.7099L244.518 69.4209H246.077L238.125 84.7099H236.566ZM238.858 84.7099L246.817 69.4209H248.264L240.306 84.7099H238.858ZM242.788 84.7099L250.76 69.4209H252.155L244.184 84.7099H242.788ZM244.97 84.7099L252.947 69.4209H254.506L246.528 84.7099H244.97ZM247.262 84.7099L255.247 69.4209H256.694L248.683 84.7099H247.262ZM249.443 84.7099L257.434 69.4209H258.96L250.963 84.7099H249.443ZM251.696 84.7099L259.694 69.4209H261.148L253.144 84.7099H251.696ZM253.878 84.7099L261.882 69.4209H263.441L255.43 84.7099H253.878ZM256.17 84.7099L264.181 69.4209H265.628L257.591 84.7099H256.17Z" stroke="white" stroke-width="2" mask="url(#path-11-inside-2_350_5499)"/>
<mask id="path-12-outside-3_350_5499" maskUnits="userSpaceOnUse" x="1315" y="8" width="129" height="129" fill="black">
<rect fill="white" x="1315" y="8" width="129" height="129"/>
<path fill-rule="evenodd" clip-rule="evenodd" d="M1325.02 64.5382C1322.73 71.3593 1322.66 82.8957 1324.27 90.2304C1326.13 98.6747 1330.19 106.739 1335.64 112.944L1343.45 84.5907C1343.58 84.1079 1343.81 83.6353 1344.17 83.286C1344.57 82.8957 1345.07 82.6491 1345.71 82.6491H1362.8H1381.11H1402.11C1402.69 82.6491 1403.15 82.8546 1403.53 83.1936C1403.57 83.2244 1403.62 83.2552 1403.65 83.2963C1404 83.6456 1404.22 84.1181 1404.35 84.601L1411.48 110.478C1413.82 107.222 1415.8 103.565 1417.35 99.4965C1418.83 95.6237 1419.87 91.7097 1420.44 87.8266C1421.59 80.122 1420.99 66.9626 1420.99 59.2477C1412.7 58.2513 1409.27 54.2654 1409.27 46.1397V41.5477H1407.79C1406.73 41.5477 1405.86 40.6951 1405.86 39.637V37.4181C1405.86 36.36 1406.73 35.497 1407.79 35.497H1413.62V23.7553C1413.62 22.0911 1414.98 20.7248 1416.65 20.7248C1418.32 20.7248 1419.67 22.0808 1419.67 23.7553V35.497H1428.57V23.7553C1428.57 22.0911 1429.91 20.7248 1431.6 20.7248C1433.26 20.7248 1434.63 22.0808 1434.63 23.7553V35.497H1440.3C1441.36 35.497 1442.22 36.36 1442.22 37.4181V39.637C1442.22 40.6951 1441.36 41.5477 1440.3 41.5477H1439.12V45.6774C1439.12 53.5463 1435.59 58.3848 1427.4 59.1655C1427.4 67.1064 1427.86 80.3891 1426.75 88.217C1426.12 92.7165 1424.94 97.257 1423.24 101.726C1420.54 108.773 1416.68 114.762 1412.01 119.672C1404.45 127.613 1394.75 132.719 1384.41 134.855C1374.08 136.982 1363.11 136.16 1352.93 132.267C1346.11 129.647 1339.63 125.661 1333.95 120.258C1326.26 112.964 1320.5 102.527 1318.08 91.5556C1316.15 82.7416 1316.37 69.5924 1319.46 61.3228L1319.42 61.2304C1306.24 28.0596 1334.22 22.4814 1351.38 10C1365.49 44.9891 1351.07 61.7235 1325.02 64.5382ZM1347.75 77.1532C1346.77 77.1532 1345.95 76.3416 1345.95 75.3657C1345.95 74.3795 1346.77 73.568 1347.75 73.568H1352.33C1353.32 73.568 1354.13 74.3795 1354.13 75.3555C1354.13 76.3416 1353.32 77.1532 1352.33 77.1532H1347.75ZM1350.55 63.9013C1349.68 63.3979 1349.41 62.3296 1349.88 61.4666C1350.38 60.6037 1351.45 60.3264 1352.31 60.7989L1356.3 63.0897C1357.16 63.5931 1357.44 64.6615 1356.97 65.5244C1356.46 66.3873 1355.39 66.6647 1354.53 66.1921L1350.55 63.9013ZM1373.88 59.7203C1378.29 59.7203 1382.3 61.518 1385.19 64.4047C1388.07 67.2913 1389.87 71.308 1389.87 75.715C1389.87 77.0402 1389.71 78.3346 1389.41 79.5673H1358.35C1358.05 78.3346 1357.89 77.0402 1357.89 75.715C1357.89 71.2977 1359.69 67.2913 1362.58 64.4047C1365.49 61.518 1369.49 59.7203 1373.88 59.7203ZM1395.83 61.4358C1396.69 60.9325 1397.78 61.2201 1398.28 62.083C1398.77 62.9459 1398.48 64.0348 1397.62 64.5177L1393.63 66.8085C1392.77 67.3119 1391.68 67.0242 1391.2 66.1613C1390.69 65.2984 1390.98 64.2095 1391.84 63.7267L1395.83 61.4358ZM1400.05 74.3076C1401.04 74.3076 1401.85 75.1192 1401.85 76.1054C1401.85 77.0916 1401.04 77.9031 1400.05 77.9031H1395.47C1394.48 77.9031 1393.67 77.0916 1393.67 76.1054C1393.67 75.1192 1394.48 74.3076 1395.47 74.3076H1400.05ZM1359.62 53.8237C1359.11 52.9608 1359.4 51.8719 1360.23 51.389C1361.1 50.8857 1362.19 51.1733 1362.67 52.0362L1364.96 56.0221C1365.46 56.885 1365.17 57.9739 1364.31 58.4567C1363.45 58.9601 1362.36 58.6725 1361.88 57.8095L1359.62 53.8237ZM1372.49 49.6016C1372.49 48.6154 1373.28 47.8038 1374.29 47.8038C1375.27 47.8038 1376.08 48.6154 1376.08 49.6016V54.1832C1376.08 55.1694 1375.27 55.9707 1374.29 55.9707C1373.3 55.9707 1372.49 55.1592 1372.49 54.1832V49.6016ZM1385.75 52.3855C1386.25 51.5226 1387.32 51.2452 1388.19 51.7178C1389.05 52.2211 1389.34 53.2895 1388.85 54.1524L1386.56 58.1383C1386.06 59.0012 1384.99 59.2785 1384.13 58.806C1383.26 58.3026 1382.99 57.2343 1383.46 56.3713L1385.75 52.3855ZM1342.33 119.169C1346.33 122.261 1350.67 124.665 1355.19 126.401C1355.57 126.545 1355.96 126.689 1356.35 126.822H1371.01V119.169H1342.33ZM1389.84 126.822C1394.7 125.065 1399.27 122.508 1403.34 119.169H1376.79V126.822H1389.84Z"/>
</mask>
<path fill-rule="evenodd" clip-rule="evenodd" d="M1325.02 64.5382C1322.73 71.3593 1322.66 82.8957 1324.27 90.2304C1326.13 98.6747 1330.19 106.739 1335.64 112.944L1343.45 84.5907C1343.58 84.1079 1343.81 83.6353 1344.17 83.286C1344.57 82.8957 1345.07 82.6491 1345.71 82.6491H1362.8H1381.11H1402.11C1402.69 82.6491 1403.15 82.8546 1403.53 83.1936C1403.57 83.2244 1403.62 83.2552 1403.65 83.2963C1404 83.6456 1404.22 84.1181 1404.35 84.601L1411.48 110.478C1413.82 107.222 1415.8 103.565 1417.35 99.4965C1418.83 95.6237 1419.87 91.7097 1420.44 87.8266C1421.59 80.122 1420.99 66.9626 1420.99 59.2477C1412.7 58.2513 1409.27 54.2654 1409.27 46.1397V41.5477H1407.79C1406.73 41.5477 1405.86 40.6951 1405.86 39.637V37.4181C1405.86 36.36 1406.73 35.497 1407.79 35.497H1413.62V23.7553C1413.62 22.0911 1414.98 20.7248 1416.65 20.7248C1418.32 20.7248 1419.67 22.0808 1419.67 23.7553V35.497H1428.57V23.7553C1428.57 22.0911 1429.91 20.7248 1431.6 20.7248C1433.26 20.7248 1434.63 22.0808 1434.63 23.7553V35.497H1440.3C1441.36 35.497 1442.22 36.36 1442.22 37.4181V39.637C1442.22 40.6951 1441.36 41.5477 1440.3 41.5477H1439.12V45.6774C1439.12 53.5463 1435.59 58.3848 1427.4 59.1655C1427.4 67.1064 1427.86 80.3891 1426.75 88.217C1426.12 92.7165 1424.94 97.257 1423.24 101.726C1420.54 108.773 1416.68 114.762 1412.01 119.672C1404.45 127.613 1394.75 132.719 1384.41 134.855C1374.08 136.982 1363.11 136.16 1352.93 132.267C1346.11 129.647 1339.63 125.661 1333.95 120.258C1326.26 112.964 1320.5 102.527 1318.08 91.5556C1316.15 82.7416 1316.37 69.5924 1319.46 61.3228L1319.42 61.2304C1306.24 28.0596 1334.22 22.4814 1351.38 10C1365.49 44.9891 1351.07 61.7235 1325.02 64.5382ZM1347.75 77.1532C1346.77 77.1532 1345.95 76.3416 1345.95 75.3657C1345.95 74.3795 1346.77 73.568 1347.75 73.568H1352.33C1353.32 73.568 1354.13 74.3795 1354.13 75.3555C1354.13 76.3416 1353.32 77.1532 1352.33 77.1532H1347.75ZM1350.55 63.9013C1349.68 63.3979 1349.41 62.3296 1349.88 61.4666C1350.38 60.6037 1351.45 60.3264 1352.31 60.7989L1356.3 63.0897C1357.16 63.5931 1357.44 64.6615 1356.97 65.5244C1356.46 66.3873 1355.39 66.6647 1354.53 66.1921L1350.55 63.9013ZM1373.88 59.7203C1378.29 59.7203 1382.3 61.518 1385.19 64.4047C1388.07 67.2913 1389.87 71.308 1389.87 75.715C1389.87 77.0402 1389.71 78.3346 1389.41 79.5673H1358.35C1358.05 78.3346 1357.89 77.0402 1357.89 75.715C1357.89 71.2977 1359.69 67.2913 1362.58 64.4047C1365.49 61.518 1369.49 59.7203 1373.88 59.7203ZM1395.83 61.4358C1396.69 60.9325 1397.78 61.2201 1398.28 62.083C1398.77 62.9459 1398.48 64.0348 1397.62 64.5177L1393.63 66.8085C1392.77 67.3119 1391.68 67.0242 1391.2 66.1613C1390.69 65.2984 1390.98 64.2095 1391.84 63.7267L1395.83 61.4358ZM1400.05 74.3076C1401.04 74.3076 1401.85 75.1192 1401.85 76.1054C1401.85 77.0916 1401.04 77.9031 1400.05 77.9031H1395.47C1394.48 77.9031 1393.67 77.0916 1393.67 76.1054C1393.67 75.1192 1394.48 74.3076 1395.47 74.3076H1400.05ZM1359.62 53.8237C1359.11 52.9608 1359.4 51.8719 1360.23 51.389C1361.1 50.8857 1362.19 51.1733 1362.67 52.0362L1364.96 56.0221C1365.46 56.885 1365.17 57.9739 1364.31 58.4567C1363.45 58.9601 1362.36 58.6725 1361.88 57.8095L1359.62 53.8237ZM1372.49 49.6016C1372.49 48.6154 1373.28 47.8038 1374.29 47.8038C1375.27 47.8038 1376.08 48.6154 1376.08 49.6016V54.1832C1376.08 55.1694 1375.27 55.9707 1374.29 55.9707C1373.3 55.9707 1372.49 55.1592 1372.49 54.1832V49.6016ZM1385.75 52.3855C1386.25 51.5226 1387.32 51.2452 1388.19 51.7178C1389.05 52.2211 1389.34 53.2895 1388.85 54.1524L1386.56 58.1383C1386.06 59.0012 1384.99 59.2785 1384.13 58.806C1383.26 58.3026 1382.99 57.2343 1383.46 56.3713L1385.75 52.3855ZM1342.33 119.169C1346.33 122.261 1350.67 124.665 1355.19 126.401C1355.57 126.545 1355.96 126.689 1356.35 126.822H1371.01V119.169H1342.33ZM1389.84 126.822C1394.7 125.065 1399.27 122.508 1403.34 119.169H1376.79V126.822H1389.84Z" stroke="white" stroke-width="2" mask="url(#path-12-outside-3_350_5499)"/>
<path d="M1325.27 56.1456L1325.23 56.4582L1325.49 56.6334L1325.55 56.6744L1325.92 56.9243L1326.21 56.5774C1329.32 52.8272 1331.97 49.9061 1334.26 47.3832C1334.44 47.1813 1334.63 46.9819 1334.8 46.7849C1337.21 44.1299 1339.22 41.8863 1340.92 39.5354C1344.33 34.8059 1346.46 29.6736 1348.22 19.8888L1347.27 19.5978C1346.01 22.4488 1344.16 25.1837 1342.04 27.9345C1340.81 29.5341 1339.51 31.1164 1338.18 32.7268C1337.21 33.9018 1336.23 35.0918 1335.26 36.3143C1330.68 42.0644 1326.4 48.3527 1325.27 56.1456Z" stroke="white"/>
<path d="M1366.55 99.7563H1366.11L1366.06 100.188L1365.45 104.606L1365.37 105.174H1365.94H1380.23H1380.79L1380.73 104.624L1380.29 100.207L1380.25 99.7563H1379.79H1366.55ZM1380.99 84.1211H1380.44L1380.5 84.6703L1381.06 90.382L1381.11 90.8328H1381.56H1392.21H1392.81L1392.7 90.2426L1391.66 84.5309L1391.58 84.1211H1391.16H1380.99ZM1393.94 84.1211H1393.34L1393.45 84.7113L1394.49 90.423L1394.57 90.8328H1394.99H1403.31H1403.96L1403.79 90.2009L1402.23 84.4893L1402.13 84.1211H1401.75H1393.94ZM1404.54 92.9433L1404.44 92.5756H1404.06H1395.48H1394.88L1394.99 93.1649L1395.79 97.5822L1395.86 97.9929H1396.28H1405.27H1405.92L1405.75 97.3606L1404.54 92.9433ZM1406.52 100.123L1406.42 99.7563H1406.04H1396.79H1396.19L1396.3 100.347L1397.11 104.764L1397.19 105.174H1397.61H1407.26H1407.92L1407.74 104.54L1406.52 100.123ZM1408.5 107.284L1408.4 106.916H1408.02H1398.11H1397.51L1397.62 107.507L1399.13 115.745L1399.2 116.155H1399.62H1410.29H1410.95L1410.77 115.522L1408.5 107.284ZM1396.84 116.155H1397.44L1397.33 115.565L1395.82 107.326L1395.74 106.916H1395.32H1383.25H1382.7L1382.76 107.465L1383.57 115.704L1383.61 116.155H1384.07H1396.84ZM1381.31 116.155H1381.87L1381.81 115.606L1380.99 107.367L1380.94 106.916H1380.49H1365.58H1365.14L1365.08 107.348L1363.95 115.587L1363.87 116.155H1364.45H1381.31ZM1361.68 116.155H1362.12L1362.18 115.723L1363.31 107.484L1363.38 106.916H1362.81H1351.41H1351.01L1350.92 107.303L1349.01 115.542L1348.87 116.155H1349.5H1361.68ZM1346.68 116.155H1347.08L1347.17 115.768L1349.08 107.529L1349.22 106.916H1348.59H1339.78H1339.4L1339.3 107.284L1337.03 115.522L1336.85 116.155H1337.51H1346.68ZM1340.06 104.531L1339.88 105.163H1340.54H1349.24H1349.64L1349.73 104.775L1350.75 100.358L1350.89 99.746H1350.26H1341.75H1341.37L1341.27 100.114L1340.06 104.531ZM1342.04 97.3503L1341.87 97.9826H1342.52H1350.9H1351.29L1351.38 97.5959L1352.41 93.1786L1352.55 92.5653H1351.92H1343.74H1343.35L1343.25 92.933L1342.04 97.3503ZM1344.01 90.1899L1343.84 90.8225H1344.5H1352.57H1352.97L1353.06 90.4355L1354.38 84.7238L1354.52 84.1108H1353.89H1346.07H1345.69L1345.58 84.4782L1344.01 90.1899ZM1356.71 84.1211H1356.31L1356.22 84.5081L1354.9 90.2198L1354.76 90.8328H1355.38H1365.14H1365.58L1365.64 90.4005L1366.42 84.6888L1366.5 84.1211H1365.92H1356.71ZM1368.67 84.1211H1368.17V84.6211C1368.17 84.6489 1368.17 84.6621 1368.17 84.6732C1368.17 84.6766 1368.17 84.6787 1368.17 84.6799L1368.16 84.6918L1368.16 84.7065L1367.39 90.2641L1367.31 90.8328H1367.89H1378.8H1379.35L1379.29 90.2836L1378.73 84.5719L1378.68 84.1211H1378.23H1368.67ZM1381.83 92.5756H1381.28L1381.33 93.1242L1381.76 97.5415L1381.8 97.9929H1382.26H1393.51H1394.11L1394 97.4026L1393.19 92.9853L1393.11 92.5756H1392.7H1381.83ZM1354.74 92.5756H1354.34L1354.25 92.9624L1353.22 97.3797L1353.08 97.9929H1353.71H1364.16H1364.59L1364.65 97.5597L1365.25 93.1425L1365.33 92.5756H1364.75H1354.74ZM1367.53 92.5756H1367.09L1367.03 93.0077L1366.43 97.4249L1366.35 97.9929H1366.92H1379.52H1380.07L1380.01 97.4432L1379.57 93.0259L1379.53 92.5756H1379.07H1367.53ZM1382.54 99.7563H1381.98L1382.04 100.306L1382.48 104.723L1382.52 105.174H1382.98H1394.82H1395.42L1395.31 104.583L1394.5 100.166L1394.43 99.7563H1394.01H1382.54ZM1353.07 99.7563H1352.68L1352.59 100.144L1351.57 104.561L1351.43 105.174H1352.06H1363.19H1363.63L1363.69 104.74L1364.28 100.323L1364.36 99.7563H1363.79H1353.07Z" stroke="white"/>
<path d="M1503.75 232.6V258.6C1503.75 268.407 1503.75 273.306 1506.78 276.353C1509.21 278.807 1512.84 279.286 1519.25 279.379M1581.25 232.6V258.6C1581.25 268.407 1581.25 273.306 1578.22 276.353C1575.79 278.807 1572.16 279.286 1565.75 279.379M1547.67 253.4L1534.26 269.348C1532.63 271.48 1531.81 272.552 1532.32 273.378C1532.82 274.2 1534.3 274.2 1537.25 274.2H1547.75C1550.7 274.2 1552.18 274.2 1552.68 275.022C1553.19 275.848 1552.37 276.914 1550.74 279.052L1537.25 295M1532.17 191L1527 232.6M1552.83 191L1558 232.6M1501.17 211.8H1583.83M1500.99 210.75L1504.11 203.464C1506.69 197.417 1507.99 194.39 1510.52 192.7C1513.06 191 1516.29 191 1522.75 191H1562.25C1568.71 191 1571.94 191 1574.48 192.695C1577.01 194.39 1578.31 197.417 1580.89 203.459L1584.01 210.75C1588.23 220.609 1590.34 225.538 1588.08 229.069C1585.82 232.6 1580.56 232.6 1570.03 232.6H1514.97C1504.44 232.6 1499.18 232.6 1496.92 229.069C1494.66 225.538 1496.77 220.609 1500.99 210.75Z" stroke="white" stroke-linecap="round" stroke-linejoin="round"/>
<path d="M28.1133 31.05H25.7271C22.3205 31.05 20.6157 31.05 19.3091 32.1021C18.0024 33.1542 17.4082 35.0064 16.2105 38.7171L13.6719 46.5921C11.3324 53.8403 10.1658 57.4659 11.6808 60.008C13.1959 62.55 16.5278 62.55 23.1854 62.55H54.8183C61.4759 62.55 64.8047 62.55 66.3198 60.008C67.8349 57.4659 66.6651 53.8403 64.3287 46.5889L61.7901 38.7139C60.5924 35.0064 59.9951 33.1542 58.6915 32.099C57.3849 31.05 55.6832 31.05 52.2766 31.05H48.3349M39.0019 38.925V62.55V72M63.8901 46.8H14.1137M39.0019 72H45.2239M39.0019 72H32.7798M40.5574 9L32.7798 20.025H45.2239L37.4464 31.05" stroke="white" stroke-linecap="round" stroke-linejoin="round"/>
</g>
<defs>
<linearGradient id="paint0_linear_350_5499" x1="188.579" y1="343.245" x2="-139.785" y2="-87.1766" gradientUnits="userSpaceOnUse">
<stop stop-color="#15A135"/>
<stop offset="1" stop-color="#DEB343"/>
</linearGradient>
<linearGradient id="paint1_linear_350_5499" x1="1412.23" y1="343.245" x2="1740.59" y2="-87.1766" gradientUnits="userSpaceOnUse">
<stop stop-color="#15A135"/>
<stop offset="1" stop-color="#DEB343"/>
</linearGradient>
<clipPath id="clip0_350_5499">
<rect width="1600" height="300" fill="white"/>
</clipPath>
</defs>
</svg>
