<svg width="406" height="288" viewBox="0 0 406 288" fill="none" xmlns="http://www.w3.org/2000/svg">
<path d="M173.372 218.615L206.74 217.791" stroke="white" stroke-width="0.823903" stroke-linecap="round"/>
<path d="M189.85 199.253L191.91 240.037" stroke="white" stroke-width="0.823903" stroke-linecap="round"/>
<path d="M205.111 198.862C195.494 199.105 178.407 199.471 173.727 199.339C173.152 199.323 172.572 199.868 172.595 200.444L174.163 240.821C174.181 241.291 174.588 241.65 175.057 241.61L206.78 238.868C207.219 238.831 207.55 238.454 207.532 238.014L205.95 199.652C205.931 199.202 205.561 198.85 205.111 198.862Z" stroke="white" stroke-width="0.823903" stroke-linecap="round"/>
<path d="M218.6 215.697L248.435 214.961" stroke="white" stroke-width="0.823903" stroke-linecap="round"/>
<path d="M233.333 198.386L235.175 234.851" stroke="white" stroke-width="0.823903" stroke-linecap="round"/>
<path d="M246.89 198.038C238.363 198.253 223.393 198.573 219.047 198.466C218.471 198.451 217.887 199.001 217.909 199.576L219.303 235.461C219.321 235.931 219.729 236.29 220.197 236.25L248.387 233.814C248.826 233.776 249.157 233.399 249.139 232.959L247.732 198.828C247.713 198.378 247.34 198.027 246.89 198.038Z" stroke="white" stroke-width="0.823903" stroke-linecap="round"/>
<path d="M145.358 156.121C145.687 156.12 176.941 156.217 191.91 156.41" stroke="white" stroke-width="0.823903" stroke-linecap="round"/>
<path d="M153.595 168.913C153.925 168.905 185.591 168.861 200.561 168.769" stroke="white" stroke-width="0.823903" stroke-linecap="round"/>
<path d="M161.01 181.091C161.364 181.085 193.621 181.1 209.705 181.108" stroke="white" stroke-width="0.823903" stroke-linecap="round"/>
<path d="M124.762 123.454C125.092 123.454 155.109 124.003 170.077 124.278" stroke="white" stroke-width="0.823903" stroke-linecap="round"/>
<path d="M131.353 133.753C131.683 133.753 161.7 134.302 176.668 134.577" stroke="white" stroke-width="0.823903" stroke-linecap="round"/>
<path d="M137.944 144.052C138.274 144.052 169.115 144.601 184.083 144.876" stroke="white" stroke-width="0.823903" stroke-linecap="round"/>
<path d="M124.762 123.454L161.014 181.127" stroke="white" stroke-width="0.823903" stroke-linecap="round"/>
<path d="M138.98 123.997L178.728 181.127" stroke="white" stroke-width="0.823903" stroke-linecap="round"/>
<path d="M154.423 124.053L194.382 180.715" stroke="white" stroke-width="0.823903" stroke-linecap="round"/>
<path d="M169.865 124.11L209.624 181.127" stroke="white" stroke-width="0.823903" stroke-linecap="round"/>
<path d="M199.741 154.855C200.057 154.853 230.069 154.947 244.442 155.132" stroke="white" stroke-width="0.823903" stroke-linecap="round"/>
<path d="M207.651 167.138C207.967 167.13 238.375 167.089 252.75 167" stroke="white" stroke-width="0.823903" stroke-linecap="round"/>
<path d="M214.771 178.832C215.111 178.826 246.085 178.841 261.53 178.849" stroke="white" stroke-width="0.823903" stroke-linecap="round"/>
<path d="M179.964 123.486C180.28 123.486 209.104 124.014 223.477 124.278" stroke="white" stroke-width="0.823903" stroke-linecap="round"/>
<path d="M186.293 133.376C186.609 133.376 215.434 133.903 229.806 134.167" stroke="white" stroke-width="0.823903" stroke-linecap="round"/>
<path d="M192.622 143.265C192.938 143.265 222.554 143.793 236.927 144.056" stroke="white" stroke-width="0.823903" stroke-linecap="round"/>
<path d="M179.964 123.486L214.774 178.867" stroke="white" stroke-width="0.823903" stroke-linecap="round"/>
<path d="M193.616 124.007L231.784 178.867" stroke="white" stroke-width="0.823903" stroke-linecap="round"/>
<path d="M208.445 124.062L246.816 178.472" stroke="white" stroke-width="0.823903" stroke-linecap="round"/>
<path d="M223.274 124.116L261.452 178.867" stroke="white" stroke-width="0.823903" stroke-linecap="round"/>
<path d="M97.9851 160.53C98.9738 160.53 114.326 161.079 121.878 161.354" stroke="white" stroke-width="0.823903" stroke-linecap="round"/>
<path d="M110.756 146.523L109.932 170.005" stroke="white" stroke-width="0.823903" stroke-linecap="round"/>
<path d="M121.878 161.354C120.642 143.64 101.281 139.52 97.9851 160.53L97.6104 168.774C97.5898 169.227 97.9389 169.611 98.3916 169.634L121.013 170.784C121.483 170.808 121.878 170.433 121.878 169.962V161.354Z" stroke="white" stroke-width="0.823903" stroke-linecap="round"/>
<path d="M116.935 126.75L109.251 115.772C108.857 115.211 109.283 114.442 109.968 114.477L229.398 120.571" stroke="white" stroke-width="0.823903" stroke-linecap="round"/>
<path d="M71.6202 175.36L114.176 124.699C114.527 124.281 115.18 124.314 115.487 124.765L159.528 189.411C159.684 189.64 159.945 189.776 160.222 189.771L261.118 188.131" stroke="white" stroke-width="0.823903" stroke-linecap="round"/>
<path d="M91.3939 251.571L94.6333 205.004C94.6645 204.556 95.0492 204.215 95.498 204.239L125.636 205.804C126.071 205.827 126.413 206.184 126.417 206.619L126.822 249.511" stroke="white" stroke-width="0.823903" stroke-linecap="round"/>
<path d="M71.2083 178.656V176.201C71.2083 175.739 71.5876 175.368 72.0491 175.377L150.342 176.992C150.782 177.001 151.137 177.353 151.149 177.792L153.187 250.335" stroke="white" stroke-width="0.823903" stroke-linecap="round"/>
<path d="M204.681 258.574C226.976 250.611 308.5 239.5 405 288.5" stroke="white" stroke-width="0.823903" stroke-linecap="round"/>
<path d="M180.47 16.5608C180.941 4.86 173.104 4.48075 170.38 15.7503C170.283 16.1534 169.689 16.208 169.521 15.8289C164.669 4.88387 157.285 7.22204 156.909 19.0958C156.898 19.4567 156.45 19.6389 156.184 19.3953C142.991 7.3344 139.42 14.269 145.844 26.8183C145.99 27.1032 145.766 27.4486 145.446 27.4367C130.499 26.8777 129.51 33.3751 139.575 38.5843C139.893 38.749 139.875 39.2234 139.546 39.3648C128.576 44.0763 129.854 50.0824 139.631 51.2477C140.02 51.2941 140.16 51.8156 139.84 52.0431C130.059 59.0127 132.458 64.6713 143.852 63.0043C144.159 62.9594 144.416 63.2589 144.323 63.5551C141.103 73.8224 145.296 76.221 153.694 70.0383C153.979 69.8283 154.39 70.0508 154.378 70.4048C153.969 82.0852 160.54 81.2954 165.688 72.7414C165.899 72.3915 166.463 72.5078 166.515 72.9129C168.042 85.0144 174.588 84.0077 176.479 73.5617C176.549 73.1756 177.079 73.0722 177.287 73.4051C182.91 82.4182 187.662 80.1065 186.742 70.9507C186.7 70.5364 187.251 70.2846 187.54 70.5841C193.429 76.6861 198.229 73.7484 194.53 64.2407C194.38 63.854 194.837 63.4703 195.192 63.686C203.232 68.5795 208.084 65.5823 201.732 57.26C201.493 56.947 201.78 56.4836 202.167 56.5556C211.526 58.2973 213.951 53.4843 204.203 46.0467C203.873 45.795 204.075 45.2354 204.49 45.238C214.896 45.3025 213.793 37.7916 204.118 34.7814C203.751 34.6674 203.702 34.1442 204.041 33.9646C212.7 29.3841 209.973 24.7166 201.374 27.0952C200.989 27.2018 200.656 26.7497 200.875 26.4155C206.771 17.4325 199.996 15.8435 191.702 20.6644C191.363 20.8616 190.939 20.5227 191.055 20.1479C194.111 10.2255 187.423 9.67069 181.276 16.8762C181.008 17.1908 180.454 16.9739 180.47 16.5608Z" stroke="white" stroke-width="0.823903" stroke-linecap="round"/>
<path d="M45.2553 82.6709L47.727 254.043" stroke="white" stroke-width="0.823903" stroke-linecap="round"/>
<path d="M295.31 97.5012L292.014 240.037" stroke="white" stroke-width="1.10489" stroke-linecap="round"/>
<path d="M71.7903 43.1442L48.3673 69.5896C48.0313 69.969 47.4391 69.9545 47.0966 69.581C46.3286 68.7433 45.6735 68.2623 44.8246 68.0233C44.2593 67.8642 43.884 67.2569 44.1354 66.7263L50.967 52.304C51.0039 52.2262 51.0537 52.1535 51.1128 52.091C57.1741 45.68 62.26 43.2544 71.0615 41.8084C71.8164 41.6844 72.2976 42.5715 71.7903 43.1442Z" stroke="white" stroke-width="0.823903" stroke-linecap="round"/>
<path d="M306.632 37.0289L301.09 84.0787C301.011 84.7536 300.348 85.1911 299.685 85.042C298.198 84.7078 297.108 84.6797 295.991 85.0666C295.247 85.3242 294.369 84.943 294.239 84.1662L290.718 63.0568C290.699 62.943 290.699 62.8248 290.716 62.7107C292.481 51.0115 296.223 44.4469 304.806 36.1163C305.543 35.4017 306.752 36.0099 306.632 37.0289Z" stroke="white" stroke-width="1.10489" stroke-linecap="round"/>
<path d="M57.7399 111.446L43.6464 79.0523C43.4442 78.5876 43.7072 78.0568 44.1903 77.9039C45.2738 77.561 45.9864 77.17 46.5612 76.5012C46.9439 76.0559 47.6528 75.9718 48.0279 76.4236L58.2212 88.7025C58.2762 88.7687 58.321 88.8445 58.3528 88.9245C61.6078 97.1248 61.6611 102.759 59.2585 111.349C59.0524 112.086 58.0451 112.148 57.7399 111.446Z" stroke="white" stroke-width="0.823903" stroke-linecap="round"/>
<path d="M343.457 122.987L303.138 98.1116C302.56 97.7548 302.443 96.969 302.858 96.4308C303.788 95.2238 304.273 94.2477 304.394 93.0712C304.474 92.2879 305.19 91.6526 305.949 91.8629L326.573 97.5775C326.684 97.6083 326.792 97.6574 326.888 97.7212C336.75 104.258 341.123 110.42 345.054 121.717C345.392 122.686 344.33 123.526 343.457 122.987Z" stroke="white" stroke-width="1.10489" stroke-linecap="round"/>
<path d="M4.14081 59.3901L38.0697 69.2302C38.5564 69.3714 38.797 69.9127 38.6061 70.3821C38.1781 71.4349 38.0239 72.2329 38.1716 73.1024C38.2699 73.6813 37.8819 74.2805 37.2947 74.2806L21.3362 74.284C21.2501 74.284 21.1631 74.2702 21.0813 74.2435C12.6921 71.5119 8.32197 67.9549 3.24589 60.6208C2.81048 59.9917 3.406 59.1769 4.14081 59.3901Z" stroke="white" stroke-width="0.823903" stroke-linecap="round"/>
<path d="M244.588 106.71L289.478 91.5672C290.122 91.35 290.801 91.7618 290.95 92.4248C291.285 93.9116 291.726 94.9082 292.555 95.7524C293.106 96.3146 293.138 97.2714 292.491 97.7211L274.924 109.943C274.829 110.009 274.722 110.06 274.612 110.094C263.284 113.509 255.749 112.939 244.545 108.751C243.584 108.391 243.616 107.038 244.588 106.71Z" stroke="white" stroke-width="1.10489" stroke-linecap="round"/>
<path d="M163.073 36.5322C163.485 42.2996 168.841 41.8876 169.253 36.5322" stroke="white" stroke-width="0.823903" stroke-linecap="round"/>
<path d="M174.196 36.5322C174.608 42.2996 179.964 41.8876 180.375 36.5322" stroke="white" stroke-width="0.823903" stroke-linecap="round"/>
<path d="M170.077 44.7715C170.296 47.0492 173.153 46.8865 173.372 44.7715" stroke="white" stroke-width="0.823903" stroke-linecap="round"/>
<circle cx="43.1955" cy="72.7841" r="4.94342" stroke="white" stroke-width="0.823903"/>
<circle cx="6.62932" cy="6.62932" r="6.62932" transform="matrix(-1 0 0 1 304.368 85.0712)" stroke="white" stroke-width="1.10489"/>
<path d="M40.3119 76.9036L37.4282 263.93" stroke="white" stroke-width="0.823903" stroke-linecap="round"/>
<path d="M301.901 97.5012L305.197 248.276" stroke="white" stroke-width="1.10489" stroke-linecap="round"/>
<path d="M96.0095 6.85271C70.6769 5.4795 78.9696 33.5295 97.502 24.0174C97.7897 23.8697 98.1541 23.8905 98.4142 24.0825C106.178 29.8147 111.051 29.6467 119.842 25.1964C120.083 25.074 120.376 25.0765 120.616 25.2028C127.812 28.9972 131.556 29.0194 136.766 23.717C136.984 23.4952 137.309 23.408 137.608 23.4936C139.921 24.1556 141.409 24.2888 143.452 24.2227C143.996 24.2051 144.362 23.6602 144.191 23.1424C141.437 14.7688 141.441 11.287 150.871 14.9216C151.496 15.1625 152.151 14.6145 151.957 13.9737C150.147 8.01573 146.437 6.58634 137.872 6.4642C137.657 6.46113 137.445 6.37176 137.291 6.22146C130.772 -0.153482 126.228 0.0917689 117.744 3.81305C117.497 3.92127 117.206 3.90265 116.974 3.76591C109.401 -0.695224 104.812 0.216367 96.5891 6.67357C96.429 6.79933 96.2128 6.86373 96.0095 6.85271Z" stroke="white" stroke-width="0.823903" stroke-linecap="round"/>
<ellipse cx="172.136" cy="44.7713" rx="21.0095" ry="18.9498" stroke="white" stroke-width="0.823903"/>
<path d="M210.448 38.1802C214.908 32.5042 220.641 32.0199 229.778 38.6771C230.045 38.872 230.412 38.892 230.699 38.7263C240.336 33.1536 244.615 33.1771 248.819 40.4378C249.025 40.7932 249.459 40.9535 249.846 40.8177C255.475 38.8441 257.708 40.1996 260.189 45.374C260.257 45.5166 260.372 45.6433 260.505 45.7292C269.947 51.8281 261.65 60.2024 251.58 56.4411C251.36 56.3587 251.108 56.3681 250.897 56.4721C244.362 59.6889 240.667 59.8143 234.81 55.0463C234.53 54.8187 234.132 54.7925 233.827 54.9836C226.868 59.331 222.758 59.6927 215.606 54.8061C215.468 54.7116 215.302 54.6583 215.134 54.6583H210.448" stroke="white" stroke-width="0.823903" stroke-linecap="round"/>
<path d="M1 288C70 231 175.313 248.721 251.643 270.933" stroke="white" stroke-width="0.823903" stroke-linecap="round"/>
<path d="M119.127 228.914C119.127 229.942 118.772 230.426 118.437 230.67C118.298 230.771 118.15 230.84 118.01 230.886C118.162 230.472 118.303 229.852 118.303 228.914C118.303 227.976 118.162 227.355 118.01 226.942C118.15 226.988 118.298 227.056 118.437 227.158C118.772 227.402 119.127 227.886 119.127 228.914Z" fill="#FF0000" stroke="white" stroke-width="0.823903"/>
<path d="M120.231 193.898C120.231 195.051 119.409 196.176 117.904 197.036C116.412 197.889 114.322 198.429 111.991 198.429C109.661 198.429 107.571 197.889 106.079 197.036C104.574 196.176 103.752 195.051 103.752 193.898C103.752 192.744 104.574 191.62 106.079 190.76C107.571 189.907 109.661 189.366 111.991 189.366C114.322 189.366 116.412 189.907 117.904 190.76C119.409 191.62 120.231 192.744 120.231 193.898Z" stroke="white" stroke-width="0.823903"/>
</svg>
