<svg width="1600" height="858" viewBox="0 0 1600 858" fill="none" xmlns="http://www.w3.org/2000/svg">
<g clip-path="url(#clip0_481_2612)">
<rect width="1600" height="858" fill="#15A135"/>
<path d="M1269.36 809.885C1479.93 997.251 1802.52 978.442 1989.89 767.874C2177.25 557.307 2158.44 234.718 1947.87 47.3519C1737.31 -140.014 1414.72 -121.205 1227.35 89.3629C1039.99 299.931 1058.79 622.52 1269.36 809.885Z" fill="url(#paint0_linear_481_2612)"/>
<path d="M277.064 244.445C535.077 357.909 652.256 659.051 538.792 917.064C425.328 1175.08 124.186 1292.26 -133.826 1178.79C-391.839 1065.33 -509.019 764.186 -395.555 506.174C-282.091 248.161 19.0509 130.981 277.064 244.445Z" fill="url(#paint1_linear_481_2612)"/>
</g>
<defs>
<linearGradient id="paint0_linear_481_2612" x1="1269.36" y1="809.867" x2="1947.86" y2="47.3531" gradientUnits="userSpaceOnUse">
<stop stop-color="#15A135"/>
<stop offset="1" stop-color="#DEB343"/>
</linearGradient>
<linearGradient id="paint1_linear_481_2612" x1="277.047" y1="244.452" x2="-133.833" y2="1178.78" gradientUnits="userSpaceOnUse">
<stop stop-color="#15A135"/>
<stop offset="1" stop-color="#DEB343"/>
</linearGradient>
<clipPath id="clip0_481_2612">
<rect width="1600" height="858" fill="white"/>
</clipPath>
</defs>
</svg>
